G75*
%MOIN*%
%OFA0B0*%
%FSLAX25Y25*%
%IPPOS*%
%LPD*%
%AMOC8*
5,1,8,0,0,1.08239X$1,22.5*
%
%ADD10C,0.00800*%
%ADD11R,0.02500X0.05000*%
%ADD12C,0.01000*%
%ADD13C,0.07400*%
%ADD14C,0.02500*%
%ADD15C,0.00600*%
%ADD16C,0.02600*%
D10*
X0032746Y0031650D02*
X0035548Y0031650D01*
X0034147Y0031650D02*
X0034147Y0035854D01*
X0035548Y0034452D01*
X0037350Y0035153D02*
X0040152Y0032351D01*
X0039451Y0031650D01*
X0038050Y0031650D01*
X0037350Y0032351D01*
X0037350Y0035153D01*
X0038050Y0035854D01*
X0039451Y0035854D01*
X0040152Y0035153D01*
X0040152Y0032351D01*
X0041954Y0031650D02*
X0044756Y0035854D01*
X0041954Y0035854D02*
X0044756Y0031650D01*
X0134746Y0031650D02*
X0137548Y0031650D01*
X0136147Y0031650D02*
X0136147Y0035854D01*
X0137548Y0034452D01*
X0139350Y0035153D02*
X0142152Y0032351D01*
X0141451Y0031650D01*
X0140050Y0031650D01*
X0139350Y0032351D01*
X0139350Y0035153D01*
X0140050Y0035854D01*
X0141451Y0035854D01*
X0142152Y0035153D01*
X0142152Y0032351D01*
X0143954Y0031650D02*
X0146756Y0035854D01*
X0143954Y0035854D02*
X0146756Y0031650D01*
X0236746Y0031650D02*
X0239548Y0031650D01*
X0238147Y0031650D02*
X0238147Y0035854D01*
X0239548Y0034452D01*
X0241350Y0035153D02*
X0244152Y0032351D01*
X0243451Y0031650D01*
X0242050Y0031650D01*
X0241350Y0032351D01*
X0241350Y0035153D01*
X0242050Y0035854D01*
X0243451Y0035854D01*
X0244152Y0035153D01*
X0244152Y0032351D01*
X0245954Y0031650D02*
X0248756Y0035854D01*
X0245954Y0035854D02*
X0248756Y0031650D01*
X0248756Y0133650D02*
X0245954Y0137854D01*
X0244152Y0137153D02*
X0243451Y0137854D01*
X0242050Y0137854D01*
X0241350Y0137153D01*
X0244152Y0134351D01*
X0243451Y0133650D01*
X0242050Y0133650D01*
X0241350Y0134351D01*
X0241350Y0137153D01*
X0239548Y0136452D02*
X0238147Y0137854D01*
X0238147Y0133650D01*
X0239548Y0133650D02*
X0236746Y0133650D01*
X0244152Y0134351D02*
X0244152Y0137153D01*
X0245954Y0133650D02*
X0248756Y0137854D01*
X0146756Y0137854D02*
X0143954Y0133650D01*
X0142152Y0134351D02*
X0139350Y0137153D01*
X0139350Y0134351D01*
X0140050Y0133650D01*
X0141451Y0133650D01*
X0142152Y0134351D01*
X0142152Y0137153D01*
X0141451Y0137854D01*
X0140050Y0137854D01*
X0139350Y0137153D01*
X0137548Y0136452D02*
X0136147Y0137854D01*
X0136147Y0133650D01*
X0137548Y0133650D02*
X0134746Y0133650D01*
X0143954Y0137854D02*
X0146756Y0133650D01*
X0044756Y0133650D02*
X0041954Y0137854D01*
X0040152Y0137153D02*
X0039451Y0137854D01*
X0038050Y0137854D01*
X0037350Y0137153D01*
X0040152Y0134351D01*
X0039451Y0133650D01*
X0038050Y0133650D01*
X0037350Y0134351D01*
X0037350Y0137153D01*
X0035548Y0136452D02*
X0034147Y0137854D01*
X0034147Y0133650D01*
X0035548Y0133650D02*
X0032746Y0133650D01*
X0040152Y0134351D02*
X0040152Y0137153D01*
X0041954Y0133650D02*
X0044756Y0137854D01*
X0044756Y0235650D02*
X0041954Y0239854D01*
X0040152Y0239153D02*
X0039451Y0239854D01*
X0038050Y0239854D01*
X0037350Y0239153D01*
X0040152Y0236351D01*
X0039451Y0235650D01*
X0038050Y0235650D01*
X0037350Y0236351D01*
X0037350Y0239153D01*
X0035548Y0238452D02*
X0034147Y0239854D01*
X0034147Y0235650D01*
X0035548Y0235650D02*
X0032746Y0235650D01*
X0040152Y0236351D02*
X0040152Y0239153D01*
X0041954Y0235650D02*
X0044756Y0239854D01*
X0134746Y0235650D02*
X0137548Y0235650D01*
X0136147Y0235650D02*
X0136147Y0239854D01*
X0137548Y0238452D01*
X0139350Y0239153D02*
X0142152Y0236351D01*
X0141451Y0235650D01*
X0140050Y0235650D01*
X0139350Y0236351D01*
X0139350Y0239153D01*
X0140050Y0239854D01*
X0141451Y0239854D01*
X0142152Y0239153D01*
X0142152Y0236351D01*
X0143954Y0235650D02*
X0146756Y0239854D01*
X0143954Y0239854D02*
X0146756Y0235650D01*
X0236746Y0235650D02*
X0239548Y0235650D01*
X0238147Y0235650D02*
X0238147Y0239854D01*
X0239548Y0238452D01*
X0241350Y0239153D02*
X0244152Y0236351D01*
X0243451Y0235650D01*
X0242050Y0235650D01*
X0241350Y0236351D01*
X0241350Y0239153D01*
X0242050Y0239854D01*
X0243451Y0239854D01*
X0244152Y0239153D01*
X0244152Y0236351D01*
X0245954Y0235650D02*
X0248756Y0239854D01*
X0245954Y0239854D02*
X0248756Y0235650D01*
D11*
X0278750Y0195750D03*
X0282750Y0195750D03*
X0286750Y0195750D03*
X0184750Y0195750D03*
X0180750Y0195750D03*
X0176750Y0195750D03*
X0082750Y0195750D03*
X0078750Y0195750D03*
X0074750Y0195750D03*
X0074750Y0093750D03*
X0078750Y0093750D03*
X0082750Y0093750D03*
X0176750Y0093750D03*
X0180750Y0093750D03*
X0184750Y0093750D03*
X0278750Y0093750D03*
X0282750Y0093750D03*
X0286750Y0093750D03*
X0286750Y0297750D03*
X0282750Y0297750D03*
X0278750Y0297750D03*
X0184750Y0297750D03*
X0180750Y0297750D03*
X0176750Y0297750D03*
X0082750Y0297750D03*
X0078750Y0297750D03*
X0074750Y0297750D03*
D12*
X0078750Y0297750D01*
X0082750Y0297750D01*
X0085700Y0295750D02*
X0086771Y0295750D01*
X0091925Y0300904D01*
X0092693Y0300904D01*
X0093796Y0301360D01*
X0094640Y0302204D01*
X0095096Y0303307D01*
X0095096Y0304500D01*
X0094640Y0305603D01*
X0093796Y0306447D01*
X0092693Y0306904D01*
X0091500Y0306904D01*
X0090397Y0306447D01*
X0089553Y0305603D01*
X0089096Y0304500D01*
X0089096Y0303732D01*
X0085700Y0300335D01*
X0085700Y0300954D01*
X0084704Y0301950D01*
X0080796Y0301950D01*
X0080750Y0301904D01*
X0080750Y0301904D01*
X0080750Y0306578D01*
X0079250Y0308078D01*
X0079250Y0308078D01*
X0078078Y0309250D01*
X0063422Y0309250D01*
X0062250Y0308078D01*
X0060750Y0306578D01*
X0060750Y0299422D01*
X0061750Y0298422D01*
X0061750Y0284993D01*
X0061207Y0284449D01*
X0060750Y0283347D01*
X0060750Y0282153D01*
X0061207Y0281051D01*
X0061750Y0280507D01*
X0061750Y0256922D01*
X0071750Y0246922D01*
X0071750Y0242766D01*
X0070691Y0242328D01*
X0069172Y0240809D01*
X0068641Y0239526D01*
X0068569Y0239746D01*
X0068197Y0240475D01*
X0067716Y0241138D01*
X0067138Y0241716D01*
X0066475Y0242197D01*
X0065746Y0242569D01*
X0064968Y0242822D01*
X0064250Y0242936D01*
X0064250Y0238250D01*
X0063250Y0238250D01*
X0063250Y0242936D01*
X0062532Y0242822D01*
X0061754Y0242569D01*
X0061025Y0242197D01*
X0060362Y0241716D01*
X0059784Y0241138D01*
X0059303Y0240475D01*
X0058931Y0239746D01*
X0058678Y0238968D01*
X0058564Y0238250D01*
X0063250Y0238250D01*
X0063250Y0237250D01*
X0058564Y0237250D01*
X0058678Y0236532D01*
X0058931Y0235754D01*
X0059303Y0235025D01*
X0059429Y0234850D01*
X0046737Y0234850D01*
X0046986Y0236091D01*
X0045879Y0237752D01*
X0046986Y0239412D01*
X0046645Y0241118D01*
X0045197Y0242083D01*
X0043491Y0241742D01*
X0043355Y0241538D01*
X0043218Y0241742D01*
X0041512Y0242083D01*
X0040720Y0241555D01*
X0040321Y0241954D01*
X0038920Y0241954D01*
X0038742Y0241954D01*
X0038582Y0241954D01*
X0038582Y0241954D01*
X0037180Y0241954D01*
X0037180Y0241954D01*
X0037166Y0241940D01*
X0036099Y0240872D01*
X0035881Y0241089D01*
X0035017Y0241954D01*
X0033277Y0241954D01*
X0032653Y0241330D01*
X0032047Y0240723D01*
X0032047Y0237750D01*
X0031876Y0237750D01*
X0030850Y0236724D01*
X0030850Y0317633D01*
X0031438Y0316615D01*
X0031438Y0316615D01*
X0033977Y0314484D01*
X0033977Y0314484D01*
X0037093Y0313350D01*
X0040407Y0313350D01*
X0043522Y0314484D01*
X0043523Y0314484D01*
X0046062Y0316615D01*
X0047719Y0319485D01*
X0047719Y0319485D01*
X0048295Y0322750D01*
X0047719Y0326015D01*
X0046062Y0328885D01*
X0046062Y0328885D01*
X0043959Y0330650D01*
X0113541Y0330650D01*
X0111438Y0328885D01*
X0109781Y0326015D01*
X0109205Y0322750D01*
X0109205Y0322750D01*
X0109781Y0319485D01*
X0111438Y0316615D01*
X0111438Y0316615D01*
X0113977Y0314484D01*
X0113977Y0314484D01*
X0117093Y0313350D01*
X0120407Y0313350D01*
X0123522Y0314484D01*
X0123523Y0314484D01*
X0126062Y0316615D01*
X0126650Y0317633D01*
X0126650Y0238863D01*
X0125837Y0239200D01*
X0124663Y0239200D01*
X0123579Y0238751D01*
X0122749Y0237921D01*
X0122300Y0236837D01*
X0122300Y0235663D01*
X0122637Y0234850D01*
X0098394Y0234850D01*
X0099150Y0236676D01*
X0099150Y0238824D01*
X0098328Y0240809D01*
X0096809Y0242328D01*
X0095750Y0242766D01*
X0095750Y0268578D01*
X0094578Y0269750D01*
X0089578Y0274750D01*
X0085993Y0274750D01*
X0085449Y0275293D01*
X0084347Y0275750D01*
X0083153Y0275750D01*
X0082051Y0275293D01*
X0081207Y0274449D01*
X0080750Y0273347D01*
X0080750Y0272153D01*
X0081207Y0271051D01*
X0082051Y0270207D01*
X0083153Y0269750D01*
X0084347Y0269750D01*
X0085449Y0270207D01*
X0085993Y0270750D01*
X0087922Y0270750D01*
X0091750Y0266922D01*
X0091750Y0242766D01*
X0090691Y0242328D01*
X0089172Y0240809D01*
X0088750Y0239790D01*
X0088328Y0240809D01*
X0086809Y0242328D01*
X0084824Y0243150D01*
X0082676Y0243150D01*
X0080691Y0242328D01*
X0079172Y0240809D01*
X0078750Y0239790D01*
X0078328Y0240809D01*
X0076809Y0242328D01*
X0075750Y0242766D01*
X0075750Y0248578D01*
X0074578Y0249750D01*
X0065750Y0258578D01*
X0065750Y0280507D01*
X0065993Y0280750D01*
X0091507Y0280750D01*
X0092051Y0280207D01*
X0093153Y0279750D01*
X0094347Y0279750D01*
X0095449Y0280207D01*
X0096293Y0281051D01*
X0096750Y0282153D01*
X0096750Y0283347D01*
X0096293Y0284449D01*
X0095449Y0285293D01*
X0094347Y0285750D01*
X0093153Y0285750D01*
X0092051Y0285293D01*
X0091507Y0284750D01*
X0065993Y0284750D01*
X0065750Y0284993D01*
X0065750Y0299404D01*
X0066000Y0299404D01*
X0066750Y0299714D01*
X0066750Y0291922D01*
X0067922Y0290750D01*
X0070422Y0288250D01*
X0098507Y0288250D01*
X0099051Y0287707D01*
X0100153Y0287250D01*
X0101347Y0287250D01*
X0102449Y0287707D01*
X0103293Y0288551D01*
X0103750Y0289653D01*
X0103750Y0290847D01*
X0103293Y0291949D01*
X0102449Y0292793D01*
X0101347Y0293250D01*
X0100153Y0293250D01*
X0099051Y0292793D01*
X0098507Y0292250D01*
X0072078Y0292250D01*
X0070750Y0293578D01*
X0070750Y0300507D01*
X0071293Y0301051D01*
X0071750Y0302153D01*
X0071750Y0303250D01*
X0072750Y0303250D01*
X0072750Y0301904D01*
X0071800Y0300954D01*
X0071800Y0294546D01*
X0072796Y0293550D01*
X0076704Y0293550D01*
X0076750Y0293596D01*
X0076796Y0293550D01*
X0080704Y0293550D01*
X0080750Y0293596D01*
X0080796Y0293550D01*
X0084704Y0293550D01*
X0085700Y0294546D01*
X0085700Y0295750D01*
X0085700Y0295353D02*
X0126650Y0295353D01*
X0126650Y0296351D02*
X0087372Y0296351D01*
X0088371Y0297350D02*
X0126650Y0297350D01*
X0126650Y0298348D02*
X0089369Y0298348D01*
X0090368Y0299347D02*
X0126650Y0299347D01*
X0126650Y0300345D02*
X0091366Y0300345D01*
X0093756Y0301344D02*
X0126650Y0301344D01*
X0126650Y0302342D02*
X0094697Y0302342D01*
X0095096Y0303341D02*
X0126650Y0303341D01*
X0126650Y0304339D02*
X0095096Y0304339D01*
X0094750Y0305338D02*
X0126650Y0305338D01*
X0126650Y0306336D02*
X0093906Y0306336D01*
X0090286Y0306336D02*
X0080750Y0306336D01*
X0080750Y0305338D02*
X0089443Y0305338D01*
X0089096Y0304339D02*
X0080750Y0304339D01*
X0080750Y0303341D02*
X0088705Y0303341D01*
X0087707Y0302342D02*
X0080750Y0302342D01*
X0085311Y0301344D02*
X0086708Y0301344D01*
X0085710Y0300345D02*
X0085700Y0300345D01*
X0085508Y0294354D02*
X0126650Y0294354D01*
X0126650Y0293355D02*
X0070973Y0293355D01*
X0070750Y0294354D02*
X0071992Y0294354D01*
X0071800Y0295353D02*
X0070750Y0295353D01*
X0070750Y0296351D02*
X0071800Y0296351D01*
X0071800Y0297350D02*
X0070750Y0297350D01*
X0070750Y0298348D02*
X0071800Y0298348D01*
X0071800Y0299347D02*
X0070750Y0299347D01*
X0070750Y0300345D02*
X0071800Y0300345D01*
X0071415Y0301344D02*
X0072189Y0301344D01*
X0071750Y0302342D02*
X0072750Y0302342D01*
X0066750Y0299347D02*
X0065750Y0299347D01*
X0065750Y0298348D02*
X0066750Y0298348D01*
X0066750Y0297350D02*
X0065750Y0297350D01*
X0065750Y0296351D02*
X0066750Y0296351D01*
X0066750Y0295353D02*
X0065750Y0295353D01*
X0065750Y0294354D02*
X0066750Y0294354D01*
X0066750Y0293355D02*
X0065750Y0293355D01*
X0065750Y0292357D02*
X0066750Y0292357D01*
X0067313Y0291358D02*
X0065750Y0291358D01*
X0065750Y0290360D02*
X0068312Y0290360D01*
X0069310Y0289361D02*
X0065750Y0289361D01*
X0065750Y0288363D02*
X0070309Y0288363D01*
X0071971Y0292357D02*
X0098614Y0292357D01*
X0102886Y0292357D02*
X0126650Y0292357D01*
X0126650Y0291358D02*
X0103538Y0291358D01*
X0103750Y0290360D02*
X0126650Y0290360D01*
X0126650Y0289361D02*
X0103629Y0289361D01*
X0103106Y0288363D02*
X0126650Y0288363D01*
X0126650Y0287364D02*
X0101623Y0287364D01*
X0099877Y0287364D02*
X0065750Y0287364D01*
X0065750Y0286366D02*
X0126650Y0286366D01*
X0126650Y0285367D02*
X0095270Y0285367D01*
X0096327Y0284369D02*
X0126650Y0284369D01*
X0126650Y0283370D02*
X0096740Y0283370D01*
X0096750Y0282372D02*
X0126650Y0282372D01*
X0126650Y0281373D02*
X0096427Y0281373D01*
X0095617Y0280375D02*
X0126650Y0280375D01*
X0126650Y0279376D02*
X0065750Y0279376D01*
X0065750Y0278378D02*
X0126650Y0278378D01*
X0126650Y0277379D02*
X0065750Y0277379D01*
X0065750Y0276381D02*
X0126650Y0276381D01*
X0126650Y0275382D02*
X0085234Y0275382D01*
X0082266Y0275382D02*
X0065750Y0275382D01*
X0065750Y0274384D02*
X0081180Y0274384D01*
X0080766Y0273385D02*
X0065750Y0273385D01*
X0065750Y0272387D02*
X0080750Y0272387D01*
X0081067Y0271388D02*
X0065750Y0271388D01*
X0065750Y0270390D02*
X0081868Y0270390D01*
X0085632Y0270390D02*
X0088282Y0270390D01*
X0089280Y0269391D02*
X0065750Y0269391D01*
X0065750Y0268393D02*
X0090279Y0268393D01*
X0091277Y0267394D02*
X0065750Y0267394D01*
X0065750Y0266396D02*
X0091750Y0266396D01*
X0091750Y0265397D02*
X0065750Y0265397D01*
X0065750Y0264399D02*
X0091750Y0264399D01*
X0091750Y0263400D02*
X0065750Y0263400D01*
X0065750Y0262402D02*
X0091750Y0262402D01*
X0091750Y0261403D02*
X0065750Y0261403D01*
X0065750Y0260405D02*
X0091750Y0260405D01*
X0091750Y0259406D02*
X0065750Y0259406D01*
X0065921Y0258408D02*
X0091750Y0258408D01*
X0091750Y0257409D02*
X0066919Y0257409D01*
X0067918Y0256411D02*
X0091750Y0256411D01*
X0091750Y0255412D02*
X0068916Y0255412D01*
X0069915Y0254414D02*
X0091750Y0254414D01*
X0091750Y0253415D02*
X0070913Y0253415D01*
X0071912Y0252417D02*
X0091750Y0252417D01*
X0091750Y0251418D02*
X0072910Y0251418D01*
X0073909Y0250420D02*
X0091750Y0250420D01*
X0091750Y0249421D02*
X0074907Y0249421D01*
X0075750Y0248422D02*
X0091750Y0248422D01*
X0091750Y0247424D02*
X0075750Y0247424D01*
X0075750Y0246425D02*
X0091750Y0246425D01*
X0091750Y0245427D02*
X0075750Y0245427D01*
X0075750Y0244428D02*
X0091750Y0244428D01*
X0091750Y0243430D02*
X0075750Y0243430D01*
X0076559Y0242431D02*
X0080941Y0242431D01*
X0079796Y0241433D02*
X0077704Y0241433D01*
X0078483Y0240434D02*
X0079017Y0240434D01*
X0071750Y0243430D02*
X0030850Y0243430D01*
X0030850Y0244428D02*
X0071750Y0244428D01*
X0071750Y0245427D02*
X0030850Y0245427D01*
X0030850Y0246425D02*
X0071750Y0246425D01*
X0071248Y0247424D02*
X0030850Y0247424D01*
X0030850Y0248422D02*
X0070249Y0248422D01*
X0069251Y0249421D02*
X0030850Y0249421D01*
X0030850Y0250420D02*
X0068252Y0250420D01*
X0067254Y0251418D02*
X0030850Y0251418D01*
X0030850Y0252417D02*
X0066255Y0252417D01*
X0065257Y0253415D02*
X0030850Y0253415D01*
X0030850Y0254414D02*
X0064258Y0254414D01*
X0063259Y0255412D02*
X0030850Y0255412D01*
X0030850Y0256411D02*
X0062261Y0256411D01*
X0061750Y0257409D02*
X0030850Y0257409D01*
X0030850Y0258408D02*
X0061750Y0258408D01*
X0061750Y0259406D02*
X0030850Y0259406D01*
X0030850Y0260405D02*
X0061750Y0260405D01*
X0061750Y0261403D02*
X0030850Y0261403D01*
X0030850Y0262402D02*
X0061750Y0262402D01*
X0061750Y0263400D02*
X0030850Y0263400D01*
X0030850Y0264399D02*
X0061750Y0264399D01*
X0061750Y0265397D02*
X0030850Y0265397D01*
X0030850Y0266396D02*
X0061750Y0266396D01*
X0061750Y0267394D02*
X0030850Y0267394D01*
X0030850Y0268393D02*
X0061750Y0268393D01*
X0061750Y0269391D02*
X0030850Y0269391D01*
X0030850Y0270390D02*
X0061750Y0270390D01*
X0061750Y0271388D02*
X0030850Y0271388D01*
X0030850Y0272387D02*
X0061750Y0272387D01*
X0061750Y0273385D02*
X0030850Y0273385D01*
X0030850Y0274384D02*
X0061750Y0274384D01*
X0061750Y0275382D02*
X0030850Y0275382D01*
X0030850Y0276381D02*
X0061750Y0276381D01*
X0061750Y0277379D02*
X0030850Y0277379D01*
X0030850Y0278378D02*
X0061750Y0278378D01*
X0061750Y0279376D02*
X0030850Y0279376D01*
X0030850Y0280375D02*
X0061750Y0280375D01*
X0061073Y0281373D02*
X0030850Y0281373D01*
X0030850Y0282372D02*
X0060750Y0282372D01*
X0060760Y0283370D02*
X0030850Y0283370D01*
X0030850Y0284369D02*
X0061173Y0284369D01*
X0061750Y0285367D02*
X0030850Y0285367D01*
X0030850Y0286366D02*
X0061750Y0286366D01*
X0061750Y0287364D02*
X0030850Y0287364D01*
X0030850Y0288363D02*
X0061750Y0288363D01*
X0061750Y0289361D02*
X0030850Y0289361D01*
X0030850Y0290360D02*
X0061750Y0290360D01*
X0061750Y0291358D02*
X0030850Y0291358D01*
X0030850Y0292357D02*
X0061750Y0292357D01*
X0061750Y0293355D02*
X0030850Y0293355D01*
X0030850Y0294354D02*
X0061750Y0294354D01*
X0061750Y0295353D02*
X0030850Y0295353D01*
X0030850Y0296351D02*
X0061750Y0296351D01*
X0061750Y0297350D02*
X0030850Y0297350D01*
X0030850Y0298348D02*
X0061750Y0298348D01*
X0060825Y0299347D02*
X0030850Y0299347D01*
X0030850Y0300345D02*
X0060750Y0300345D01*
X0060750Y0301344D02*
X0030850Y0301344D01*
X0030850Y0302342D02*
X0060750Y0302342D01*
X0060750Y0303341D02*
X0030850Y0303341D01*
X0030850Y0304339D02*
X0060750Y0304339D01*
X0060750Y0305338D02*
X0030850Y0305338D01*
X0030850Y0306336D02*
X0060750Y0306336D01*
X0061506Y0307335D02*
X0030850Y0307335D01*
X0030850Y0308333D02*
X0062505Y0308333D01*
X0078995Y0308333D02*
X0126650Y0308333D01*
X0126650Y0307335D02*
X0079994Y0307335D01*
X0092230Y0285367D02*
X0065750Y0285367D01*
X0065750Y0280375D02*
X0091882Y0280375D01*
X0089945Y0274384D02*
X0126650Y0274384D01*
X0126650Y0273385D02*
X0090943Y0273385D01*
X0091942Y0272387D02*
X0126650Y0272387D01*
X0126650Y0271388D02*
X0092940Y0271388D01*
X0093939Y0270390D02*
X0126650Y0270390D01*
X0126650Y0269391D02*
X0094937Y0269391D01*
X0095750Y0268393D02*
X0126650Y0268393D01*
X0126650Y0267394D02*
X0095750Y0267394D01*
X0095750Y0266396D02*
X0126650Y0266396D01*
X0126650Y0265397D02*
X0095750Y0265397D01*
X0095750Y0264399D02*
X0126650Y0264399D01*
X0126650Y0263400D02*
X0095750Y0263400D01*
X0095750Y0262402D02*
X0126650Y0262402D01*
X0126650Y0261403D02*
X0095750Y0261403D01*
X0095750Y0260405D02*
X0126650Y0260405D01*
X0126650Y0259406D02*
X0095750Y0259406D01*
X0095750Y0258408D02*
X0126650Y0258408D01*
X0126650Y0257409D02*
X0095750Y0257409D01*
X0095750Y0256411D02*
X0126650Y0256411D01*
X0126650Y0255412D02*
X0095750Y0255412D01*
X0095750Y0254414D02*
X0126650Y0254414D01*
X0126650Y0253415D02*
X0095750Y0253415D01*
X0095750Y0252417D02*
X0126650Y0252417D01*
X0126650Y0251418D02*
X0095750Y0251418D01*
X0095750Y0250420D02*
X0126650Y0250420D01*
X0126650Y0249421D02*
X0095750Y0249421D01*
X0095750Y0248422D02*
X0126650Y0248422D01*
X0126650Y0247424D02*
X0095750Y0247424D01*
X0095750Y0246425D02*
X0126650Y0246425D01*
X0126650Y0245427D02*
X0095750Y0245427D01*
X0095750Y0244428D02*
X0126650Y0244428D01*
X0126650Y0243430D02*
X0095750Y0243430D01*
X0096559Y0242431D02*
X0126650Y0242431D01*
X0126650Y0241433D02*
X0097704Y0241433D01*
X0098483Y0240434D02*
X0126650Y0240434D01*
X0126650Y0239436D02*
X0098897Y0239436D01*
X0099150Y0238437D02*
X0123265Y0238437D01*
X0122549Y0237439D02*
X0099150Y0237439D01*
X0099052Y0236440D02*
X0122300Y0236440D01*
X0122392Y0235442D02*
X0098639Y0235442D01*
X0090941Y0242431D02*
X0086559Y0242431D01*
X0087704Y0241433D02*
X0089796Y0241433D01*
X0089017Y0240434D02*
X0088483Y0240434D01*
X0070941Y0242431D02*
X0066016Y0242431D01*
X0067421Y0241433D02*
X0069796Y0241433D01*
X0069017Y0240434D02*
X0068218Y0240434D01*
X0064250Y0240434D02*
X0063250Y0240434D01*
X0063250Y0239436D02*
X0064250Y0239436D01*
X0064250Y0238437D02*
X0063250Y0238437D01*
X0063250Y0237439D02*
X0046087Y0237439D01*
X0046336Y0238437D02*
X0058594Y0238437D01*
X0058830Y0239436D02*
X0046981Y0239436D01*
X0046781Y0240434D02*
X0059282Y0240434D01*
X0060079Y0241433D02*
X0046173Y0241433D01*
X0046753Y0236440D02*
X0058708Y0236440D01*
X0059090Y0235442D02*
X0046856Y0235442D01*
X0043959Y0228650D02*
X0113541Y0228650D01*
X0111438Y0226885D01*
X0109781Y0224015D01*
X0109205Y0220750D01*
X0109205Y0220750D01*
X0109781Y0217485D01*
X0111438Y0214615D01*
X0111438Y0214615D01*
X0113977Y0212484D01*
X0113977Y0212484D01*
X0117093Y0211350D01*
X0120407Y0211350D01*
X0123522Y0212484D01*
X0126062Y0214615D01*
X0126650Y0215633D01*
X0126650Y0136863D01*
X0125837Y0137200D01*
X0124663Y0137200D01*
X0123579Y0136751D01*
X0122749Y0135921D01*
X0122300Y0134837D01*
X0122300Y0133663D01*
X0122637Y0132850D01*
X0098394Y0132850D01*
X0099150Y0134676D01*
X0099150Y0136824D01*
X0098328Y0138809D01*
X0096809Y0140328D01*
X0095750Y0140766D01*
X0095750Y0166578D01*
X0094578Y0167750D01*
X0089578Y0172750D01*
X0085993Y0172750D01*
X0085449Y0173293D01*
X0084347Y0173750D01*
X0083153Y0173750D01*
X0082051Y0173293D01*
X0081207Y0172449D01*
X0080750Y0171347D01*
X0080750Y0170153D01*
X0081207Y0169051D01*
X0082051Y0168207D01*
X0083153Y0167750D01*
X0084347Y0167750D01*
X0085449Y0168207D01*
X0085993Y0168750D01*
X0087922Y0168750D01*
X0091750Y0164922D01*
X0091750Y0140766D01*
X0090691Y0140328D01*
X0089172Y0138809D01*
X0088750Y0137790D01*
X0088328Y0138809D01*
X0086809Y0140328D01*
X0084824Y0141150D01*
X0082676Y0141150D01*
X0080691Y0140328D01*
X0079172Y0138809D01*
X0078750Y0137790D01*
X0078328Y0138809D01*
X0076809Y0140328D01*
X0075750Y0140766D01*
X0075750Y0146578D01*
X0074578Y0147750D01*
X0065750Y0156578D01*
X0065750Y0178507D01*
X0065993Y0178750D01*
X0091507Y0178750D01*
X0092051Y0178207D01*
X0093153Y0177750D01*
X0094347Y0177750D01*
X0095449Y0178207D01*
X0096293Y0179051D01*
X0096750Y0180153D01*
X0096750Y0181347D01*
X0096293Y0182449D01*
X0095449Y0183293D01*
X0094347Y0183750D01*
X0093153Y0183750D01*
X0092051Y0183293D01*
X0091507Y0182750D01*
X0065993Y0182750D01*
X0065750Y0182993D01*
X0065750Y0197404D01*
X0066000Y0197404D01*
X0066750Y0197714D01*
X0066750Y0189922D01*
X0067922Y0188750D01*
X0070422Y0186250D01*
X0098507Y0186250D01*
X0099051Y0185707D01*
X0100153Y0185250D01*
X0101347Y0185250D01*
X0102449Y0185707D01*
X0103293Y0186551D01*
X0103750Y0187653D01*
X0103750Y0188847D01*
X0103293Y0189949D01*
X0102449Y0190793D01*
X0101347Y0191250D01*
X0100153Y0191250D01*
X0099051Y0190793D01*
X0098507Y0190250D01*
X0072078Y0190250D01*
X0070750Y0191578D01*
X0070750Y0198507D01*
X0071293Y0199051D01*
X0071750Y0200153D01*
X0071750Y0201250D01*
X0072750Y0201250D01*
X0072750Y0199904D01*
X0071800Y0198954D01*
X0071800Y0192546D01*
X0072796Y0191550D01*
X0076704Y0191550D01*
X0076750Y0191596D01*
X0076796Y0191550D01*
X0080704Y0191550D01*
X0080750Y0191596D01*
X0080796Y0191550D01*
X0084704Y0191550D01*
X0085700Y0192546D01*
X0085700Y0193750D01*
X0086771Y0193750D01*
X0091925Y0198904D01*
X0092693Y0198904D01*
X0093796Y0199360D01*
X0094640Y0200204D01*
X0095096Y0201307D01*
X0095096Y0202500D01*
X0094640Y0203603D01*
X0093796Y0204447D01*
X0092693Y0204904D01*
X0091500Y0204904D01*
X0090397Y0204447D01*
X0089553Y0203603D01*
X0089096Y0202500D01*
X0089096Y0201732D01*
X0085700Y0198335D01*
X0085700Y0198954D01*
X0084704Y0199950D01*
X0080796Y0199950D01*
X0080750Y0199904D01*
X0080750Y0199904D01*
X0080750Y0204578D01*
X0079250Y0206078D01*
X0079250Y0206078D01*
X0078078Y0207250D01*
X0063422Y0207250D01*
X0062250Y0206078D01*
X0060750Y0204578D01*
X0060750Y0197422D01*
X0061750Y0196422D01*
X0061750Y0182993D01*
X0061207Y0182449D01*
X0060750Y0181347D01*
X0060750Y0180153D01*
X0061207Y0179051D01*
X0061750Y0178507D01*
X0061750Y0154922D01*
X0071750Y0144922D01*
X0071750Y0140766D01*
X0070691Y0140328D01*
X0069172Y0138809D01*
X0068641Y0137526D01*
X0068569Y0137746D01*
X0068197Y0138475D01*
X0067716Y0139138D01*
X0067138Y0139716D01*
X0066475Y0140197D01*
X0065746Y0140569D01*
X0064968Y0140822D01*
X0064250Y0140936D01*
X0064250Y0136250D01*
X0063250Y0136250D01*
X0063250Y0140936D01*
X0062532Y0140822D01*
X0061754Y0140569D01*
X0061025Y0140197D01*
X0060362Y0139716D01*
X0059784Y0139138D01*
X0059303Y0138475D01*
X0058931Y0137746D01*
X0058678Y0136968D01*
X0058564Y0136250D01*
X0063250Y0136250D01*
X0063250Y0135250D01*
X0058564Y0135250D01*
X0058678Y0134532D01*
X0058931Y0133754D01*
X0059303Y0133025D01*
X0059429Y0132850D01*
X0046737Y0132850D01*
X0046986Y0134091D01*
X0045879Y0135752D01*
X0046986Y0137412D01*
X0046645Y0139118D01*
X0045197Y0140083D01*
X0043491Y0139742D01*
X0043355Y0139538D01*
X0043218Y0139742D01*
X0041512Y0140083D01*
X0040720Y0139555D01*
X0040321Y0139954D01*
X0038920Y0139954D01*
X0038582Y0139954D01*
X0038582Y0139954D01*
X0037180Y0139954D01*
X0037180Y0139954D01*
X0037166Y0139940D01*
X0036099Y0138872D01*
X0035881Y0139089D01*
X0035017Y0139954D01*
X0033277Y0139954D01*
X0032653Y0139330D01*
X0032047Y0138723D01*
X0032047Y0135750D01*
X0031876Y0135750D01*
X0030850Y0134724D01*
X0030850Y0215633D01*
X0031438Y0214615D01*
X0031438Y0214615D01*
X0033977Y0212484D01*
X0033977Y0212484D01*
X0037093Y0211350D01*
X0040407Y0211350D01*
X0043522Y0212484D01*
X0043523Y0212484D01*
X0046062Y0214615D01*
X0047719Y0217485D01*
X0047719Y0217485D01*
X0048295Y0220750D01*
X0047719Y0224015D01*
X0046062Y0226885D01*
X0046062Y0226885D01*
X0043959Y0228650D01*
X0044195Y0228452D02*
X0113305Y0228452D01*
X0112115Y0227454D02*
X0045385Y0227454D01*
X0046310Y0226455D02*
X0111190Y0226455D01*
X0111438Y0226885D02*
X0111438Y0226885D01*
X0111438Y0226885D01*
X0110613Y0225457D02*
X0046887Y0225457D01*
X0047463Y0224458D02*
X0110037Y0224458D01*
X0109781Y0224015D02*
X0109781Y0224015D01*
X0109683Y0223460D02*
X0047817Y0223460D01*
X0047719Y0224015D02*
X0047719Y0224015D01*
X0047993Y0222461D02*
X0109507Y0222461D01*
X0109331Y0221463D02*
X0048169Y0221463D01*
X0048295Y0220750D02*
X0048295Y0220750D01*
X0048245Y0220464D02*
X0109255Y0220464D01*
X0109431Y0219466D02*
X0048069Y0219466D01*
X0047892Y0218467D02*
X0109608Y0218467D01*
X0109781Y0217485D02*
X0109781Y0217485D01*
X0109790Y0217469D02*
X0047710Y0217469D01*
X0047133Y0216470D02*
X0110367Y0216470D01*
X0110943Y0215472D02*
X0046557Y0215472D01*
X0046062Y0214615D02*
X0046062Y0214615D01*
X0046062Y0214615D01*
X0045893Y0214473D02*
X0111607Y0214473D01*
X0112797Y0213475D02*
X0044703Y0213475D01*
X0043501Y0212476D02*
X0113999Y0212476D01*
X0116742Y0211478D02*
X0040758Y0211478D01*
X0036742Y0211478D02*
X0030850Y0211478D01*
X0030850Y0212476D02*
X0033999Y0212476D01*
X0032797Y0213475D02*
X0030850Y0213475D01*
X0030850Y0214473D02*
X0031607Y0214473D01*
X0030943Y0215472D02*
X0030850Y0215472D01*
X0030850Y0210479D02*
X0126650Y0210479D01*
X0126650Y0209481D02*
X0030850Y0209481D01*
X0030850Y0208482D02*
X0126650Y0208482D01*
X0126650Y0207484D02*
X0030850Y0207484D01*
X0030850Y0206485D02*
X0062657Y0206485D01*
X0061658Y0205487D02*
X0030850Y0205487D01*
X0030850Y0204488D02*
X0060750Y0204488D01*
X0060750Y0203489D02*
X0030850Y0203489D01*
X0030850Y0202491D02*
X0060750Y0202491D01*
X0060750Y0201492D02*
X0030850Y0201492D01*
X0030850Y0200494D02*
X0060750Y0200494D01*
X0060750Y0199495D02*
X0030850Y0199495D01*
X0030850Y0198497D02*
X0060750Y0198497D01*
X0060750Y0197498D02*
X0030850Y0197498D01*
X0030850Y0196500D02*
X0061672Y0196500D01*
X0061750Y0195501D02*
X0030850Y0195501D01*
X0030850Y0194503D02*
X0061750Y0194503D01*
X0061750Y0193504D02*
X0030850Y0193504D01*
X0030850Y0192506D02*
X0061750Y0192506D01*
X0061750Y0191507D02*
X0030850Y0191507D01*
X0030850Y0190509D02*
X0061750Y0190509D01*
X0061750Y0189510D02*
X0030850Y0189510D01*
X0030850Y0188512D02*
X0061750Y0188512D01*
X0061750Y0187513D02*
X0030850Y0187513D01*
X0030850Y0186515D02*
X0061750Y0186515D01*
X0061750Y0185516D02*
X0030850Y0185516D01*
X0030850Y0184518D02*
X0061750Y0184518D01*
X0061750Y0183519D02*
X0030850Y0183519D01*
X0030850Y0182521D02*
X0061278Y0182521D01*
X0060823Y0181522D02*
X0030850Y0181522D01*
X0030850Y0180524D02*
X0060750Y0180524D01*
X0061010Y0179525D02*
X0030850Y0179525D01*
X0030850Y0178527D02*
X0061731Y0178527D01*
X0061750Y0177528D02*
X0030850Y0177528D01*
X0030850Y0176530D02*
X0061750Y0176530D01*
X0061750Y0175531D02*
X0030850Y0175531D01*
X0030850Y0174533D02*
X0061750Y0174533D01*
X0061750Y0173534D02*
X0030850Y0173534D01*
X0030850Y0172536D02*
X0061750Y0172536D01*
X0061750Y0171537D02*
X0030850Y0171537D01*
X0030850Y0170539D02*
X0061750Y0170539D01*
X0061750Y0169540D02*
X0030850Y0169540D01*
X0030850Y0168542D02*
X0061750Y0168542D01*
X0061750Y0167543D02*
X0030850Y0167543D01*
X0030850Y0166545D02*
X0061750Y0166545D01*
X0061750Y0165546D02*
X0030850Y0165546D01*
X0030850Y0164548D02*
X0061750Y0164548D01*
X0061750Y0163549D02*
X0030850Y0163549D01*
X0030850Y0162551D02*
X0061750Y0162551D01*
X0061750Y0161552D02*
X0030850Y0161552D01*
X0030850Y0160553D02*
X0061750Y0160553D01*
X0061750Y0159555D02*
X0030850Y0159555D01*
X0030850Y0158556D02*
X0061750Y0158556D01*
X0061750Y0157558D02*
X0030850Y0157558D01*
X0030850Y0156559D02*
X0061750Y0156559D01*
X0061750Y0155561D02*
X0030850Y0155561D01*
X0030850Y0154562D02*
X0062109Y0154562D01*
X0063108Y0153564D02*
X0030850Y0153564D01*
X0030850Y0152565D02*
X0064106Y0152565D01*
X0065105Y0151567D02*
X0030850Y0151567D01*
X0030850Y0150568D02*
X0066103Y0150568D01*
X0067102Y0149570D02*
X0030850Y0149570D01*
X0030850Y0148571D02*
X0068100Y0148571D01*
X0069099Y0147573D02*
X0030850Y0147573D01*
X0030850Y0146574D02*
X0070097Y0146574D01*
X0071096Y0145576D02*
X0030850Y0145576D01*
X0030850Y0144577D02*
X0071750Y0144577D01*
X0071750Y0143579D02*
X0030850Y0143579D01*
X0030850Y0142580D02*
X0071750Y0142580D01*
X0071750Y0141582D02*
X0030850Y0141582D01*
X0030850Y0140583D02*
X0061798Y0140583D01*
X0063250Y0140583D02*
X0064250Y0140583D01*
X0064250Y0139585D02*
X0063250Y0139585D01*
X0063250Y0138586D02*
X0064250Y0138586D01*
X0064250Y0137588D02*
X0063250Y0137588D01*
X0063250Y0136589D02*
X0064250Y0136589D01*
X0063250Y0135591D02*
X0045986Y0135591D01*
X0046437Y0136589D02*
X0058618Y0136589D01*
X0058880Y0137588D02*
X0046951Y0137588D01*
X0046751Y0138586D02*
X0059383Y0138586D01*
X0060231Y0139585D02*
X0045945Y0139585D01*
X0043386Y0139585D02*
X0043323Y0139585D01*
X0040764Y0139585D02*
X0040690Y0139585D01*
X0038920Y0139954D02*
X0038920Y0139954D01*
X0036812Y0139585D02*
X0035386Y0139585D01*
X0032908Y0139585D02*
X0030850Y0139585D01*
X0030850Y0138586D02*
X0032047Y0138586D01*
X0032047Y0137588D02*
X0030850Y0137588D01*
X0030850Y0136589D02*
X0032047Y0136589D01*
X0031717Y0135591D02*
X0030850Y0135591D01*
X0043959Y0126650D02*
X0113541Y0126650D01*
X0111438Y0124885D01*
X0109781Y0122015D01*
X0109205Y0118750D01*
X0109205Y0118750D01*
X0109781Y0115485D01*
X0111438Y0112615D01*
X0111438Y0112615D01*
X0113977Y0110484D01*
X0113977Y0110484D01*
X0117093Y0109350D01*
X0120407Y0109350D01*
X0123522Y0110484D01*
X0123523Y0110484D01*
X0126062Y0112615D01*
X0126650Y0113633D01*
X0126650Y0034863D01*
X0125837Y0035200D01*
X0124663Y0035200D01*
X0123579Y0034751D01*
X0122749Y0033921D01*
X0122300Y0032837D01*
X0122300Y0031663D01*
X0122637Y0030850D01*
X0098394Y0030850D01*
X0099150Y0032676D01*
X0099150Y0034824D01*
X0098328Y0036809D01*
X0096809Y0038328D01*
X0095750Y0038766D01*
X0095750Y0064578D01*
X0094578Y0065750D01*
X0089578Y0070750D01*
X0085993Y0070750D01*
X0085449Y0071293D01*
X0084347Y0071750D01*
X0083153Y0071750D01*
X0082051Y0071293D01*
X0081207Y0070449D01*
X0080750Y0069347D01*
X0080750Y0068153D01*
X0081207Y0067051D01*
X0082051Y0066207D01*
X0083153Y0065750D01*
X0084347Y0065750D01*
X0085449Y0066207D01*
X0085993Y0066750D01*
X0087922Y0066750D01*
X0091750Y0062922D01*
X0091750Y0038766D01*
X0090691Y0038328D01*
X0089172Y0036809D01*
X0088750Y0035790D01*
X0088328Y0036809D01*
X0086809Y0038328D01*
X0084824Y0039150D01*
X0082676Y0039150D01*
X0080691Y0038328D01*
X0079172Y0036809D01*
X0078750Y0035790D01*
X0078328Y0036809D01*
X0076809Y0038328D01*
X0075750Y0038766D01*
X0075750Y0044578D01*
X0074578Y0045750D01*
X0065750Y0054578D01*
X0065750Y0076507D01*
X0065993Y0076750D01*
X0091507Y0076750D01*
X0092051Y0076207D01*
X0093153Y0075750D01*
X0094347Y0075750D01*
X0095449Y0076207D01*
X0096293Y0077051D01*
X0096750Y0078153D01*
X0096750Y0079347D01*
X0096293Y0080449D01*
X0095449Y0081293D01*
X0094347Y0081750D01*
X0093153Y0081750D01*
X0092051Y0081293D01*
X0091507Y0080750D01*
X0065993Y0080750D01*
X0065750Y0080993D01*
X0065750Y0095404D01*
X0066000Y0095404D01*
X0066750Y0095714D01*
X0066750Y0087922D01*
X0067922Y0086750D01*
X0070422Y0084250D01*
X0098507Y0084250D01*
X0099051Y0083707D01*
X0100153Y0083250D01*
X0101347Y0083250D01*
X0102449Y0083707D01*
X0103293Y0084551D01*
X0103750Y0085653D01*
X0103750Y0086847D01*
X0103293Y0087949D01*
X0102449Y0088793D01*
X0101347Y0089250D01*
X0100153Y0089250D01*
X0099051Y0088793D01*
X0098507Y0088250D01*
X0072078Y0088250D01*
X0070750Y0089578D01*
X0070750Y0096507D01*
X0071293Y0097051D01*
X0071750Y0098153D01*
X0071750Y0099250D01*
X0072750Y0099250D01*
X0072750Y0097904D01*
X0071800Y0096954D01*
X0071800Y0090546D01*
X0072796Y0089550D01*
X0076704Y0089550D01*
X0076750Y0089596D01*
X0076796Y0089550D01*
X0080704Y0089550D01*
X0080750Y0089596D01*
X0080796Y0089550D01*
X0084704Y0089550D01*
X0085700Y0090546D01*
X0085700Y0091750D01*
X0086771Y0091750D01*
X0091925Y0096904D01*
X0092693Y0096904D01*
X0093796Y0097360D01*
X0094640Y0098204D01*
X0095096Y0099307D01*
X0095096Y0100500D01*
X0094640Y0101603D01*
X0093796Y0102447D01*
X0092693Y0102904D01*
X0091500Y0102904D01*
X0090397Y0102447D01*
X0089553Y0101603D01*
X0089096Y0100500D01*
X0089096Y0099732D01*
X0085700Y0096335D01*
X0085700Y0096954D01*
X0084704Y0097950D01*
X0080796Y0097950D01*
X0080750Y0097904D01*
X0080750Y0097904D01*
X0080750Y0102578D01*
X0079250Y0104078D01*
X0079250Y0104078D01*
X0078078Y0105250D01*
X0063422Y0105250D01*
X0062250Y0104078D01*
X0060750Y0102578D01*
X0060750Y0095422D01*
X0061750Y0094422D01*
X0061750Y0080993D01*
X0061207Y0080449D01*
X0060750Y0079347D01*
X0060750Y0078153D01*
X0061207Y0077051D01*
X0061750Y0076507D01*
X0061750Y0052922D01*
X0071750Y0042922D01*
X0071750Y0038766D01*
X0070691Y0038328D01*
X0069172Y0036809D01*
X0068641Y0035526D01*
X0068569Y0035746D01*
X0068197Y0036475D01*
X0067716Y0037138D01*
X0067138Y0037716D01*
X0066475Y0038197D01*
X0065746Y0038569D01*
X0064968Y0038822D01*
X0064250Y0038936D01*
X0064250Y0034250D01*
X0063250Y0034250D01*
X0063250Y0038936D01*
X0062532Y0038822D01*
X0061754Y0038569D01*
X0061025Y0038197D01*
X0060362Y0037716D01*
X0059784Y0037138D01*
X0059303Y0036475D01*
X0058931Y0035746D01*
X0058678Y0034968D01*
X0058564Y0034250D01*
X0063250Y0034250D01*
X0063250Y0033250D01*
X0058564Y0033250D01*
X0058678Y0032532D01*
X0058931Y0031754D01*
X0059303Y0031025D01*
X0059429Y0030850D01*
X0046737Y0030850D01*
X0046986Y0032091D01*
X0045879Y0033752D01*
X0046986Y0035412D01*
X0046645Y0037118D01*
X0045197Y0038083D01*
X0043491Y0037742D01*
X0043355Y0037538D01*
X0043218Y0037742D01*
X0041512Y0038083D01*
X0040720Y0037555D01*
X0040321Y0037954D01*
X0038920Y0037954D01*
X0038742Y0037954D01*
X0038582Y0037954D01*
X0038582Y0037954D01*
X0037180Y0037954D01*
X0037180Y0037954D01*
X0037166Y0037940D01*
X0036099Y0036872D01*
X0035881Y0037089D01*
X0035017Y0037954D01*
X0033277Y0037954D01*
X0032653Y0037330D01*
X0032047Y0036723D01*
X0032047Y0033750D01*
X0031876Y0033750D01*
X0030850Y0032724D01*
X0030850Y0113633D01*
X0031438Y0112615D01*
X0031438Y0112615D01*
X0033977Y0110484D01*
X0033977Y0110484D01*
X0037093Y0109350D01*
X0040407Y0109350D01*
X0043523Y0110484D01*
X0046062Y0112615D01*
X0047719Y0115485D01*
X0048295Y0118750D01*
X0047719Y0122015D01*
X0046062Y0124885D01*
X0046062Y0124885D01*
X0043959Y0126650D01*
X0044014Y0126604D02*
X0113486Y0126604D01*
X0112296Y0125606D02*
X0045204Y0125606D01*
X0046223Y0124607D02*
X0111277Y0124607D01*
X0111438Y0124885D02*
X0111438Y0124885D01*
X0110701Y0123609D02*
X0046799Y0123609D01*
X0047376Y0122610D02*
X0110124Y0122610D01*
X0109781Y0122015D02*
X0109781Y0122015D01*
X0109710Y0121612D02*
X0047790Y0121612D01*
X0047719Y0122015D02*
X0047719Y0122015D01*
X0047966Y0120613D02*
X0109534Y0120613D01*
X0109357Y0119615D02*
X0048143Y0119615D01*
X0048295Y0118750D02*
X0048295Y0118750D01*
X0048271Y0118616D02*
X0109229Y0118616D01*
X0109405Y0117618D02*
X0048095Y0117618D01*
X0047919Y0116619D02*
X0109581Y0116619D01*
X0109757Y0115620D02*
X0047743Y0115620D01*
X0047221Y0114622D02*
X0110279Y0114622D01*
X0109781Y0115485D02*
X0109781Y0115485D01*
X0110856Y0113623D02*
X0046644Y0113623D01*
X0046068Y0112625D02*
X0111432Y0112625D01*
X0112616Y0111626D02*
X0044884Y0111626D01*
X0046062Y0112615D02*
X0046062Y0112615D01*
X0043694Y0110628D02*
X0113806Y0110628D01*
X0116325Y0109629D02*
X0041175Y0109629D01*
X0043523Y0110484D02*
X0043523Y0110484D01*
X0036325Y0109629D02*
X0030850Y0109629D01*
X0030850Y0108631D02*
X0126650Y0108631D01*
X0126650Y0109629D02*
X0121175Y0109629D01*
X0123694Y0110628D02*
X0126650Y0110628D01*
X0126650Y0111626D02*
X0124884Y0111626D01*
X0126062Y0112615D02*
X0126062Y0112615D01*
X0126062Y0112615D01*
X0126068Y0112625D02*
X0126650Y0112625D01*
X0126644Y0113623D02*
X0126650Y0113623D01*
X0126650Y0107632D02*
X0030850Y0107632D01*
X0030850Y0106634D02*
X0126650Y0106634D01*
X0126650Y0105635D02*
X0030850Y0105635D01*
X0030850Y0104637D02*
X0062808Y0104637D01*
X0061810Y0103638D02*
X0030850Y0103638D01*
X0030850Y0102640D02*
X0060811Y0102640D01*
X0060750Y0101641D02*
X0030850Y0101641D01*
X0030850Y0100643D02*
X0060750Y0100643D01*
X0060750Y0099644D02*
X0030850Y0099644D01*
X0030850Y0098646D02*
X0060750Y0098646D01*
X0060750Y0097647D02*
X0030850Y0097647D01*
X0030850Y0096649D02*
X0060750Y0096649D01*
X0060750Y0095650D02*
X0030850Y0095650D01*
X0030850Y0094652D02*
X0061520Y0094652D01*
X0061750Y0093653D02*
X0030850Y0093653D01*
X0030850Y0092655D02*
X0061750Y0092655D01*
X0061750Y0091656D02*
X0030850Y0091656D01*
X0030850Y0090658D02*
X0061750Y0090658D01*
X0061750Y0089659D02*
X0030850Y0089659D01*
X0030850Y0088661D02*
X0061750Y0088661D01*
X0061750Y0087662D02*
X0030850Y0087662D01*
X0030850Y0086664D02*
X0061750Y0086664D01*
X0061750Y0085665D02*
X0030850Y0085665D01*
X0030850Y0084667D02*
X0061750Y0084667D01*
X0061750Y0083668D02*
X0030850Y0083668D01*
X0030850Y0082670D02*
X0061750Y0082670D01*
X0061750Y0081671D02*
X0030850Y0081671D01*
X0030850Y0080673D02*
X0061430Y0080673D01*
X0060886Y0079674D02*
X0030850Y0079674D01*
X0030850Y0078676D02*
X0060750Y0078676D01*
X0060947Y0077677D02*
X0030850Y0077677D01*
X0030850Y0076679D02*
X0061579Y0076679D01*
X0061750Y0075680D02*
X0030850Y0075680D01*
X0030850Y0074682D02*
X0061750Y0074682D01*
X0061750Y0073683D02*
X0030850Y0073683D01*
X0030850Y0072684D02*
X0061750Y0072684D01*
X0061750Y0071686D02*
X0030850Y0071686D01*
X0030850Y0070687D02*
X0061750Y0070687D01*
X0061750Y0069689D02*
X0030850Y0069689D01*
X0030850Y0068690D02*
X0061750Y0068690D01*
X0061750Y0067692D02*
X0030850Y0067692D01*
X0030850Y0066693D02*
X0061750Y0066693D01*
X0061750Y0065695D02*
X0030850Y0065695D01*
X0030850Y0064696D02*
X0061750Y0064696D01*
X0061750Y0063698D02*
X0030850Y0063698D01*
X0030850Y0062699D02*
X0061750Y0062699D01*
X0061750Y0061701D02*
X0030850Y0061701D01*
X0030850Y0060702D02*
X0061750Y0060702D01*
X0061750Y0059704D02*
X0030850Y0059704D01*
X0030850Y0058705D02*
X0061750Y0058705D01*
X0061750Y0057707D02*
X0030850Y0057707D01*
X0030850Y0056708D02*
X0061750Y0056708D01*
X0061750Y0055710D02*
X0030850Y0055710D01*
X0030850Y0054711D02*
X0061750Y0054711D01*
X0061750Y0053713D02*
X0030850Y0053713D01*
X0030850Y0052714D02*
X0061957Y0052714D01*
X0062956Y0051716D02*
X0030850Y0051716D01*
X0030850Y0050717D02*
X0063954Y0050717D01*
X0064953Y0049719D02*
X0030850Y0049719D01*
X0030850Y0048720D02*
X0065951Y0048720D01*
X0066950Y0047722D02*
X0030850Y0047722D01*
X0030850Y0046723D02*
X0067948Y0046723D01*
X0068947Y0045725D02*
X0030850Y0045725D01*
X0030850Y0044726D02*
X0069945Y0044726D01*
X0070944Y0043728D02*
X0030850Y0043728D01*
X0030850Y0042729D02*
X0071750Y0042729D01*
X0071750Y0041731D02*
X0030850Y0041731D01*
X0030850Y0040732D02*
X0071750Y0040732D01*
X0071750Y0039734D02*
X0030850Y0039734D01*
X0030850Y0038735D02*
X0062265Y0038735D01*
X0063250Y0038735D02*
X0064250Y0038735D01*
X0065235Y0038735D02*
X0071674Y0038735D01*
X0070100Y0037737D02*
X0067110Y0037737D01*
X0068007Y0036738D02*
X0069143Y0036738D01*
X0068729Y0035740D02*
X0068571Y0035740D01*
X0064250Y0035740D02*
X0063250Y0035740D01*
X0063250Y0036738D02*
X0064250Y0036738D01*
X0064250Y0037737D02*
X0063250Y0037737D01*
X0060390Y0037737D02*
X0045717Y0037737D01*
X0046721Y0036738D02*
X0059493Y0036738D01*
X0058929Y0035740D02*
X0046920Y0035740D01*
X0046538Y0034741D02*
X0058642Y0034741D01*
X0058645Y0032744D02*
X0046550Y0032744D01*
X0046917Y0031746D02*
X0058935Y0031746D01*
X0063250Y0033743D02*
X0045885Y0033743D01*
X0043487Y0037737D02*
X0043222Y0037737D01*
X0040992Y0037737D02*
X0040538Y0037737D01*
X0038920Y0037954D02*
X0038920Y0037954D01*
X0036963Y0037737D02*
X0035234Y0037737D01*
X0033060Y0037737D02*
X0030850Y0037737D01*
X0030850Y0036738D02*
X0032062Y0036738D01*
X0032047Y0035740D02*
X0030850Y0035740D01*
X0030850Y0034741D02*
X0032047Y0034741D01*
X0031868Y0033743D02*
X0030850Y0033743D01*
X0030850Y0032744D02*
X0030870Y0032744D01*
X0063250Y0034741D02*
X0064250Y0034741D01*
X0075826Y0038735D02*
X0081674Y0038735D01*
X0080100Y0037737D02*
X0077400Y0037737D01*
X0078357Y0036738D02*
X0079143Y0036738D01*
X0075750Y0039734D02*
X0091750Y0039734D01*
X0091750Y0040732D02*
X0075750Y0040732D01*
X0075750Y0041731D02*
X0091750Y0041731D01*
X0091750Y0042729D02*
X0075750Y0042729D01*
X0075750Y0043728D02*
X0091750Y0043728D01*
X0091750Y0044726D02*
X0075602Y0044726D01*
X0074604Y0045725D02*
X0091750Y0045725D01*
X0091750Y0046723D02*
X0073605Y0046723D01*
X0072607Y0047722D02*
X0091750Y0047722D01*
X0091750Y0048720D02*
X0071608Y0048720D01*
X0070610Y0049719D02*
X0091750Y0049719D01*
X0091750Y0050717D02*
X0069611Y0050717D01*
X0068613Y0051716D02*
X0091750Y0051716D01*
X0091750Y0052714D02*
X0067614Y0052714D01*
X0066616Y0053713D02*
X0091750Y0053713D01*
X0091750Y0054711D02*
X0065750Y0054711D01*
X0065750Y0055710D02*
X0091750Y0055710D01*
X0091750Y0056708D02*
X0065750Y0056708D01*
X0065750Y0057707D02*
X0091750Y0057707D01*
X0091750Y0058705D02*
X0065750Y0058705D01*
X0065750Y0059704D02*
X0091750Y0059704D01*
X0091750Y0060702D02*
X0065750Y0060702D01*
X0065750Y0061701D02*
X0091750Y0061701D01*
X0091750Y0062699D02*
X0065750Y0062699D01*
X0065750Y0063698D02*
X0090974Y0063698D01*
X0089975Y0064696D02*
X0065750Y0064696D01*
X0065750Y0065695D02*
X0088977Y0065695D01*
X0087978Y0066693D02*
X0085936Y0066693D01*
X0081564Y0066693D02*
X0065750Y0066693D01*
X0065750Y0067692D02*
X0080941Y0067692D01*
X0080750Y0068690D02*
X0065750Y0068690D01*
X0065750Y0069689D02*
X0080892Y0069689D01*
X0081445Y0070687D02*
X0065750Y0070687D01*
X0065750Y0071686D02*
X0082999Y0071686D01*
X0084501Y0071686D02*
X0126650Y0071686D01*
X0126650Y0072684D02*
X0065750Y0072684D01*
X0065750Y0073683D02*
X0126650Y0073683D01*
X0126650Y0074682D02*
X0065750Y0074682D01*
X0065750Y0075680D02*
X0126650Y0075680D01*
X0126650Y0076679D02*
X0095921Y0076679D01*
X0096553Y0077677D02*
X0126650Y0077677D01*
X0126650Y0078676D02*
X0096750Y0078676D01*
X0096614Y0079674D02*
X0126650Y0079674D01*
X0126650Y0080673D02*
X0096070Y0080673D01*
X0094537Y0081671D02*
X0126650Y0081671D01*
X0126650Y0082670D02*
X0065750Y0082670D01*
X0065750Y0083668D02*
X0099144Y0083668D01*
X0102356Y0083668D02*
X0126650Y0083668D01*
X0126650Y0084667D02*
X0103341Y0084667D01*
X0103750Y0085665D02*
X0126650Y0085665D01*
X0126650Y0086664D02*
X0103750Y0086664D01*
X0103412Y0087662D02*
X0126650Y0087662D01*
X0126650Y0088661D02*
X0102582Y0088661D01*
X0098918Y0088661D02*
X0071668Y0088661D01*
X0070750Y0089659D02*
X0072687Y0089659D01*
X0071800Y0090658D02*
X0070750Y0090658D01*
X0070750Y0091656D02*
X0071800Y0091656D01*
X0071800Y0092655D02*
X0070750Y0092655D01*
X0070750Y0093653D02*
X0071800Y0093653D01*
X0071800Y0094652D02*
X0070750Y0094652D01*
X0070750Y0095650D02*
X0071800Y0095650D01*
X0071800Y0096649D02*
X0070891Y0096649D01*
X0071540Y0097647D02*
X0072493Y0097647D01*
X0072750Y0098646D02*
X0071750Y0098646D01*
X0074750Y0093750D02*
X0078750Y0093750D01*
X0082750Y0093750D01*
X0085700Y0091656D02*
X0126650Y0091656D01*
X0126650Y0090658D02*
X0085700Y0090658D01*
X0084813Y0089659D02*
X0126650Y0089659D01*
X0126650Y0092655D02*
X0087676Y0092655D01*
X0088675Y0093653D02*
X0126650Y0093653D01*
X0126650Y0094652D02*
X0089673Y0094652D01*
X0090672Y0095650D02*
X0126650Y0095650D01*
X0126650Y0096649D02*
X0091670Y0096649D01*
X0094083Y0097647D02*
X0126650Y0097647D01*
X0126650Y0098646D02*
X0094823Y0098646D01*
X0095096Y0099644D02*
X0126650Y0099644D01*
X0126650Y0100643D02*
X0095037Y0100643D01*
X0094601Y0101641D02*
X0126650Y0101641D01*
X0126650Y0102640D02*
X0093330Y0102640D01*
X0090863Y0102640D02*
X0080689Y0102640D01*
X0080750Y0101641D02*
X0089592Y0101641D01*
X0089155Y0100643D02*
X0080750Y0100643D01*
X0080750Y0099644D02*
X0089009Y0099644D01*
X0088010Y0098646D02*
X0080750Y0098646D01*
X0085007Y0097647D02*
X0087012Y0097647D01*
X0086013Y0096649D02*
X0085700Y0096649D01*
X0079690Y0103638D02*
X0126650Y0103638D01*
X0126650Y0104637D02*
X0078692Y0104637D01*
X0066750Y0095650D02*
X0066596Y0095650D01*
X0066750Y0094652D02*
X0065750Y0094652D01*
X0065750Y0093653D02*
X0066750Y0093653D01*
X0066750Y0092655D02*
X0065750Y0092655D01*
X0065750Y0091656D02*
X0066750Y0091656D01*
X0066750Y0090658D02*
X0065750Y0090658D01*
X0065750Y0089659D02*
X0066750Y0089659D01*
X0066750Y0088661D02*
X0065750Y0088661D01*
X0065750Y0087662D02*
X0067009Y0087662D01*
X0068008Y0086664D02*
X0065750Y0086664D01*
X0065750Y0085665D02*
X0069006Y0085665D01*
X0070005Y0084667D02*
X0065750Y0084667D01*
X0065750Y0081671D02*
X0092963Y0081671D01*
X0091579Y0076679D02*
X0065921Y0076679D01*
X0089641Y0070687D02*
X0126650Y0070687D01*
X0126650Y0069689D02*
X0090639Y0069689D01*
X0091638Y0068690D02*
X0126650Y0068690D01*
X0126650Y0067692D02*
X0092636Y0067692D01*
X0093635Y0066693D02*
X0126650Y0066693D01*
X0126650Y0065695D02*
X0094633Y0065695D01*
X0095632Y0064696D02*
X0126650Y0064696D01*
X0126650Y0063698D02*
X0095750Y0063698D01*
X0095750Y0062699D02*
X0126650Y0062699D01*
X0126650Y0061701D02*
X0095750Y0061701D01*
X0095750Y0060702D02*
X0126650Y0060702D01*
X0126650Y0059704D02*
X0095750Y0059704D01*
X0095750Y0058705D02*
X0126650Y0058705D01*
X0126650Y0057707D02*
X0095750Y0057707D01*
X0095750Y0056708D02*
X0126650Y0056708D01*
X0126650Y0055710D02*
X0095750Y0055710D01*
X0095750Y0054711D02*
X0126650Y0054711D01*
X0126650Y0053713D02*
X0095750Y0053713D01*
X0095750Y0052714D02*
X0126650Y0052714D01*
X0126650Y0051716D02*
X0095750Y0051716D01*
X0095750Y0050717D02*
X0126650Y0050717D01*
X0126650Y0049719D02*
X0095750Y0049719D01*
X0095750Y0048720D02*
X0126650Y0048720D01*
X0126650Y0047722D02*
X0095750Y0047722D01*
X0095750Y0046723D02*
X0126650Y0046723D01*
X0126650Y0045725D02*
X0095750Y0045725D01*
X0095750Y0044726D02*
X0126650Y0044726D01*
X0126650Y0043728D02*
X0095750Y0043728D01*
X0095750Y0042729D02*
X0126650Y0042729D01*
X0126650Y0041731D02*
X0095750Y0041731D01*
X0095750Y0040732D02*
X0126650Y0040732D01*
X0126650Y0039734D02*
X0095750Y0039734D01*
X0095826Y0038735D02*
X0126650Y0038735D01*
X0126650Y0037737D02*
X0097400Y0037737D01*
X0098357Y0036738D02*
X0126650Y0036738D01*
X0126650Y0035740D02*
X0098771Y0035740D01*
X0099150Y0034741D02*
X0123569Y0034741D01*
X0122675Y0033743D02*
X0099150Y0033743D01*
X0099150Y0032744D02*
X0122300Y0032744D01*
X0122300Y0031746D02*
X0098765Y0031746D01*
X0091674Y0038735D02*
X0085826Y0038735D01*
X0087400Y0037737D02*
X0090100Y0037737D01*
X0089143Y0036738D02*
X0088357Y0036738D01*
X0132850Y0036738D02*
X0134062Y0036738D01*
X0134047Y0036723D02*
X0134047Y0033750D01*
X0133876Y0033750D01*
X0132850Y0032724D01*
X0132850Y0113633D01*
X0133438Y0112615D01*
X0133438Y0112615D01*
X0135977Y0110484D01*
X0135977Y0110484D01*
X0139093Y0109350D01*
X0142407Y0109350D01*
X0145522Y0110484D01*
X0145523Y0110484D01*
X0148062Y0112615D01*
X0149719Y0115485D01*
X0149719Y0115485D01*
X0150295Y0118750D01*
X0149719Y0122015D01*
X0148062Y0124885D01*
X0148062Y0124885D01*
X0145959Y0126650D01*
X0215541Y0126650D01*
X0213438Y0124885D01*
X0211781Y0122015D01*
X0211205Y0118750D01*
X0211205Y0118750D01*
X0211781Y0115485D01*
X0213438Y0112615D01*
X0213438Y0112615D01*
X0215977Y0110484D01*
X0215977Y0110484D01*
X0219093Y0109350D01*
X0222407Y0109350D01*
X0225522Y0110484D01*
X0225523Y0110484D01*
X0228062Y0112615D01*
X0228650Y0113633D01*
X0228650Y0034863D01*
X0227837Y0035200D01*
X0226663Y0035200D01*
X0225579Y0034751D01*
X0224749Y0033921D01*
X0224300Y0032837D01*
X0224300Y0031663D01*
X0224637Y0030850D01*
X0200394Y0030850D01*
X0201150Y0032676D01*
X0201150Y0034824D01*
X0200328Y0036809D01*
X0198809Y0038328D01*
X0197750Y0038766D01*
X0197750Y0064578D01*
X0196578Y0065750D01*
X0191578Y0070750D01*
X0187993Y0070750D01*
X0187449Y0071293D01*
X0186347Y0071750D01*
X0185153Y0071750D01*
X0184051Y0071293D01*
X0183207Y0070449D01*
X0182750Y0069347D01*
X0182750Y0068153D01*
X0183207Y0067051D01*
X0184051Y0066207D01*
X0185153Y0065750D01*
X0186347Y0065750D01*
X0187449Y0066207D01*
X0187993Y0066750D01*
X0189922Y0066750D01*
X0193750Y0062922D01*
X0193750Y0038766D01*
X0192691Y0038328D01*
X0191172Y0036809D01*
X0190750Y0035790D01*
X0190328Y0036809D01*
X0188809Y0038328D01*
X0186824Y0039150D01*
X0184676Y0039150D01*
X0182691Y0038328D01*
X0181172Y0036809D01*
X0180750Y0035790D01*
X0180328Y0036809D01*
X0178809Y0038328D01*
X0177750Y0038766D01*
X0177750Y0044578D01*
X0176578Y0045750D01*
X0167750Y0054578D01*
X0167750Y0076507D01*
X0167993Y0076750D01*
X0193507Y0076750D01*
X0194051Y0076207D01*
X0195153Y0075750D01*
X0196347Y0075750D01*
X0197449Y0076207D01*
X0198293Y0077051D01*
X0198750Y0078153D01*
X0198750Y0079347D01*
X0198293Y0080449D01*
X0197449Y0081293D01*
X0196347Y0081750D01*
X0195153Y0081750D01*
X0194051Y0081293D01*
X0193507Y0080750D01*
X0167993Y0080750D01*
X0167750Y0080993D01*
X0167750Y0095404D01*
X0168000Y0095404D01*
X0168750Y0095714D01*
X0168750Y0087922D01*
X0169922Y0086750D01*
X0172422Y0084250D01*
X0200507Y0084250D01*
X0201051Y0083707D01*
X0202153Y0083250D01*
X0203347Y0083250D01*
X0204449Y0083707D01*
X0205293Y0084551D01*
X0205750Y0085653D01*
X0205750Y0086847D01*
X0205293Y0087949D01*
X0204449Y0088793D01*
X0203347Y0089250D01*
X0202153Y0089250D01*
X0201051Y0088793D01*
X0200507Y0088250D01*
X0174078Y0088250D01*
X0172750Y0089578D01*
X0172750Y0096507D01*
X0173293Y0097051D01*
X0173750Y0098153D01*
X0173750Y0099250D01*
X0174750Y0099250D01*
X0174750Y0097904D01*
X0173800Y0096954D01*
X0173800Y0090546D01*
X0174796Y0089550D01*
X0178704Y0089550D01*
X0178750Y0089596D01*
X0178796Y0089550D01*
X0182704Y0089550D01*
X0182750Y0089596D01*
X0182796Y0089550D01*
X0186704Y0089550D01*
X0187700Y0090546D01*
X0187700Y0091750D01*
X0188771Y0091750D01*
X0193925Y0096904D01*
X0194693Y0096904D01*
X0195796Y0097360D01*
X0196640Y0098204D01*
X0197096Y0099307D01*
X0197096Y0100500D01*
X0196640Y0101603D01*
X0195796Y0102447D01*
X0194693Y0102904D01*
X0193500Y0102904D01*
X0192397Y0102447D01*
X0191553Y0101603D01*
X0191096Y0100500D01*
X0191096Y0099732D01*
X0187700Y0096335D01*
X0187700Y0096954D01*
X0186704Y0097950D01*
X0182796Y0097950D01*
X0182750Y0097904D01*
X0182750Y0097904D01*
X0182750Y0102578D01*
X0181250Y0104078D01*
X0181250Y0104078D01*
X0180078Y0105250D01*
X0165422Y0105250D01*
X0164250Y0104078D01*
X0162750Y0102578D01*
X0162750Y0095422D01*
X0163750Y0094422D01*
X0163750Y0080993D01*
X0163207Y0080449D01*
X0162750Y0079347D01*
X0162750Y0078153D01*
X0163207Y0077051D01*
X0163750Y0076507D01*
X0163750Y0052922D01*
X0173750Y0042922D01*
X0173750Y0038766D01*
X0172691Y0038328D01*
X0171172Y0036809D01*
X0170641Y0035526D01*
X0170569Y0035746D01*
X0170197Y0036475D01*
X0169716Y0037138D01*
X0169138Y0037716D01*
X0168475Y0038197D01*
X0167746Y0038569D01*
X0166968Y0038822D01*
X0166250Y0038936D01*
X0166250Y0034250D01*
X0165250Y0034250D01*
X0165250Y0038936D01*
X0164532Y0038822D01*
X0163754Y0038569D01*
X0163025Y0038197D01*
X0162362Y0037716D01*
X0161784Y0037138D01*
X0161303Y0036475D01*
X0160931Y0035746D01*
X0160678Y0034968D01*
X0160564Y0034250D01*
X0165250Y0034250D01*
X0165250Y0033250D01*
X0160564Y0033250D01*
X0160678Y0032532D01*
X0160931Y0031754D01*
X0161303Y0031025D01*
X0161429Y0030850D01*
X0148737Y0030850D01*
X0148986Y0032091D01*
X0147879Y0033752D01*
X0148986Y0035412D01*
X0148645Y0037118D01*
X0147197Y0038083D01*
X0145491Y0037742D01*
X0145355Y0037538D01*
X0145218Y0037742D01*
X0143512Y0038083D01*
X0142720Y0037555D01*
X0142321Y0037954D01*
X0140920Y0037954D01*
X0140582Y0037954D01*
X0140582Y0037954D01*
X0139180Y0037954D01*
X0139180Y0037954D01*
X0139166Y0037940D01*
X0138099Y0036872D01*
X0137881Y0037089D01*
X0137017Y0037954D01*
X0135277Y0037954D01*
X0134653Y0037330D01*
X0134047Y0036723D01*
X0134047Y0035740D02*
X0132850Y0035740D01*
X0132850Y0034741D02*
X0134047Y0034741D01*
X0133868Y0033743D02*
X0132850Y0033743D01*
X0132850Y0032744D02*
X0132870Y0032744D01*
X0132850Y0037737D02*
X0135060Y0037737D01*
X0137234Y0037737D02*
X0138963Y0037737D01*
X0140920Y0037954D02*
X0140920Y0037954D01*
X0142538Y0037737D02*
X0142992Y0037737D01*
X0145222Y0037737D02*
X0145487Y0037737D01*
X0147717Y0037737D02*
X0162390Y0037737D01*
X0161493Y0036738D02*
X0148721Y0036738D01*
X0148920Y0035740D02*
X0160929Y0035740D01*
X0160642Y0034741D02*
X0148538Y0034741D01*
X0147885Y0033743D02*
X0165250Y0033743D01*
X0165250Y0034741D02*
X0166250Y0034741D01*
X0166250Y0035740D02*
X0165250Y0035740D01*
X0165250Y0036738D02*
X0166250Y0036738D01*
X0166250Y0037737D02*
X0165250Y0037737D01*
X0165250Y0038735D02*
X0166250Y0038735D01*
X0167235Y0038735D02*
X0173674Y0038735D01*
X0173750Y0039734D02*
X0132850Y0039734D01*
X0132850Y0040732D02*
X0173750Y0040732D01*
X0173750Y0041731D02*
X0132850Y0041731D01*
X0132850Y0042729D02*
X0173750Y0042729D01*
X0172944Y0043728D02*
X0132850Y0043728D01*
X0132850Y0044726D02*
X0171945Y0044726D01*
X0170947Y0045725D02*
X0132850Y0045725D01*
X0132850Y0046723D02*
X0169948Y0046723D01*
X0168950Y0047722D02*
X0132850Y0047722D01*
X0132850Y0048720D02*
X0167951Y0048720D01*
X0166953Y0049719D02*
X0132850Y0049719D01*
X0132850Y0050717D02*
X0165954Y0050717D01*
X0164956Y0051716D02*
X0132850Y0051716D01*
X0132850Y0052714D02*
X0163957Y0052714D01*
X0163750Y0053713D02*
X0132850Y0053713D01*
X0132850Y0054711D02*
X0163750Y0054711D01*
X0163750Y0055710D02*
X0132850Y0055710D01*
X0132850Y0056708D02*
X0163750Y0056708D01*
X0163750Y0057707D02*
X0132850Y0057707D01*
X0132850Y0058705D02*
X0163750Y0058705D01*
X0163750Y0059704D02*
X0132850Y0059704D01*
X0132850Y0060702D02*
X0163750Y0060702D01*
X0163750Y0061701D02*
X0132850Y0061701D01*
X0132850Y0062699D02*
X0163750Y0062699D01*
X0163750Y0063698D02*
X0132850Y0063698D01*
X0132850Y0064696D02*
X0163750Y0064696D01*
X0163750Y0065695D02*
X0132850Y0065695D01*
X0132850Y0066693D02*
X0163750Y0066693D01*
X0163750Y0067692D02*
X0132850Y0067692D01*
X0132850Y0068690D02*
X0163750Y0068690D01*
X0163750Y0069689D02*
X0132850Y0069689D01*
X0132850Y0070687D02*
X0163750Y0070687D01*
X0163750Y0071686D02*
X0132850Y0071686D01*
X0132850Y0072684D02*
X0163750Y0072684D01*
X0163750Y0073683D02*
X0132850Y0073683D01*
X0132850Y0074682D02*
X0163750Y0074682D01*
X0163750Y0075680D02*
X0132850Y0075680D01*
X0132850Y0076679D02*
X0163579Y0076679D01*
X0162947Y0077677D02*
X0132850Y0077677D01*
X0132850Y0078676D02*
X0162750Y0078676D01*
X0162886Y0079674D02*
X0132850Y0079674D01*
X0132850Y0080673D02*
X0163430Y0080673D01*
X0163750Y0081671D02*
X0132850Y0081671D01*
X0132850Y0082670D02*
X0163750Y0082670D01*
X0163750Y0083668D02*
X0132850Y0083668D01*
X0132850Y0084667D02*
X0163750Y0084667D01*
X0163750Y0085665D02*
X0132850Y0085665D01*
X0132850Y0086664D02*
X0163750Y0086664D01*
X0163750Y0087662D02*
X0132850Y0087662D01*
X0132850Y0088661D02*
X0163750Y0088661D01*
X0163750Y0089659D02*
X0132850Y0089659D01*
X0132850Y0090658D02*
X0163750Y0090658D01*
X0163750Y0091656D02*
X0132850Y0091656D01*
X0132850Y0092655D02*
X0163750Y0092655D01*
X0163750Y0093653D02*
X0132850Y0093653D01*
X0132850Y0094652D02*
X0163520Y0094652D01*
X0162750Y0095650D02*
X0132850Y0095650D01*
X0132850Y0096649D02*
X0162750Y0096649D01*
X0162750Y0097647D02*
X0132850Y0097647D01*
X0132850Y0098646D02*
X0162750Y0098646D01*
X0162750Y0099644D02*
X0132850Y0099644D01*
X0132850Y0100643D02*
X0162750Y0100643D01*
X0162750Y0101641D02*
X0132850Y0101641D01*
X0132850Y0102640D02*
X0162811Y0102640D01*
X0163810Y0103638D02*
X0132850Y0103638D01*
X0132850Y0104637D02*
X0164808Y0104637D01*
X0173750Y0098646D02*
X0174750Y0098646D01*
X0174493Y0097647D02*
X0173540Y0097647D01*
X0173800Y0096649D02*
X0172891Y0096649D01*
X0172750Y0095650D02*
X0173800Y0095650D01*
X0173800Y0094652D02*
X0172750Y0094652D01*
X0172750Y0093653D02*
X0173800Y0093653D01*
X0173800Y0092655D02*
X0172750Y0092655D01*
X0172750Y0091656D02*
X0173800Y0091656D01*
X0173800Y0090658D02*
X0172750Y0090658D01*
X0172750Y0089659D02*
X0174687Y0089659D01*
X0173668Y0088661D02*
X0200918Y0088661D01*
X0204582Y0088661D02*
X0228650Y0088661D01*
X0228650Y0089659D02*
X0186813Y0089659D01*
X0187700Y0090658D02*
X0228650Y0090658D01*
X0228650Y0091656D02*
X0187700Y0091656D01*
X0189676Y0092655D02*
X0228650Y0092655D01*
X0228650Y0093653D02*
X0190675Y0093653D01*
X0191673Y0094652D02*
X0228650Y0094652D01*
X0228650Y0095650D02*
X0192672Y0095650D01*
X0193670Y0096649D02*
X0228650Y0096649D01*
X0228650Y0097647D02*
X0196083Y0097647D01*
X0196823Y0098646D02*
X0228650Y0098646D01*
X0228650Y0099644D02*
X0197096Y0099644D01*
X0197037Y0100643D02*
X0228650Y0100643D01*
X0228650Y0101641D02*
X0196601Y0101641D01*
X0195330Y0102640D02*
X0228650Y0102640D01*
X0228650Y0103638D02*
X0181690Y0103638D01*
X0182689Y0102640D02*
X0192863Y0102640D01*
X0191592Y0101641D02*
X0182750Y0101641D01*
X0182750Y0100643D02*
X0191155Y0100643D01*
X0191009Y0099644D02*
X0182750Y0099644D01*
X0182750Y0098646D02*
X0190010Y0098646D01*
X0189012Y0097647D02*
X0187007Y0097647D01*
X0187700Y0096649D02*
X0188013Y0096649D01*
X0184750Y0093750D02*
X0180750Y0093750D01*
X0176750Y0093750D01*
X0168750Y0093653D02*
X0167750Y0093653D01*
X0167750Y0092655D02*
X0168750Y0092655D01*
X0168750Y0091656D02*
X0167750Y0091656D01*
X0167750Y0090658D02*
X0168750Y0090658D01*
X0168750Y0089659D02*
X0167750Y0089659D01*
X0167750Y0088661D02*
X0168750Y0088661D01*
X0169009Y0087662D02*
X0167750Y0087662D01*
X0167750Y0086664D02*
X0170008Y0086664D01*
X0171006Y0085665D02*
X0167750Y0085665D01*
X0167750Y0084667D02*
X0172005Y0084667D01*
X0167750Y0083668D02*
X0201144Y0083668D01*
X0204356Y0083668D02*
X0228650Y0083668D01*
X0228650Y0082670D02*
X0167750Y0082670D01*
X0167750Y0081671D02*
X0194963Y0081671D01*
X0196537Y0081671D02*
X0228650Y0081671D01*
X0228650Y0080673D02*
X0198070Y0080673D01*
X0198614Y0079674D02*
X0228650Y0079674D01*
X0228650Y0078676D02*
X0198750Y0078676D01*
X0198553Y0077677D02*
X0228650Y0077677D01*
X0228650Y0076679D02*
X0197921Y0076679D01*
X0193579Y0076679D02*
X0167921Y0076679D01*
X0167750Y0075680D02*
X0228650Y0075680D01*
X0228650Y0074682D02*
X0167750Y0074682D01*
X0167750Y0073683D02*
X0228650Y0073683D01*
X0228650Y0072684D02*
X0167750Y0072684D01*
X0167750Y0071686D02*
X0184999Y0071686D01*
X0186501Y0071686D02*
X0228650Y0071686D01*
X0228650Y0070687D02*
X0191641Y0070687D01*
X0192639Y0069689D02*
X0228650Y0069689D01*
X0228650Y0068690D02*
X0193638Y0068690D01*
X0194636Y0067692D02*
X0228650Y0067692D01*
X0228650Y0066693D02*
X0195635Y0066693D01*
X0196633Y0065695D02*
X0228650Y0065695D01*
X0228650Y0064696D02*
X0197632Y0064696D01*
X0197750Y0063698D02*
X0228650Y0063698D01*
X0228650Y0062699D02*
X0197750Y0062699D01*
X0197750Y0061701D02*
X0228650Y0061701D01*
X0228650Y0060702D02*
X0197750Y0060702D01*
X0197750Y0059704D02*
X0228650Y0059704D01*
X0228650Y0058705D02*
X0197750Y0058705D01*
X0197750Y0057707D02*
X0228650Y0057707D01*
X0228650Y0056708D02*
X0197750Y0056708D01*
X0197750Y0055710D02*
X0228650Y0055710D01*
X0228650Y0054711D02*
X0197750Y0054711D01*
X0197750Y0053713D02*
X0228650Y0053713D01*
X0228650Y0052714D02*
X0197750Y0052714D01*
X0197750Y0051716D02*
X0228650Y0051716D01*
X0228650Y0050717D02*
X0197750Y0050717D01*
X0197750Y0049719D02*
X0228650Y0049719D01*
X0228650Y0048720D02*
X0197750Y0048720D01*
X0197750Y0047722D02*
X0228650Y0047722D01*
X0228650Y0046723D02*
X0197750Y0046723D01*
X0197750Y0045725D02*
X0228650Y0045725D01*
X0228650Y0044726D02*
X0197750Y0044726D01*
X0197750Y0043728D02*
X0228650Y0043728D01*
X0228650Y0042729D02*
X0197750Y0042729D01*
X0197750Y0041731D02*
X0228650Y0041731D01*
X0228650Y0040732D02*
X0197750Y0040732D01*
X0197750Y0039734D02*
X0228650Y0039734D01*
X0228650Y0038735D02*
X0197826Y0038735D01*
X0199400Y0037737D02*
X0228650Y0037737D01*
X0228650Y0036738D02*
X0200357Y0036738D01*
X0200771Y0035740D02*
X0228650Y0035740D01*
X0225569Y0034741D02*
X0201150Y0034741D01*
X0201150Y0033743D02*
X0224675Y0033743D01*
X0224300Y0032744D02*
X0201150Y0032744D01*
X0200765Y0031746D02*
X0224300Y0031746D01*
X0234850Y0032724D02*
X0234850Y0113633D01*
X0235438Y0112615D01*
X0237977Y0110484D01*
X0237977Y0110484D01*
X0241093Y0109350D01*
X0244407Y0109350D01*
X0247522Y0110484D01*
X0247523Y0110484D01*
X0250062Y0112615D01*
X0251719Y0115485D01*
X0251719Y0115485D01*
X0252295Y0118750D01*
X0251719Y0122015D01*
X0250062Y0124885D01*
X0250062Y0124885D01*
X0247959Y0126650D01*
X0317541Y0126650D01*
X0315438Y0124885D01*
X0313781Y0122015D01*
X0313205Y0118750D01*
X0313205Y0118750D01*
X0313781Y0115485D01*
X0315438Y0112615D01*
X0315438Y0112615D01*
X0317977Y0110484D01*
X0317977Y0110484D01*
X0321093Y0109350D01*
X0324407Y0109350D01*
X0327522Y0110484D01*
X0327523Y0110484D01*
X0330062Y0112615D01*
X0330650Y0113633D01*
X0330650Y0034863D01*
X0329837Y0035200D01*
X0328663Y0035200D01*
X0327579Y0034751D01*
X0326749Y0033921D01*
X0326300Y0032837D01*
X0326300Y0031663D01*
X0326637Y0030850D01*
X0302394Y0030850D01*
X0303150Y0032676D01*
X0303150Y0034824D01*
X0302328Y0036809D01*
X0300809Y0038328D01*
X0299750Y0038766D01*
X0299750Y0064578D01*
X0298578Y0065750D01*
X0293578Y0070750D01*
X0289993Y0070750D01*
X0289449Y0071293D01*
X0288347Y0071750D01*
X0287153Y0071750D01*
X0286051Y0071293D01*
X0285207Y0070449D01*
X0284750Y0069347D01*
X0284750Y0068153D01*
X0285207Y0067051D01*
X0286051Y0066207D01*
X0287153Y0065750D01*
X0288347Y0065750D01*
X0289449Y0066207D01*
X0289993Y0066750D01*
X0291922Y0066750D01*
X0295750Y0062922D01*
X0295750Y0038766D01*
X0294691Y0038328D01*
X0293172Y0036809D01*
X0292750Y0035790D01*
X0292328Y0036809D01*
X0290809Y0038328D01*
X0288824Y0039150D01*
X0286676Y0039150D01*
X0284691Y0038328D01*
X0283172Y0036809D01*
X0282750Y0035790D01*
X0282328Y0036809D01*
X0280809Y0038328D01*
X0279750Y0038766D01*
X0279750Y0044578D01*
X0278578Y0045750D01*
X0269750Y0054578D01*
X0269750Y0076507D01*
X0269993Y0076750D01*
X0295507Y0076750D01*
X0296051Y0076207D01*
X0297153Y0075750D01*
X0298347Y0075750D01*
X0299449Y0076207D01*
X0300293Y0077051D01*
X0300750Y0078153D01*
X0300750Y0079347D01*
X0300293Y0080449D01*
X0299449Y0081293D01*
X0298347Y0081750D01*
X0297153Y0081750D01*
X0296051Y0081293D01*
X0295507Y0080750D01*
X0269993Y0080750D01*
X0269750Y0080993D01*
X0269750Y0095404D01*
X0270000Y0095404D01*
X0270750Y0095714D01*
X0270750Y0087922D01*
X0271922Y0086750D01*
X0274422Y0084250D01*
X0302507Y0084250D01*
X0303051Y0083707D01*
X0304153Y0083250D01*
X0305347Y0083250D01*
X0306449Y0083707D01*
X0307293Y0084551D01*
X0307750Y0085653D01*
X0307750Y0086847D01*
X0307293Y0087949D01*
X0306449Y0088793D01*
X0305347Y0089250D01*
X0304153Y0089250D01*
X0303051Y0088793D01*
X0302507Y0088250D01*
X0276078Y0088250D01*
X0274750Y0089578D01*
X0274750Y0096507D01*
X0275293Y0097051D01*
X0275750Y0098153D01*
X0275750Y0099250D01*
X0276750Y0099250D01*
X0276750Y0097904D01*
X0275800Y0096954D01*
X0275800Y0090546D01*
X0276796Y0089550D01*
X0280704Y0089550D01*
X0280750Y0089596D01*
X0280796Y0089550D01*
X0284704Y0089550D01*
X0284750Y0089596D01*
X0284796Y0089550D01*
X0288704Y0089550D01*
X0289700Y0090546D01*
X0289700Y0091750D01*
X0290771Y0091750D01*
X0295925Y0096904D01*
X0296693Y0096904D01*
X0297796Y0097360D01*
X0298640Y0098204D01*
X0299096Y0099307D01*
X0299096Y0100500D01*
X0298640Y0101603D01*
X0297796Y0102447D01*
X0296693Y0102904D01*
X0295500Y0102904D01*
X0294397Y0102447D01*
X0293553Y0101603D01*
X0293096Y0100500D01*
X0293096Y0099732D01*
X0289700Y0096335D01*
X0289700Y0096954D01*
X0288704Y0097950D01*
X0284796Y0097950D01*
X0284750Y0097904D01*
X0284750Y0097904D01*
X0284750Y0102578D01*
X0283250Y0104078D01*
X0283250Y0104078D01*
X0282078Y0105250D01*
X0267422Y0105250D01*
X0266250Y0104078D01*
X0264750Y0102578D01*
X0264750Y0095422D01*
X0265750Y0094422D01*
X0265750Y0080993D01*
X0265207Y0080449D01*
X0264750Y0079347D01*
X0264750Y0078153D01*
X0265207Y0077051D01*
X0265750Y0076507D01*
X0265750Y0052922D01*
X0275750Y0042922D01*
X0275750Y0038766D01*
X0274691Y0038328D01*
X0273172Y0036809D01*
X0272641Y0035526D01*
X0272569Y0035746D01*
X0272197Y0036475D01*
X0271716Y0037138D01*
X0271138Y0037716D01*
X0270475Y0038197D01*
X0269746Y0038569D01*
X0268968Y0038822D01*
X0268250Y0038936D01*
X0268250Y0034250D01*
X0267250Y0034250D01*
X0267250Y0038936D01*
X0266532Y0038822D01*
X0265754Y0038569D01*
X0265025Y0038197D01*
X0264362Y0037716D01*
X0263784Y0037138D01*
X0263303Y0036475D01*
X0262931Y0035746D01*
X0262678Y0034968D01*
X0262564Y0034250D01*
X0267250Y0034250D01*
X0267250Y0033250D01*
X0262564Y0033250D01*
X0262678Y0032532D01*
X0262931Y0031754D01*
X0263303Y0031025D01*
X0263429Y0030850D01*
X0250737Y0030850D01*
X0250986Y0032091D01*
X0249879Y0033752D01*
X0250986Y0035412D01*
X0250645Y0037118D01*
X0249197Y0038083D01*
X0247491Y0037742D01*
X0247355Y0037538D01*
X0247218Y0037742D01*
X0245512Y0038083D01*
X0244720Y0037555D01*
X0244321Y0037954D01*
X0242920Y0037954D01*
X0242742Y0037954D01*
X0242582Y0037954D01*
X0242582Y0037954D01*
X0241180Y0037954D01*
X0241180Y0037954D01*
X0241166Y0037940D01*
X0240099Y0036872D01*
X0239881Y0037089D01*
X0239017Y0037954D01*
X0237277Y0037954D01*
X0236653Y0037330D01*
X0236047Y0036723D01*
X0236047Y0033750D01*
X0235876Y0033750D01*
X0234850Y0032724D01*
X0234850Y0032744D02*
X0234870Y0032744D01*
X0234850Y0033743D02*
X0235868Y0033743D01*
X0236047Y0034741D02*
X0234850Y0034741D01*
X0234850Y0035740D02*
X0236047Y0035740D01*
X0236062Y0036738D02*
X0234850Y0036738D01*
X0234850Y0037737D02*
X0237060Y0037737D01*
X0239234Y0037737D02*
X0240963Y0037737D01*
X0242920Y0037954D02*
X0242920Y0037954D01*
X0244538Y0037737D02*
X0244992Y0037737D01*
X0247222Y0037737D02*
X0247487Y0037737D01*
X0249717Y0037737D02*
X0264390Y0037737D01*
X0263493Y0036738D02*
X0250721Y0036738D01*
X0250920Y0035740D02*
X0262929Y0035740D01*
X0262642Y0034741D02*
X0250538Y0034741D01*
X0249885Y0033743D02*
X0267250Y0033743D01*
X0267250Y0034741D02*
X0268250Y0034741D01*
X0268250Y0035740D02*
X0267250Y0035740D01*
X0267250Y0036738D02*
X0268250Y0036738D01*
X0268250Y0037737D02*
X0267250Y0037737D01*
X0267250Y0038735D02*
X0268250Y0038735D01*
X0269235Y0038735D02*
X0275674Y0038735D01*
X0275750Y0039734D02*
X0234850Y0039734D01*
X0234850Y0040732D02*
X0275750Y0040732D01*
X0275750Y0041731D02*
X0234850Y0041731D01*
X0234850Y0042729D02*
X0275750Y0042729D01*
X0274944Y0043728D02*
X0234850Y0043728D01*
X0234850Y0044726D02*
X0273945Y0044726D01*
X0272947Y0045725D02*
X0234850Y0045725D01*
X0234850Y0046723D02*
X0271948Y0046723D01*
X0270950Y0047722D02*
X0234850Y0047722D01*
X0234850Y0048720D02*
X0269951Y0048720D01*
X0268953Y0049719D02*
X0234850Y0049719D01*
X0234850Y0050717D02*
X0267954Y0050717D01*
X0266956Y0051716D02*
X0234850Y0051716D01*
X0234850Y0052714D02*
X0265957Y0052714D01*
X0265750Y0053713D02*
X0234850Y0053713D01*
X0234850Y0054711D02*
X0265750Y0054711D01*
X0265750Y0055710D02*
X0234850Y0055710D01*
X0234850Y0056708D02*
X0265750Y0056708D01*
X0265750Y0057707D02*
X0234850Y0057707D01*
X0234850Y0058705D02*
X0265750Y0058705D01*
X0265750Y0059704D02*
X0234850Y0059704D01*
X0234850Y0060702D02*
X0265750Y0060702D01*
X0265750Y0061701D02*
X0234850Y0061701D01*
X0234850Y0062699D02*
X0265750Y0062699D01*
X0265750Y0063698D02*
X0234850Y0063698D01*
X0234850Y0064696D02*
X0265750Y0064696D01*
X0265750Y0065695D02*
X0234850Y0065695D01*
X0234850Y0066693D02*
X0265750Y0066693D01*
X0265750Y0067692D02*
X0234850Y0067692D01*
X0234850Y0068690D02*
X0265750Y0068690D01*
X0265750Y0069689D02*
X0234850Y0069689D01*
X0234850Y0070687D02*
X0265750Y0070687D01*
X0265750Y0071686D02*
X0234850Y0071686D01*
X0234850Y0072684D02*
X0265750Y0072684D01*
X0265750Y0073683D02*
X0234850Y0073683D01*
X0234850Y0074682D02*
X0265750Y0074682D01*
X0265750Y0075680D02*
X0234850Y0075680D01*
X0234850Y0076679D02*
X0265579Y0076679D01*
X0264947Y0077677D02*
X0234850Y0077677D01*
X0234850Y0078676D02*
X0264750Y0078676D01*
X0264886Y0079674D02*
X0234850Y0079674D01*
X0234850Y0080673D02*
X0265430Y0080673D01*
X0265750Y0081671D02*
X0234850Y0081671D01*
X0234850Y0082670D02*
X0265750Y0082670D01*
X0265750Y0083668D02*
X0234850Y0083668D01*
X0234850Y0084667D02*
X0265750Y0084667D01*
X0265750Y0085665D02*
X0234850Y0085665D01*
X0234850Y0086664D02*
X0265750Y0086664D01*
X0265750Y0087662D02*
X0234850Y0087662D01*
X0234850Y0088661D02*
X0265750Y0088661D01*
X0265750Y0089659D02*
X0234850Y0089659D01*
X0234850Y0090658D02*
X0265750Y0090658D01*
X0265750Y0091656D02*
X0234850Y0091656D01*
X0234850Y0092655D02*
X0265750Y0092655D01*
X0265750Y0093653D02*
X0234850Y0093653D01*
X0234850Y0094652D02*
X0265520Y0094652D01*
X0264750Y0095650D02*
X0234850Y0095650D01*
X0234850Y0096649D02*
X0264750Y0096649D01*
X0264750Y0097647D02*
X0234850Y0097647D01*
X0234850Y0098646D02*
X0264750Y0098646D01*
X0264750Y0099644D02*
X0234850Y0099644D01*
X0234850Y0100643D02*
X0264750Y0100643D01*
X0264750Y0101641D02*
X0234850Y0101641D01*
X0234850Y0102640D02*
X0264811Y0102640D01*
X0265810Y0103638D02*
X0234850Y0103638D01*
X0234850Y0104637D02*
X0266808Y0104637D01*
X0275750Y0098646D02*
X0276750Y0098646D01*
X0276493Y0097647D02*
X0275540Y0097647D01*
X0275800Y0096649D02*
X0274891Y0096649D01*
X0274750Y0095650D02*
X0275800Y0095650D01*
X0275800Y0094652D02*
X0274750Y0094652D01*
X0274750Y0093653D02*
X0275800Y0093653D01*
X0275800Y0092655D02*
X0274750Y0092655D01*
X0274750Y0091656D02*
X0275800Y0091656D01*
X0275800Y0090658D02*
X0274750Y0090658D01*
X0274750Y0089659D02*
X0276687Y0089659D01*
X0275668Y0088661D02*
X0302918Y0088661D01*
X0306582Y0088661D02*
X0330650Y0088661D01*
X0330650Y0089659D02*
X0288813Y0089659D01*
X0289700Y0090658D02*
X0330650Y0090658D01*
X0330650Y0091656D02*
X0289700Y0091656D01*
X0291676Y0092655D02*
X0330650Y0092655D01*
X0330650Y0093653D02*
X0292675Y0093653D01*
X0293673Y0094652D02*
X0330650Y0094652D01*
X0330650Y0095650D02*
X0294672Y0095650D01*
X0295670Y0096649D02*
X0330650Y0096649D01*
X0330650Y0097647D02*
X0298083Y0097647D01*
X0298823Y0098646D02*
X0330650Y0098646D01*
X0330650Y0099644D02*
X0299096Y0099644D01*
X0299037Y0100643D02*
X0330650Y0100643D01*
X0330650Y0101641D02*
X0298601Y0101641D01*
X0297330Y0102640D02*
X0330650Y0102640D01*
X0330650Y0103638D02*
X0283690Y0103638D01*
X0284689Y0102640D02*
X0294863Y0102640D01*
X0293592Y0101641D02*
X0284750Y0101641D01*
X0284750Y0100643D02*
X0293155Y0100643D01*
X0293009Y0099644D02*
X0284750Y0099644D01*
X0284750Y0098646D02*
X0292010Y0098646D01*
X0291012Y0097647D02*
X0289007Y0097647D01*
X0289700Y0096649D02*
X0290013Y0096649D01*
X0286750Y0093750D02*
X0282750Y0093750D01*
X0278750Y0093750D01*
X0270750Y0093653D02*
X0269750Y0093653D01*
X0269750Y0092655D02*
X0270750Y0092655D01*
X0270750Y0091656D02*
X0269750Y0091656D01*
X0269750Y0090658D02*
X0270750Y0090658D01*
X0270750Y0089659D02*
X0269750Y0089659D01*
X0269750Y0088661D02*
X0270750Y0088661D01*
X0271009Y0087662D02*
X0269750Y0087662D01*
X0269750Y0086664D02*
X0272008Y0086664D01*
X0273006Y0085665D02*
X0269750Y0085665D01*
X0269750Y0084667D02*
X0274005Y0084667D01*
X0269750Y0083668D02*
X0303144Y0083668D01*
X0306356Y0083668D02*
X0330650Y0083668D01*
X0330650Y0082670D02*
X0269750Y0082670D01*
X0269750Y0081671D02*
X0296963Y0081671D01*
X0298537Y0081671D02*
X0330650Y0081671D01*
X0330650Y0080673D02*
X0300070Y0080673D01*
X0300614Y0079674D02*
X0330650Y0079674D01*
X0330650Y0078676D02*
X0300750Y0078676D01*
X0300553Y0077677D02*
X0330650Y0077677D01*
X0330650Y0076679D02*
X0299921Y0076679D01*
X0295579Y0076679D02*
X0269921Y0076679D01*
X0269750Y0075680D02*
X0330650Y0075680D01*
X0330650Y0074682D02*
X0269750Y0074682D01*
X0269750Y0073683D02*
X0330650Y0073683D01*
X0330650Y0072684D02*
X0269750Y0072684D01*
X0269750Y0071686D02*
X0286999Y0071686D01*
X0288501Y0071686D02*
X0330650Y0071686D01*
X0330650Y0070687D02*
X0293641Y0070687D01*
X0294639Y0069689D02*
X0330650Y0069689D01*
X0330650Y0068690D02*
X0295638Y0068690D01*
X0296636Y0067692D02*
X0330650Y0067692D01*
X0330650Y0066693D02*
X0297635Y0066693D01*
X0298633Y0065695D02*
X0330650Y0065695D01*
X0330650Y0064696D02*
X0299632Y0064696D01*
X0299750Y0063698D02*
X0330650Y0063698D01*
X0330650Y0062699D02*
X0299750Y0062699D01*
X0299750Y0061701D02*
X0330650Y0061701D01*
X0330650Y0060702D02*
X0299750Y0060702D01*
X0299750Y0059704D02*
X0330650Y0059704D01*
X0330650Y0058705D02*
X0299750Y0058705D01*
X0299750Y0057707D02*
X0330650Y0057707D01*
X0330650Y0056708D02*
X0299750Y0056708D01*
X0299750Y0055710D02*
X0330650Y0055710D01*
X0330650Y0054711D02*
X0299750Y0054711D01*
X0299750Y0053713D02*
X0330650Y0053713D01*
X0330650Y0052714D02*
X0299750Y0052714D01*
X0299750Y0051716D02*
X0330650Y0051716D01*
X0330650Y0050717D02*
X0299750Y0050717D01*
X0299750Y0049719D02*
X0330650Y0049719D01*
X0330650Y0048720D02*
X0299750Y0048720D01*
X0299750Y0047722D02*
X0330650Y0047722D01*
X0330650Y0046723D02*
X0299750Y0046723D01*
X0299750Y0045725D02*
X0330650Y0045725D01*
X0330650Y0044726D02*
X0299750Y0044726D01*
X0299750Y0043728D02*
X0330650Y0043728D01*
X0330650Y0042729D02*
X0299750Y0042729D01*
X0299750Y0041731D02*
X0330650Y0041731D01*
X0330650Y0040732D02*
X0299750Y0040732D01*
X0299750Y0039734D02*
X0330650Y0039734D01*
X0330650Y0038735D02*
X0299826Y0038735D01*
X0301400Y0037737D02*
X0330650Y0037737D01*
X0330650Y0036738D02*
X0302357Y0036738D01*
X0302771Y0035740D02*
X0330650Y0035740D01*
X0327569Y0034741D02*
X0303150Y0034741D01*
X0303150Y0033743D02*
X0326675Y0033743D01*
X0326300Y0032744D02*
X0303150Y0032744D01*
X0302765Y0031746D02*
X0326300Y0031746D01*
X0295674Y0038735D02*
X0289826Y0038735D01*
X0291400Y0037737D02*
X0294100Y0037737D01*
X0293143Y0036738D02*
X0292357Y0036738D01*
X0295750Y0039734D02*
X0279750Y0039734D01*
X0279750Y0040732D02*
X0295750Y0040732D01*
X0295750Y0041731D02*
X0279750Y0041731D01*
X0279750Y0042729D02*
X0295750Y0042729D01*
X0295750Y0043728D02*
X0279750Y0043728D01*
X0279602Y0044726D02*
X0295750Y0044726D01*
X0295750Y0045725D02*
X0278604Y0045725D01*
X0277605Y0046723D02*
X0295750Y0046723D01*
X0295750Y0047722D02*
X0276607Y0047722D01*
X0275608Y0048720D02*
X0295750Y0048720D01*
X0295750Y0049719D02*
X0274610Y0049719D01*
X0273611Y0050717D02*
X0295750Y0050717D01*
X0295750Y0051716D02*
X0272613Y0051716D01*
X0271614Y0052714D02*
X0295750Y0052714D01*
X0295750Y0053713D02*
X0270616Y0053713D01*
X0269750Y0054711D02*
X0295750Y0054711D01*
X0295750Y0055710D02*
X0269750Y0055710D01*
X0269750Y0056708D02*
X0295750Y0056708D01*
X0295750Y0057707D02*
X0269750Y0057707D01*
X0269750Y0058705D02*
X0295750Y0058705D01*
X0295750Y0059704D02*
X0269750Y0059704D01*
X0269750Y0060702D02*
X0295750Y0060702D01*
X0295750Y0061701D02*
X0269750Y0061701D01*
X0269750Y0062699D02*
X0295750Y0062699D01*
X0294974Y0063698D02*
X0269750Y0063698D01*
X0269750Y0064696D02*
X0293975Y0064696D01*
X0292977Y0065695D02*
X0269750Y0065695D01*
X0269750Y0066693D02*
X0285564Y0066693D01*
X0284941Y0067692D02*
X0269750Y0067692D01*
X0269750Y0068690D02*
X0284750Y0068690D01*
X0284892Y0069689D02*
X0269750Y0069689D01*
X0269750Y0070687D02*
X0285445Y0070687D01*
X0289936Y0066693D02*
X0291978Y0066693D01*
X0307341Y0084667D02*
X0330650Y0084667D01*
X0330650Y0085665D02*
X0307750Y0085665D01*
X0307750Y0086664D02*
X0330650Y0086664D01*
X0330650Y0087662D02*
X0307412Y0087662D01*
X0330650Y0104637D02*
X0282692Y0104637D01*
X0270750Y0095650D02*
X0270596Y0095650D01*
X0270750Y0094652D02*
X0269750Y0094652D01*
X0250062Y0112615D02*
X0250062Y0112615D01*
X0250062Y0112615D01*
X0250068Y0112625D02*
X0315432Y0112625D01*
X0314856Y0113623D02*
X0250644Y0113623D01*
X0251221Y0114622D02*
X0314279Y0114622D01*
X0313781Y0115485D02*
X0313781Y0115485D01*
X0313757Y0115620D02*
X0251743Y0115620D01*
X0251919Y0116619D02*
X0313581Y0116619D01*
X0313405Y0117618D02*
X0252095Y0117618D01*
X0252271Y0118616D02*
X0313229Y0118616D01*
X0313357Y0119615D02*
X0252143Y0119615D01*
X0252295Y0118750D02*
X0252295Y0118750D01*
X0251966Y0120613D02*
X0313534Y0120613D01*
X0313710Y0121612D02*
X0251790Y0121612D01*
X0251719Y0122015D02*
X0251719Y0122015D01*
X0251376Y0122610D02*
X0314124Y0122610D01*
X0313781Y0122015D02*
X0313781Y0122015D01*
X0314701Y0123609D02*
X0250799Y0123609D01*
X0250223Y0124607D02*
X0315277Y0124607D01*
X0315438Y0124885D02*
X0315438Y0124885D01*
X0315438Y0124885D01*
X0316296Y0125606D02*
X0249204Y0125606D01*
X0248014Y0126604D02*
X0317486Y0126604D01*
X0326637Y0132850D02*
X0302394Y0132850D01*
X0303150Y0134676D01*
X0303150Y0136824D01*
X0302328Y0138809D01*
X0300809Y0140328D01*
X0299750Y0140766D01*
X0299750Y0166578D01*
X0298578Y0167750D01*
X0293578Y0172750D01*
X0289993Y0172750D01*
X0289449Y0173293D01*
X0288347Y0173750D01*
X0287153Y0173750D01*
X0286051Y0173293D01*
X0285207Y0172449D01*
X0284750Y0171347D01*
X0284750Y0170153D01*
X0285207Y0169051D01*
X0286051Y0168207D01*
X0287153Y0167750D01*
X0288347Y0167750D01*
X0289449Y0168207D01*
X0289993Y0168750D01*
X0291922Y0168750D01*
X0295750Y0164922D01*
X0295750Y0140766D01*
X0294691Y0140328D01*
X0293172Y0138809D01*
X0292750Y0137790D01*
X0292328Y0138809D01*
X0290809Y0140328D01*
X0288824Y0141150D01*
X0286676Y0141150D01*
X0284691Y0140328D01*
X0283172Y0138809D01*
X0282750Y0137790D01*
X0282328Y0138809D01*
X0280809Y0140328D01*
X0279750Y0140766D01*
X0279750Y0146578D01*
X0278578Y0147750D01*
X0269750Y0156578D01*
X0269750Y0178507D01*
X0269993Y0178750D01*
X0295507Y0178750D01*
X0296051Y0178207D01*
X0297153Y0177750D01*
X0298347Y0177750D01*
X0299449Y0178207D01*
X0300293Y0179051D01*
X0300750Y0180153D01*
X0300750Y0181347D01*
X0300293Y0182449D01*
X0299449Y0183293D01*
X0298347Y0183750D01*
X0297153Y0183750D01*
X0296051Y0183293D01*
X0295507Y0182750D01*
X0269993Y0182750D01*
X0269750Y0182993D01*
X0269750Y0197404D01*
X0270000Y0197404D01*
X0270750Y0197714D01*
X0270750Y0189922D01*
X0271922Y0188750D01*
X0274422Y0186250D01*
X0302507Y0186250D01*
X0303051Y0185707D01*
X0304153Y0185250D01*
X0305347Y0185250D01*
X0306449Y0185707D01*
X0307293Y0186551D01*
X0307750Y0187653D01*
X0307750Y0188847D01*
X0307293Y0189949D01*
X0306449Y0190793D01*
X0305347Y0191250D01*
X0304153Y0191250D01*
X0303051Y0190793D01*
X0302507Y0190250D01*
X0276078Y0190250D01*
X0274750Y0191578D01*
X0274750Y0198507D01*
X0275293Y0199051D01*
X0275750Y0200153D01*
X0275750Y0201250D01*
X0276750Y0201250D01*
X0276750Y0199904D01*
X0275800Y0198954D01*
X0275800Y0192546D01*
X0276796Y0191550D01*
X0280704Y0191550D01*
X0280750Y0191596D01*
X0280796Y0191550D01*
X0284704Y0191550D01*
X0284750Y0191596D01*
X0284796Y0191550D01*
X0288704Y0191550D01*
X0289700Y0192546D01*
X0289700Y0193750D01*
X0290771Y0193750D01*
X0295925Y0198904D01*
X0296693Y0198904D01*
X0297796Y0199360D01*
X0298640Y0200204D01*
X0299096Y0201307D01*
X0299096Y0202500D01*
X0298640Y0203603D01*
X0297796Y0204447D01*
X0296693Y0204904D01*
X0295500Y0204904D01*
X0294397Y0204447D01*
X0293553Y0203603D01*
X0293096Y0202500D01*
X0293096Y0201732D01*
X0289700Y0198335D01*
X0289700Y0198954D01*
X0288704Y0199950D01*
X0284796Y0199950D01*
X0284750Y0199904D01*
X0284750Y0199904D01*
X0284750Y0204578D01*
X0283250Y0206078D01*
X0283250Y0206078D01*
X0282078Y0207250D01*
X0267422Y0207250D01*
X0266250Y0206078D01*
X0264750Y0204578D01*
X0264750Y0197422D01*
X0265750Y0196422D01*
X0265750Y0182993D01*
X0265207Y0182449D01*
X0264750Y0181347D01*
X0264750Y0180153D01*
X0265207Y0179051D01*
X0265750Y0178507D01*
X0265750Y0154922D01*
X0275750Y0144922D01*
X0275750Y0140766D01*
X0274691Y0140328D01*
X0273172Y0138809D01*
X0272641Y0137526D01*
X0272569Y0137746D01*
X0272197Y0138475D01*
X0271716Y0139138D01*
X0271138Y0139716D01*
X0270475Y0140197D01*
X0269746Y0140569D01*
X0268968Y0140822D01*
X0268250Y0140936D01*
X0268250Y0136250D01*
X0267250Y0136250D01*
X0267250Y0140936D01*
X0266532Y0140822D01*
X0265754Y0140569D01*
X0265025Y0140197D01*
X0264362Y0139716D01*
X0263784Y0139138D01*
X0263303Y0138475D01*
X0262931Y0137746D01*
X0262678Y0136968D01*
X0262564Y0136250D01*
X0267250Y0136250D01*
X0267250Y0135250D01*
X0262564Y0135250D01*
X0262678Y0134532D01*
X0262931Y0133754D01*
X0263303Y0133025D01*
X0263429Y0132850D01*
X0250737Y0132850D01*
X0250986Y0134091D01*
X0249879Y0135752D01*
X0250986Y0137412D01*
X0250645Y0139118D01*
X0249197Y0140083D01*
X0247491Y0139742D01*
X0247355Y0139538D01*
X0247218Y0139742D01*
X0245512Y0140083D01*
X0244720Y0139555D01*
X0244321Y0139954D01*
X0242920Y0139954D01*
X0242582Y0139954D01*
X0242582Y0139954D01*
X0241180Y0139954D01*
X0241180Y0139954D01*
X0241166Y0139940D01*
X0240099Y0138872D01*
X0239881Y0139089D01*
X0239017Y0139954D01*
X0237277Y0139954D01*
X0236653Y0139330D01*
X0236047Y0138723D01*
X0236047Y0135750D01*
X0235876Y0135750D01*
X0234850Y0134724D01*
X0234850Y0215633D01*
X0235438Y0214615D01*
X0235438Y0214615D01*
X0237977Y0212484D01*
X0237977Y0212484D01*
X0241093Y0211350D01*
X0244407Y0211350D01*
X0247522Y0212484D01*
X0247523Y0212484D01*
X0250062Y0214615D01*
X0251719Y0217485D01*
X0251719Y0217485D01*
X0252295Y0220750D01*
X0251719Y0224015D01*
X0250062Y0226885D01*
X0247959Y0228650D01*
X0317541Y0228650D01*
X0315438Y0226885D01*
X0313781Y0224015D01*
X0313205Y0220750D01*
X0313781Y0217485D01*
X0315438Y0214615D01*
X0317977Y0212484D01*
X0317977Y0212484D01*
X0321093Y0211350D01*
X0324407Y0211350D01*
X0327522Y0212484D01*
X0327523Y0212484D01*
X0330062Y0214615D01*
X0330650Y0215633D01*
X0330650Y0136863D01*
X0329837Y0137200D01*
X0328663Y0137200D01*
X0327579Y0136751D01*
X0326749Y0135921D01*
X0326300Y0134837D01*
X0326300Y0133663D01*
X0326637Y0132850D01*
X0326329Y0133594D02*
X0302702Y0133594D01*
X0303115Y0134592D02*
X0326300Y0134592D01*
X0326612Y0135591D02*
X0303150Y0135591D01*
X0303150Y0136589D02*
X0327417Y0136589D01*
X0330650Y0137588D02*
X0302834Y0137588D01*
X0302420Y0138586D02*
X0330650Y0138586D01*
X0330650Y0139585D02*
X0301552Y0139585D01*
X0300192Y0140583D02*
X0330650Y0140583D01*
X0330650Y0141582D02*
X0299750Y0141582D01*
X0299750Y0142580D02*
X0330650Y0142580D01*
X0330650Y0143579D02*
X0299750Y0143579D01*
X0299750Y0144577D02*
X0330650Y0144577D01*
X0330650Y0145576D02*
X0299750Y0145576D01*
X0299750Y0146574D02*
X0330650Y0146574D01*
X0330650Y0147573D02*
X0299750Y0147573D01*
X0299750Y0148571D02*
X0330650Y0148571D01*
X0330650Y0149570D02*
X0299750Y0149570D01*
X0299750Y0150568D02*
X0330650Y0150568D01*
X0330650Y0151567D02*
X0299750Y0151567D01*
X0299750Y0152565D02*
X0330650Y0152565D01*
X0330650Y0153564D02*
X0299750Y0153564D01*
X0299750Y0154562D02*
X0330650Y0154562D01*
X0330650Y0155561D02*
X0299750Y0155561D01*
X0299750Y0156559D02*
X0330650Y0156559D01*
X0330650Y0157558D02*
X0299750Y0157558D01*
X0299750Y0158556D02*
X0330650Y0158556D01*
X0330650Y0159555D02*
X0299750Y0159555D01*
X0299750Y0160553D02*
X0330650Y0160553D01*
X0330650Y0161552D02*
X0299750Y0161552D01*
X0299750Y0162551D02*
X0330650Y0162551D01*
X0330650Y0163549D02*
X0299750Y0163549D01*
X0299750Y0164548D02*
X0330650Y0164548D01*
X0330650Y0165546D02*
X0299750Y0165546D01*
X0299750Y0166545D02*
X0330650Y0166545D01*
X0330650Y0167543D02*
X0298785Y0167543D01*
X0297787Y0168542D02*
X0330650Y0168542D01*
X0330650Y0169540D02*
X0296788Y0169540D01*
X0295790Y0170539D02*
X0330650Y0170539D01*
X0330650Y0171537D02*
X0294791Y0171537D01*
X0293793Y0172536D02*
X0330650Y0172536D01*
X0330650Y0173534D02*
X0288868Y0173534D01*
X0286632Y0173534D02*
X0269750Y0173534D01*
X0269750Y0172536D02*
X0285293Y0172536D01*
X0284829Y0171537D02*
X0269750Y0171537D01*
X0269750Y0170539D02*
X0284750Y0170539D01*
X0285004Y0169540D02*
X0269750Y0169540D01*
X0269750Y0168542D02*
X0285716Y0168542D01*
X0289784Y0168542D02*
X0292130Y0168542D01*
X0293128Y0167543D02*
X0269750Y0167543D01*
X0269750Y0166545D02*
X0294127Y0166545D01*
X0295126Y0165546D02*
X0269750Y0165546D01*
X0269750Y0164548D02*
X0295750Y0164548D01*
X0295750Y0163549D02*
X0269750Y0163549D01*
X0269750Y0162551D02*
X0295750Y0162551D01*
X0295750Y0161552D02*
X0269750Y0161552D01*
X0269750Y0160553D02*
X0295750Y0160553D01*
X0295750Y0159555D02*
X0269750Y0159555D01*
X0269750Y0158556D02*
X0295750Y0158556D01*
X0295750Y0157558D02*
X0269750Y0157558D01*
X0269769Y0156559D02*
X0295750Y0156559D01*
X0295750Y0155561D02*
X0270767Y0155561D01*
X0271766Y0154562D02*
X0295750Y0154562D01*
X0295750Y0153564D02*
X0272764Y0153564D01*
X0273763Y0152565D02*
X0295750Y0152565D01*
X0295750Y0151567D02*
X0274762Y0151567D01*
X0275760Y0150568D02*
X0295750Y0150568D01*
X0295750Y0149570D02*
X0276759Y0149570D01*
X0277757Y0148571D02*
X0295750Y0148571D01*
X0295750Y0147573D02*
X0278756Y0147573D01*
X0279750Y0146574D02*
X0295750Y0146574D01*
X0295750Y0145576D02*
X0279750Y0145576D01*
X0279750Y0144577D02*
X0295750Y0144577D01*
X0295750Y0143579D02*
X0279750Y0143579D01*
X0279750Y0142580D02*
X0295750Y0142580D01*
X0295750Y0141582D02*
X0279750Y0141582D01*
X0280192Y0140583D02*
X0285308Y0140583D01*
X0283948Y0139585D02*
X0281552Y0139585D01*
X0282420Y0138586D02*
X0283080Y0138586D01*
X0290192Y0140583D02*
X0295308Y0140583D01*
X0293948Y0139585D02*
X0291552Y0139585D01*
X0292420Y0138586D02*
X0293080Y0138586D01*
X0275750Y0141582D02*
X0234850Y0141582D01*
X0234850Y0142580D02*
X0275750Y0142580D01*
X0275750Y0143579D02*
X0234850Y0143579D01*
X0234850Y0144577D02*
X0275750Y0144577D01*
X0275096Y0145576D02*
X0234850Y0145576D01*
X0234850Y0146574D02*
X0274097Y0146574D01*
X0273099Y0147573D02*
X0234850Y0147573D01*
X0234850Y0148571D02*
X0272100Y0148571D01*
X0271102Y0149570D02*
X0234850Y0149570D01*
X0234850Y0150568D02*
X0270103Y0150568D01*
X0269105Y0151567D02*
X0234850Y0151567D01*
X0234850Y0152565D02*
X0268106Y0152565D01*
X0267108Y0153564D02*
X0234850Y0153564D01*
X0234850Y0154562D02*
X0266109Y0154562D01*
X0265750Y0155561D02*
X0234850Y0155561D01*
X0234850Y0156559D02*
X0265750Y0156559D01*
X0265750Y0157558D02*
X0234850Y0157558D01*
X0234850Y0158556D02*
X0265750Y0158556D01*
X0265750Y0159555D02*
X0234850Y0159555D01*
X0234850Y0160553D02*
X0265750Y0160553D01*
X0265750Y0161552D02*
X0234850Y0161552D01*
X0234850Y0162551D02*
X0265750Y0162551D01*
X0265750Y0163549D02*
X0234850Y0163549D01*
X0234850Y0164548D02*
X0265750Y0164548D01*
X0265750Y0165546D02*
X0234850Y0165546D01*
X0234850Y0166545D02*
X0265750Y0166545D01*
X0265750Y0167543D02*
X0234850Y0167543D01*
X0234850Y0168542D02*
X0265750Y0168542D01*
X0265750Y0169540D02*
X0234850Y0169540D01*
X0234850Y0170539D02*
X0265750Y0170539D01*
X0265750Y0171537D02*
X0234850Y0171537D01*
X0234850Y0172536D02*
X0265750Y0172536D01*
X0265750Y0173534D02*
X0234850Y0173534D01*
X0234850Y0174533D02*
X0265750Y0174533D01*
X0265750Y0175531D02*
X0234850Y0175531D01*
X0234850Y0176530D02*
X0265750Y0176530D01*
X0265750Y0177528D02*
X0234850Y0177528D01*
X0234850Y0178527D02*
X0265731Y0178527D01*
X0265010Y0179525D02*
X0234850Y0179525D01*
X0234850Y0180524D02*
X0264750Y0180524D01*
X0264823Y0181522D02*
X0234850Y0181522D01*
X0234850Y0182521D02*
X0265278Y0182521D01*
X0265750Y0183519D02*
X0234850Y0183519D01*
X0234850Y0184518D02*
X0265750Y0184518D01*
X0265750Y0185516D02*
X0234850Y0185516D01*
X0234850Y0186515D02*
X0265750Y0186515D01*
X0265750Y0187513D02*
X0234850Y0187513D01*
X0234850Y0188512D02*
X0265750Y0188512D01*
X0265750Y0189510D02*
X0234850Y0189510D01*
X0234850Y0190509D02*
X0265750Y0190509D01*
X0265750Y0191507D02*
X0234850Y0191507D01*
X0234850Y0192506D02*
X0265750Y0192506D01*
X0265750Y0193504D02*
X0234850Y0193504D01*
X0234850Y0194503D02*
X0265750Y0194503D01*
X0265750Y0195501D02*
X0234850Y0195501D01*
X0234850Y0196500D02*
X0265672Y0196500D01*
X0264750Y0197498D02*
X0234850Y0197498D01*
X0234850Y0198497D02*
X0264750Y0198497D01*
X0264750Y0199495D02*
X0234850Y0199495D01*
X0234850Y0200494D02*
X0264750Y0200494D01*
X0264750Y0201492D02*
X0234850Y0201492D01*
X0234850Y0202491D02*
X0264750Y0202491D01*
X0264750Y0203489D02*
X0234850Y0203489D01*
X0234850Y0204488D02*
X0264750Y0204488D01*
X0265658Y0205487D02*
X0234850Y0205487D01*
X0234850Y0206485D02*
X0266657Y0206485D01*
X0270229Y0197498D02*
X0270750Y0197498D01*
X0270750Y0196500D02*
X0269750Y0196500D01*
X0269750Y0195501D02*
X0270750Y0195501D01*
X0270750Y0194503D02*
X0269750Y0194503D01*
X0269750Y0193504D02*
X0270750Y0193504D01*
X0270750Y0192506D02*
X0269750Y0192506D01*
X0269750Y0191507D02*
X0270750Y0191507D01*
X0270750Y0190509D02*
X0269750Y0190509D01*
X0269750Y0189510D02*
X0271161Y0189510D01*
X0272160Y0188512D02*
X0269750Y0188512D01*
X0269750Y0187513D02*
X0273158Y0187513D01*
X0274157Y0186515D02*
X0269750Y0186515D01*
X0269750Y0185516D02*
X0303510Y0185516D01*
X0305990Y0185516D02*
X0330650Y0185516D01*
X0330650Y0184518D02*
X0269750Y0184518D01*
X0269750Y0183519D02*
X0296596Y0183519D01*
X0298904Y0183519D02*
X0330650Y0183519D01*
X0330650Y0182521D02*
X0300222Y0182521D01*
X0300677Y0181522D02*
X0330650Y0181522D01*
X0330650Y0180524D02*
X0300750Y0180524D01*
X0300490Y0179525D02*
X0330650Y0179525D01*
X0330650Y0178527D02*
X0299769Y0178527D01*
X0295731Y0178527D02*
X0269769Y0178527D01*
X0269750Y0177528D02*
X0330650Y0177528D01*
X0330650Y0176530D02*
X0269750Y0176530D01*
X0269750Y0175531D02*
X0330650Y0175531D01*
X0330650Y0174533D02*
X0269750Y0174533D01*
X0275820Y0190509D02*
X0302766Y0190509D01*
X0306734Y0190509D02*
X0330650Y0190509D01*
X0330650Y0191507D02*
X0274821Y0191507D01*
X0274750Y0192506D02*
X0275840Y0192506D01*
X0275800Y0193504D02*
X0274750Y0193504D01*
X0274750Y0194503D02*
X0275800Y0194503D01*
X0275800Y0195501D02*
X0274750Y0195501D01*
X0274750Y0196500D02*
X0275800Y0196500D01*
X0275800Y0197498D02*
X0274750Y0197498D01*
X0274750Y0198497D02*
X0275800Y0198497D01*
X0275478Y0199495D02*
X0276341Y0199495D01*
X0276750Y0200494D02*
X0275750Y0200494D01*
X0278750Y0195750D02*
X0282750Y0195750D01*
X0286750Y0195750D01*
X0289700Y0193504D02*
X0330650Y0193504D01*
X0330650Y0192506D02*
X0289660Y0192506D01*
X0291524Y0194503D02*
X0330650Y0194503D01*
X0330650Y0195501D02*
X0292523Y0195501D01*
X0293521Y0196500D02*
X0330650Y0196500D01*
X0330650Y0197498D02*
X0294520Y0197498D01*
X0295518Y0198497D02*
X0330650Y0198497D01*
X0330650Y0199495D02*
X0297931Y0199495D01*
X0298760Y0200494D02*
X0330650Y0200494D01*
X0330650Y0201492D02*
X0299096Y0201492D01*
X0299096Y0202491D02*
X0330650Y0202491D01*
X0330650Y0203489D02*
X0298687Y0203489D01*
X0297696Y0204488D02*
X0330650Y0204488D01*
X0330650Y0205487D02*
X0283842Y0205487D01*
X0284750Y0204488D02*
X0294497Y0204488D01*
X0293506Y0203489D02*
X0284750Y0203489D01*
X0284750Y0202491D02*
X0293096Y0202491D01*
X0292857Y0201492D02*
X0284750Y0201492D01*
X0284750Y0200494D02*
X0291858Y0200494D01*
X0290860Y0199495D02*
X0289159Y0199495D01*
X0289700Y0198497D02*
X0289861Y0198497D01*
X0282843Y0206485D02*
X0330650Y0206485D01*
X0330650Y0207484D02*
X0234850Y0207484D01*
X0234850Y0208482D02*
X0330650Y0208482D01*
X0330650Y0209481D02*
X0234850Y0209481D01*
X0234850Y0210479D02*
X0330650Y0210479D01*
X0330650Y0211478D02*
X0324758Y0211478D01*
X0327501Y0212476D02*
X0330650Y0212476D01*
X0330650Y0213475D02*
X0328703Y0213475D01*
X0329893Y0214473D02*
X0330650Y0214473D01*
X0330062Y0214615D02*
X0330062Y0214615D01*
X0330062Y0214615D01*
X0330557Y0215472D02*
X0330650Y0215472D01*
X0320742Y0211478D02*
X0244758Y0211478D01*
X0247501Y0212476D02*
X0317999Y0212476D01*
X0316797Y0213475D02*
X0248703Y0213475D01*
X0249893Y0214473D02*
X0315607Y0214473D01*
X0314943Y0215472D02*
X0250557Y0215472D01*
X0250062Y0214615D02*
X0250062Y0214615D01*
X0250062Y0214615D01*
X0251133Y0216470D02*
X0314367Y0216470D01*
X0313790Y0217469D02*
X0251710Y0217469D01*
X0251892Y0218467D02*
X0313608Y0218467D01*
X0313431Y0219466D02*
X0252069Y0219466D01*
X0252245Y0220464D02*
X0313255Y0220464D01*
X0313205Y0220750D02*
X0313205Y0220750D01*
X0313331Y0221463D02*
X0252169Y0221463D01*
X0252295Y0220750D02*
X0252295Y0220750D01*
X0251993Y0222461D02*
X0313507Y0222461D01*
X0313683Y0223460D02*
X0251817Y0223460D01*
X0251719Y0224015D02*
X0251719Y0224015D01*
X0251463Y0224458D02*
X0314037Y0224458D01*
X0313781Y0224015D02*
X0313781Y0224015D01*
X0314613Y0225457D02*
X0250887Y0225457D01*
X0250310Y0226455D02*
X0315190Y0226455D01*
X0315438Y0226885D02*
X0315438Y0226885D01*
X0315438Y0226885D01*
X0316115Y0227454D02*
X0249385Y0227454D01*
X0248195Y0228452D02*
X0317305Y0228452D01*
X0326637Y0234850D02*
X0302394Y0234850D01*
X0303150Y0236676D01*
X0303150Y0238824D01*
X0302328Y0240809D01*
X0300809Y0242328D01*
X0299750Y0242766D01*
X0299750Y0268578D01*
X0298578Y0269750D01*
X0293578Y0274750D01*
X0289993Y0274750D01*
X0289449Y0275293D01*
X0288347Y0275750D01*
X0287153Y0275750D01*
X0286051Y0275293D01*
X0285207Y0274449D01*
X0284750Y0273347D01*
X0284750Y0272153D01*
X0285207Y0271051D01*
X0286051Y0270207D01*
X0287153Y0269750D01*
X0288347Y0269750D01*
X0289449Y0270207D01*
X0289993Y0270750D01*
X0291922Y0270750D01*
X0295750Y0266922D01*
X0295750Y0242766D01*
X0294691Y0242328D01*
X0293172Y0240809D01*
X0292750Y0239790D01*
X0292328Y0240809D01*
X0290809Y0242328D01*
X0288824Y0243150D01*
X0286676Y0243150D01*
X0284691Y0242328D01*
X0283172Y0240809D01*
X0282750Y0239790D01*
X0282328Y0240809D01*
X0280809Y0242328D01*
X0279750Y0242766D01*
X0279750Y0248578D01*
X0278578Y0249750D01*
X0269750Y0258578D01*
X0269750Y0280507D01*
X0269993Y0280750D01*
X0295507Y0280750D01*
X0296051Y0280207D01*
X0297153Y0279750D01*
X0298347Y0279750D01*
X0299449Y0280207D01*
X0300293Y0281051D01*
X0300750Y0282153D01*
X0300750Y0283347D01*
X0300293Y0284449D01*
X0299449Y0285293D01*
X0298347Y0285750D01*
X0297153Y0285750D01*
X0296051Y0285293D01*
X0295507Y0284750D01*
X0269993Y0284750D01*
X0269750Y0284993D01*
X0269750Y0299404D01*
X0270000Y0299404D01*
X0270750Y0299714D01*
X0270750Y0291922D01*
X0271922Y0290750D01*
X0274422Y0288250D01*
X0302507Y0288250D01*
X0303051Y0287707D01*
X0304153Y0287250D01*
X0305347Y0287250D01*
X0306449Y0287707D01*
X0307293Y0288551D01*
X0307750Y0289653D01*
X0307750Y0290847D01*
X0307293Y0291949D01*
X0306449Y0292793D01*
X0305347Y0293250D01*
X0304153Y0293250D01*
X0303051Y0292793D01*
X0302507Y0292250D01*
X0276078Y0292250D01*
X0274750Y0293578D01*
X0274750Y0300507D01*
X0275293Y0301051D01*
X0275750Y0302153D01*
X0275750Y0303250D01*
X0276750Y0303250D01*
X0276750Y0301904D01*
X0275800Y0300954D01*
X0275800Y0294546D01*
X0276796Y0293550D01*
X0280704Y0293550D01*
X0280750Y0293596D01*
X0280796Y0293550D01*
X0284704Y0293550D01*
X0284750Y0293596D01*
X0284796Y0293550D01*
X0288704Y0293550D01*
X0289700Y0294546D01*
X0289700Y0295750D01*
X0290771Y0295750D01*
X0295925Y0300904D01*
X0296693Y0300904D01*
X0297796Y0301360D01*
X0298640Y0302204D01*
X0299096Y0303307D01*
X0299096Y0304500D01*
X0298640Y0305603D01*
X0297796Y0306447D01*
X0296693Y0306904D01*
X0295500Y0306904D01*
X0294397Y0306447D01*
X0293553Y0305603D01*
X0293096Y0304500D01*
X0293096Y0303732D01*
X0289700Y0300335D01*
X0289700Y0300954D01*
X0288704Y0301950D01*
X0284796Y0301950D01*
X0284750Y0301904D01*
X0284750Y0301904D01*
X0284750Y0306578D01*
X0283250Y0308078D01*
X0283250Y0308078D01*
X0282078Y0309250D01*
X0267422Y0309250D01*
X0266250Y0308078D01*
X0264750Y0306578D01*
X0264750Y0299422D01*
X0265750Y0298422D01*
X0265750Y0284993D01*
X0265207Y0284449D01*
X0264750Y0283347D01*
X0264750Y0282153D01*
X0265207Y0281051D01*
X0265750Y0280507D01*
X0265750Y0256922D01*
X0275750Y0246922D01*
X0275750Y0242766D01*
X0274691Y0242328D01*
X0273172Y0240809D01*
X0272641Y0239526D01*
X0272569Y0239746D01*
X0272197Y0240475D01*
X0271716Y0241138D01*
X0271138Y0241716D01*
X0270475Y0242197D01*
X0269746Y0242569D01*
X0268968Y0242822D01*
X0268250Y0242936D01*
X0268250Y0238250D01*
X0267250Y0238250D01*
X0267250Y0242936D01*
X0266532Y0242822D01*
X0265754Y0242569D01*
X0265025Y0242197D01*
X0264362Y0241716D01*
X0263784Y0241138D01*
X0263303Y0240475D01*
X0262931Y0239746D01*
X0262678Y0238968D01*
X0262564Y0238250D01*
X0267250Y0238250D01*
X0267250Y0237250D01*
X0262564Y0237250D01*
X0262678Y0236532D01*
X0262931Y0235754D01*
X0263303Y0235025D01*
X0263429Y0234850D01*
X0250737Y0234850D01*
X0250986Y0236091D01*
X0249879Y0237752D01*
X0250986Y0239412D01*
X0250645Y0241118D01*
X0249197Y0242083D01*
X0247491Y0241742D01*
X0247355Y0241538D01*
X0247218Y0241742D01*
X0245512Y0242083D01*
X0244720Y0241555D01*
X0244321Y0241954D01*
X0242920Y0241954D01*
X0242742Y0241954D01*
X0242582Y0241954D01*
X0242582Y0241954D01*
X0241180Y0241954D01*
X0241180Y0241954D01*
X0241166Y0241940D01*
X0240099Y0240872D01*
X0239881Y0241089D01*
X0239017Y0241954D01*
X0237277Y0241954D01*
X0236653Y0241330D01*
X0236047Y0240723D01*
X0236047Y0237750D01*
X0235876Y0237750D01*
X0234850Y0236724D01*
X0234850Y0317633D01*
X0235438Y0316615D01*
X0235438Y0316615D01*
X0237977Y0314484D01*
X0237977Y0314484D01*
X0241093Y0313350D01*
X0244407Y0313350D01*
X0247522Y0314484D01*
X0247523Y0314484D01*
X0250062Y0316615D01*
X0251719Y0319485D01*
X0251719Y0319485D01*
X0252295Y0322750D01*
X0251719Y0326015D01*
X0250062Y0328885D01*
X0250062Y0328885D01*
X0247959Y0330650D01*
X0317541Y0330650D01*
X0315438Y0328885D01*
X0313781Y0326015D01*
X0313205Y0322750D01*
X0313205Y0322750D01*
X0313781Y0319485D01*
X0315438Y0316615D01*
X0315438Y0316615D01*
X0317977Y0314484D01*
X0317977Y0314484D01*
X0321093Y0313350D01*
X0324407Y0313350D01*
X0327522Y0314484D01*
X0327523Y0314484D01*
X0330062Y0316615D01*
X0330650Y0317633D01*
X0330650Y0238863D01*
X0329837Y0239200D01*
X0328663Y0239200D01*
X0327579Y0238751D01*
X0326749Y0237921D01*
X0326300Y0236837D01*
X0326300Y0235663D01*
X0326637Y0234850D01*
X0326392Y0235442D02*
X0302639Y0235442D01*
X0303052Y0236440D02*
X0326300Y0236440D01*
X0326549Y0237439D02*
X0303150Y0237439D01*
X0303150Y0238437D02*
X0327265Y0238437D01*
X0330650Y0239436D02*
X0302897Y0239436D01*
X0302483Y0240434D02*
X0330650Y0240434D01*
X0330650Y0241433D02*
X0301704Y0241433D01*
X0300559Y0242431D02*
X0330650Y0242431D01*
X0330650Y0243430D02*
X0299750Y0243430D01*
X0299750Y0244428D02*
X0330650Y0244428D01*
X0330650Y0245427D02*
X0299750Y0245427D01*
X0299750Y0246425D02*
X0330650Y0246425D01*
X0330650Y0247424D02*
X0299750Y0247424D01*
X0299750Y0248422D02*
X0330650Y0248422D01*
X0330650Y0249421D02*
X0299750Y0249421D01*
X0299750Y0250420D02*
X0330650Y0250420D01*
X0330650Y0251418D02*
X0299750Y0251418D01*
X0299750Y0252417D02*
X0330650Y0252417D01*
X0330650Y0253415D02*
X0299750Y0253415D01*
X0299750Y0254414D02*
X0330650Y0254414D01*
X0330650Y0255412D02*
X0299750Y0255412D01*
X0299750Y0256411D02*
X0330650Y0256411D01*
X0330650Y0257409D02*
X0299750Y0257409D01*
X0299750Y0258408D02*
X0330650Y0258408D01*
X0330650Y0259406D02*
X0299750Y0259406D01*
X0299750Y0260405D02*
X0330650Y0260405D01*
X0330650Y0261403D02*
X0299750Y0261403D01*
X0299750Y0262402D02*
X0330650Y0262402D01*
X0330650Y0263400D02*
X0299750Y0263400D01*
X0299750Y0264399D02*
X0330650Y0264399D01*
X0330650Y0265397D02*
X0299750Y0265397D01*
X0299750Y0266396D02*
X0330650Y0266396D01*
X0330650Y0267394D02*
X0299750Y0267394D01*
X0299750Y0268393D02*
X0330650Y0268393D01*
X0330650Y0269391D02*
X0298937Y0269391D01*
X0297939Y0270390D02*
X0330650Y0270390D01*
X0330650Y0271388D02*
X0296940Y0271388D01*
X0295942Y0272387D02*
X0330650Y0272387D01*
X0330650Y0273385D02*
X0294943Y0273385D01*
X0293945Y0274384D02*
X0330650Y0274384D01*
X0330650Y0275382D02*
X0289234Y0275382D01*
X0286266Y0275382D02*
X0269750Y0275382D01*
X0269750Y0274384D02*
X0285180Y0274384D01*
X0284766Y0273385D02*
X0269750Y0273385D01*
X0269750Y0272387D02*
X0284750Y0272387D01*
X0285067Y0271388D02*
X0269750Y0271388D01*
X0269750Y0270390D02*
X0285868Y0270390D01*
X0289632Y0270390D02*
X0292282Y0270390D01*
X0293280Y0269391D02*
X0269750Y0269391D01*
X0269750Y0268393D02*
X0294279Y0268393D01*
X0295277Y0267394D02*
X0269750Y0267394D01*
X0269750Y0266396D02*
X0295750Y0266396D01*
X0295750Y0265397D02*
X0269750Y0265397D01*
X0269750Y0264399D02*
X0295750Y0264399D01*
X0295750Y0263400D02*
X0269750Y0263400D01*
X0269750Y0262402D02*
X0295750Y0262402D01*
X0295750Y0261403D02*
X0269750Y0261403D01*
X0269750Y0260405D02*
X0295750Y0260405D01*
X0295750Y0259406D02*
X0269750Y0259406D01*
X0269921Y0258408D02*
X0295750Y0258408D01*
X0295750Y0257409D02*
X0270919Y0257409D01*
X0271918Y0256411D02*
X0295750Y0256411D01*
X0295750Y0255412D02*
X0272916Y0255412D01*
X0273915Y0254414D02*
X0295750Y0254414D01*
X0295750Y0253415D02*
X0274913Y0253415D01*
X0275912Y0252417D02*
X0295750Y0252417D01*
X0295750Y0251418D02*
X0276910Y0251418D01*
X0277909Y0250420D02*
X0295750Y0250420D01*
X0295750Y0249421D02*
X0278907Y0249421D01*
X0279750Y0248422D02*
X0295750Y0248422D01*
X0295750Y0247424D02*
X0279750Y0247424D01*
X0279750Y0246425D02*
X0295750Y0246425D01*
X0295750Y0245427D02*
X0279750Y0245427D01*
X0279750Y0244428D02*
X0295750Y0244428D01*
X0295750Y0243430D02*
X0279750Y0243430D01*
X0280559Y0242431D02*
X0284941Y0242431D01*
X0283796Y0241433D02*
X0281704Y0241433D01*
X0282483Y0240434D02*
X0283017Y0240434D01*
X0290559Y0242431D02*
X0294941Y0242431D01*
X0293796Y0241433D02*
X0291704Y0241433D01*
X0292483Y0240434D02*
X0293017Y0240434D01*
X0275750Y0243430D02*
X0234850Y0243430D01*
X0234850Y0244428D02*
X0275750Y0244428D01*
X0275750Y0245427D02*
X0234850Y0245427D01*
X0234850Y0246425D02*
X0275750Y0246425D01*
X0275248Y0247424D02*
X0234850Y0247424D01*
X0234850Y0248422D02*
X0274249Y0248422D01*
X0273251Y0249421D02*
X0234850Y0249421D01*
X0234850Y0250420D02*
X0272252Y0250420D01*
X0271254Y0251418D02*
X0234850Y0251418D01*
X0234850Y0252417D02*
X0270255Y0252417D01*
X0269257Y0253415D02*
X0234850Y0253415D01*
X0234850Y0254414D02*
X0268258Y0254414D01*
X0267259Y0255412D02*
X0234850Y0255412D01*
X0234850Y0256411D02*
X0266261Y0256411D01*
X0265750Y0257409D02*
X0234850Y0257409D01*
X0234850Y0258408D02*
X0265750Y0258408D01*
X0265750Y0259406D02*
X0234850Y0259406D01*
X0234850Y0260405D02*
X0265750Y0260405D01*
X0265750Y0261403D02*
X0234850Y0261403D01*
X0234850Y0262402D02*
X0265750Y0262402D01*
X0265750Y0263400D02*
X0234850Y0263400D01*
X0234850Y0264399D02*
X0265750Y0264399D01*
X0265750Y0265397D02*
X0234850Y0265397D01*
X0234850Y0266396D02*
X0265750Y0266396D01*
X0265750Y0267394D02*
X0234850Y0267394D01*
X0234850Y0268393D02*
X0265750Y0268393D01*
X0265750Y0269391D02*
X0234850Y0269391D01*
X0234850Y0270390D02*
X0265750Y0270390D01*
X0265750Y0271388D02*
X0234850Y0271388D01*
X0234850Y0272387D02*
X0265750Y0272387D01*
X0265750Y0273385D02*
X0234850Y0273385D01*
X0234850Y0274384D02*
X0265750Y0274384D01*
X0265750Y0275382D02*
X0234850Y0275382D01*
X0234850Y0276381D02*
X0265750Y0276381D01*
X0265750Y0277379D02*
X0234850Y0277379D01*
X0234850Y0278378D02*
X0265750Y0278378D01*
X0265750Y0279376D02*
X0234850Y0279376D01*
X0234850Y0280375D02*
X0265750Y0280375D01*
X0265073Y0281373D02*
X0234850Y0281373D01*
X0234850Y0282372D02*
X0264750Y0282372D01*
X0264760Y0283370D02*
X0234850Y0283370D01*
X0234850Y0284369D02*
X0265173Y0284369D01*
X0265750Y0285367D02*
X0234850Y0285367D01*
X0234850Y0286366D02*
X0265750Y0286366D01*
X0265750Y0287364D02*
X0234850Y0287364D01*
X0234850Y0288363D02*
X0265750Y0288363D01*
X0265750Y0289361D02*
X0234850Y0289361D01*
X0234850Y0290360D02*
X0265750Y0290360D01*
X0265750Y0291358D02*
X0234850Y0291358D01*
X0234850Y0292357D02*
X0265750Y0292357D01*
X0265750Y0293355D02*
X0234850Y0293355D01*
X0234850Y0294354D02*
X0265750Y0294354D01*
X0265750Y0295353D02*
X0234850Y0295353D01*
X0234850Y0296351D02*
X0265750Y0296351D01*
X0265750Y0297350D02*
X0234850Y0297350D01*
X0234850Y0298348D02*
X0265750Y0298348D01*
X0264825Y0299347D02*
X0234850Y0299347D01*
X0234850Y0300345D02*
X0264750Y0300345D01*
X0264750Y0301344D02*
X0234850Y0301344D01*
X0234850Y0302342D02*
X0264750Y0302342D01*
X0264750Y0303341D02*
X0234850Y0303341D01*
X0234850Y0304339D02*
X0264750Y0304339D01*
X0264750Y0305338D02*
X0234850Y0305338D01*
X0234850Y0306336D02*
X0264750Y0306336D01*
X0265506Y0307335D02*
X0234850Y0307335D01*
X0234850Y0308333D02*
X0266505Y0308333D01*
X0269750Y0299347D02*
X0270750Y0299347D01*
X0270750Y0298348D02*
X0269750Y0298348D01*
X0269750Y0297350D02*
X0270750Y0297350D01*
X0270750Y0296351D02*
X0269750Y0296351D01*
X0269750Y0295353D02*
X0270750Y0295353D01*
X0270750Y0294354D02*
X0269750Y0294354D01*
X0269750Y0293355D02*
X0270750Y0293355D01*
X0270750Y0292357D02*
X0269750Y0292357D01*
X0269750Y0291358D02*
X0271313Y0291358D01*
X0272312Y0290360D02*
X0269750Y0290360D01*
X0269750Y0289361D02*
X0273310Y0289361D01*
X0274309Y0288363D02*
X0269750Y0288363D01*
X0269750Y0287364D02*
X0303877Y0287364D01*
X0305623Y0287364D02*
X0330650Y0287364D01*
X0330650Y0286366D02*
X0269750Y0286366D01*
X0269750Y0285367D02*
X0296230Y0285367D01*
X0299270Y0285367D02*
X0330650Y0285367D01*
X0330650Y0284369D02*
X0300327Y0284369D01*
X0300740Y0283370D02*
X0330650Y0283370D01*
X0330650Y0282372D02*
X0300750Y0282372D01*
X0300427Y0281373D02*
X0330650Y0281373D01*
X0330650Y0280375D02*
X0299617Y0280375D01*
X0295882Y0280375D02*
X0269750Y0280375D01*
X0269750Y0279376D02*
X0330650Y0279376D01*
X0330650Y0278378D02*
X0269750Y0278378D01*
X0269750Y0277379D02*
X0330650Y0277379D01*
X0330650Y0276381D02*
X0269750Y0276381D01*
X0275971Y0292357D02*
X0302614Y0292357D01*
X0306886Y0292357D02*
X0330650Y0292357D01*
X0330650Y0293355D02*
X0274973Y0293355D01*
X0274750Y0294354D02*
X0275992Y0294354D01*
X0275800Y0295353D02*
X0274750Y0295353D01*
X0274750Y0296351D02*
X0275800Y0296351D01*
X0275800Y0297350D02*
X0274750Y0297350D01*
X0274750Y0298348D02*
X0275800Y0298348D01*
X0275800Y0299347D02*
X0274750Y0299347D01*
X0274750Y0300345D02*
X0275800Y0300345D01*
X0275415Y0301344D02*
X0276189Y0301344D01*
X0275750Y0302342D02*
X0276750Y0302342D01*
X0278750Y0297750D02*
X0282750Y0297750D01*
X0286750Y0297750D01*
X0289700Y0295353D02*
X0330650Y0295353D01*
X0330650Y0296351D02*
X0291372Y0296351D01*
X0292371Y0297350D02*
X0330650Y0297350D01*
X0330650Y0298348D02*
X0293369Y0298348D01*
X0294368Y0299347D02*
X0330650Y0299347D01*
X0330650Y0300345D02*
X0295366Y0300345D01*
X0297756Y0301344D02*
X0330650Y0301344D01*
X0330650Y0302342D02*
X0298697Y0302342D01*
X0299096Y0303341D02*
X0330650Y0303341D01*
X0330650Y0304339D02*
X0299096Y0304339D01*
X0298750Y0305338D02*
X0330650Y0305338D01*
X0330650Y0306336D02*
X0297906Y0306336D01*
X0294286Y0306336D02*
X0284750Y0306336D01*
X0284750Y0305338D02*
X0293443Y0305338D01*
X0293096Y0304339D02*
X0284750Y0304339D01*
X0284750Y0303341D02*
X0292705Y0303341D01*
X0291707Y0302342D02*
X0284750Y0302342D01*
X0289311Y0301344D02*
X0290708Y0301344D01*
X0289710Y0300345D02*
X0289700Y0300345D01*
X0289508Y0294354D02*
X0330650Y0294354D01*
X0330650Y0291358D02*
X0307538Y0291358D01*
X0307750Y0290360D02*
X0330650Y0290360D01*
X0330650Y0289361D02*
X0307629Y0289361D01*
X0307106Y0288363D02*
X0330650Y0288363D01*
X0330650Y0307335D02*
X0283994Y0307335D01*
X0282995Y0308333D02*
X0330650Y0308333D01*
X0330650Y0309332D02*
X0234850Y0309332D01*
X0234850Y0310330D02*
X0330650Y0310330D01*
X0330650Y0311329D02*
X0234850Y0311329D01*
X0234850Y0312327D02*
X0330650Y0312327D01*
X0330650Y0313326D02*
X0234850Y0313326D01*
X0234850Y0314324D02*
X0238416Y0314324D01*
X0236978Y0315323D02*
X0234850Y0315323D01*
X0234850Y0316321D02*
X0235788Y0316321D01*
X0235031Y0317320D02*
X0234850Y0317320D01*
X0228650Y0317320D02*
X0228469Y0317320D01*
X0228650Y0317633D02*
X0228650Y0238863D01*
X0227837Y0239200D01*
X0226663Y0239200D01*
X0225579Y0238751D01*
X0224749Y0237921D01*
X0224300Y0236837D01*
X0224300Y0235663D01*
X0224637Y0234850D01*
X0200394Y0234850D01*
X0201150Y0236676D01*
X0201150Y0238824D01*
X0200328Y0240809D01*
X0198809Y0242328D01*
X0197750Y0242766D01*
X0197750Y0268578D01*
X0196578Y0269750D01*
X0191578Y0274750D01*
X0187993Y0274750D01*
X0187449Y0275293D01*
X0186347Y0275750D01*
X0185153Y0275750D01*
X0184051Y0275293D01*
X0183207Y0274449D01*
X0182750Y0273347D01*
X0182750Y0272153D01*
X0183207Y0271051D01*
X0184051Y0270207D01*
X0185153Y0269750D01*
X0186347Y0269750D01*
X0187449Y0270207D01*
X0187993Y0270750D01*
X0189922Y0270750D01*
X0193750Y0266922D01*
X0193750Y0242766D01*
X0192691Y0242328D01*
X0191172Y0240809D01*
X0190750Y0239790D01*
X0190328Y0240809D01*
X0188809Y0242328D01*
X0186824Y0243150D01*
X0184676Y0243150D01*
X0182691Y0242328D01*
X0181172Y0240809D01*
X0180750Y0239790D01*
X0180328Y0240809D01*
X0178809Y0242328D01*
X0177750Y0242766D01*
X0177750Y0248578D01*
X0176578Y0249750D01*
X0167750Y0258578D01*
X0167750Y0280507D01*
X0167993Y0280750D01*
X0193507Y0280750D01*
X0194051Y0280207D01*
X0195153Y0279750D01*
X0196347Y0279750D01*
X0197449Y0280207D01*
X0198293Y0281051D01*
X0198750Y0282153D01*
X0198750Y0283347D01*
X0198293Y0284449D01*
X0197449Y0285293D01*
X0196347Y0285750D01*
X0195153Y0285750D01*
X0194051Y0285293D01*
X0193507Y0284750D01*
X0167993Y0284750D01*
X0167750Y0284993D01*
X0167750Y0299404D01*
X0168000Y0299404D01*
X0168750Y0299714D01*
X0168750Y0291922D01*
X0169922Y0290750D01*
X0172422Y0288250D01*
X0200507Y0288250D01*
X0201051Y0287707D01*
X0202153Y0287250D01*
X0203347Y0287250D01*
X0204449Y0287707D01*
X0205293Y0288551D01*
X0205750Y0289653D01*
X0205750Y0290847D01*
X0205293Y0291949D01*
X0204449Y0292793D01*
X0203347Y0293250D01*
X0202153Y0293250D01*
X0201051Y0292793D01*
X0200507Y0292250D01*
X0174078Y0292250D01*
X0172750Y0293578D01*
X0172750Y0300507D01*
X0173293Y0301051D01*
X0173750Y0302153D01*
X0173750Y0303250D01*
X0174750Y0303250D01*
X0174750Y0301904D01*
X0173800Y0300954D01*
X0173800Y0294546D01*
X0174796Y0293550D01*
X0178704Y0293550D01*
X0178750Y0293596D01*
X0178796Y0293550D01*
X0182704Y0293550D01*
X0182750Y0293596D01*
X0182796Y0293550D01*
X0186704Y0293550D01*
X0187700Y0294546D01*
X0187700Y0295750D01*
X0188771Y0295750D01*
X0193925Y0300904D01*
X0194693Y0300904D01*
X0195796Y0301360D01*
X0196640Y0302204D01*
X0197096Y0303307D01*
X0197096Y0304500D01*
X0196640Y0305603D01*
X0195796Y0306447D01*
X0194693Y0306904D01*
X0193500Y0306904D01*
X0192397Y0306447D01*
X0191553Y0305603D01*
X0191096Y0304500D01*
X0191096Y0303732D01*
X0187700Y0300335D01*
X0187700Y0300954D01*
X0186704Y0301950D01*
X0182796Y0301950D01*
X0182750Y0301904D01*
X0182750Y0301904D01*
X0182750Y0306578D01*
X0181250Y0308078D01*
X0181250Y0308078D01*
X0180078Y0309250D01*
X0165422Y0309250D01*
X0164250Y0308078D01*
X0162750Y0306578D01*
X0162750Y0299422D01*
X0163750Y0298422D01*
X0163750Y0284993D01*
X0163207Y0284449D01*
X0162750Y0283347D01*
X0162750Y0282153D01*
X0163207Y0281051D01*
X0163750Y0280507D01*
X0163750Y0256922D01*
X0173750Y0246922D01*
X0173750Y0242766D01*
X0172691Y0242328D01*
X0171172Y0240809D01*
X0170641Y0239526D01*
X0170569Y0239746D01*
X0170197Y0240475D01*
X0169716Y0241138D01*
X0169138Y0241716D01*
X0168475Y0242197D01*
X0167746Y0242569D01*
X0166968Y0242822D01*
X0166250Y0242936D01*
X0166250Y0238250D01*
X0165250Y0238250D01*
X0165250Y0242936D01*
X0164532Y0242822D01*
X0163754Y0242569D01*
X0163025Y0242197D01*
X0162362Y0241716D01*
X0161784Y0241138D01*
X0161303Y0240475D01*
X0160931Y0239746D01*
X0160678Y0238968D01*
X0160564Y0238250D01*
X0165250Y0238250D01*
X0165250Y0237250D01*
X0160564Y0237250D01*
X0160678Y0236532D01*
X0160931Y0235754D01*
X0161303Y0235025D01*
X0161429Y0234850D01*
X0148737Y0234850D01*
X0148986Y0236091D01*
X0147879Y0237752D01*
X0148986Y0239412D01*
X0148645Y0241118D01*
X0147197Y0242083D01*
X0145491Y0241742D01*
X0145355Y0241538D01*
X0145218Y0241742D01*
X0143512Y0242083D01*
X0142720Y0241555D01*
X0142321Y0241954D01*
X0140920Y0241954D01*
X0140582Y0241954D01*
X0140582Y0241954D01*
X0139180Y0241954D01*
X0139180Y0241954D01*
X0139166Y0241940D01*
X0138099Y0240872D01*
X0137881Y0241089D01*
X0137017Y0241954D01*
X0135277Y0241954D01*
X0134653Y0241330D01*
X0134047Y0240723D01*
X0134047Y0237750D01*
X0133876Y0237750D01*
X0132850Y0236724D01*
X0132850Y0317633D01*
X0133438Y0316615D01*
X0133438Y0316615D01*
X0135977Y0314484D01*
X0135977Y0314484D01*
X0139093Y0313350D01*
X0142407Y0313350D01*
X0145522Y0314484D01*
X0145523Y0314484D01*
X0148062Y0316615D01*
X0149719Y0319485D01*
X0149719Y0319485D01*
X0150295Y0322750D01*
X0149719Y0326015D01*
X0148062Y0328885D01*
X0148062Y0328885D01*
X0145959Y0330650D01*
X0215541Y0330650D01*
X0213438Y0328885D01*
X0211781Y0326015D01*
X0211205Y0322750D01*
X0211205Y0322750D01*
X0211781Y0319485D01*
X0213438Y0316615D01*
X0213438Y0316615D01*
X0215977Y0314484D01*
X0215977Y0314484D01*
X0219093Y0313350D01*
X0222407Y0313350D01*
X0225522Y0314484D01*
X0225523Y0314484D01*
X0228062Y0316615D01*
X0228650Y0317633D01*
X0228062Y0316615D02*
X0228062Y0316615D01*
X0228062Y0316615D01*
X0227712Y0316321D02*
X0228650Y0316321D01*
X0228650Y0315323D02*
X0226522Y0315323D01*
X0225084Y0314324D02*
X0228650Y0314324D01*
X0228650Y0313326D02*
X0132850Y0313326D01*
X0132850Y0314324D02*
X0136416Y0314324D01*
X0134978Y0315323D02*
X0132850Y0315323D01*
X0132850Y0316321D02*
X0133788Y0316321D01*
X0133031Y0317320D02*
X0132850Y0317320D01*
X0132850Y0312327D02*
X0228650Y0312327D01*
X0228650Y0311329D02*
X0132850Y0311329D01*
X0132850Y0310330D02*
X0228650Y0310330D01*
X0228650Y0309332D02*
X0132850Y0309332D01*
X0132850Y0308333D02*
X0164505Y0308333D01*
X0163506Y0307335D02*
X0132850Y0307335D01*
X0132850Y0306336D02*
X0162750Y0306336D01*
X0162750Y0305338D02*
X0132850Y0305338D01*
X0132850Y0304339D02*
X0162750Y0304339D01*
X0162750Y0303341D02*
X0132850Y0303341D01*
X0132850Y0302342D02*
X0162750Y0302342D01*
X0162750Y0301344D02*
X0132850Y0301344D01*
X0132850Y0300345D02*
X0162750Y0300345D01*
X0162825Y0299347D02*
X0132850Y0299347D01*
X0132850Y0298348D02*
X0163750Y0298348D01*
X0163750Y0297350D02*
X0132850Y0297350D01*
X0132850Y0296351D02*
X0163750Y0296351D01*
X0163750Y0295353D02*
X0132850Y0295353D01*
X0132850Y0294354D02*
X0163750Y0294354D01*
X0163750Y0293355D02*
X0132850Y0293355D01*
X0132850Y0292357D02*
X0163750Y0292357D01*
X0163750Y0291358D02*
X0132850Y0291358D01*
X0132850Y0290360D02*
X0163750Y0290360D01*
X0163750Y0289361D02*
X0132850Y0289361D01*
X0132850Y0288363D02*
X0163750Y0288363D01*
X0163750Y0287364D02*
X0132850Y0287364D01*
X0132850Y0286366D02*
X0163750Y0286366D01*
X0163750Y0285367D02*
X0132850Y0285367D01*
X0132850Y0284369D02*
X0163173Y0284369D01*
X0162760Y0283370D02*
X0132850Y0283370D01*
X0132850Y0282372D02*
X0162750Y0282372D01*
X0163073Y0281373D02*
X0132850Y0281373D01*
X0132850Y0280375D02*
X0163750Y0280375D01*
X0163750Y0279376D02*
X0132850Y0279376D01*
X0132850Y0278378D02*
X0163750Y0278378D01*
X0163750Y0277379D02*
X0132850Y0277379D01*
X0132850Y0276381D02*
X0163750Y0276381D01*
X0163750Y0275382D02*
X0132850Y0275382D01*
X0132850Y0274384D02*
X0163750Y0274384D01*
X0163750Y0273385D02*
X0132850Y0273385D01*
X0132850Y0272387D02*
X0163750Y0272387D01*
X0163750Y0271388D02*
X0132850Y0271388D01*
X0132850Y0270390D02*
X0163750Y0270390D01*
X0163750Y0269391D02*
X0132850Y0269391D01*
X0132850Y0268393D02*
X0163750Y0268393D01*
X0163750Y0267394D02*
X0132850Y0267394D01*
X0132850Y0266396D02*
X0163750Y0266396D01*
X0163750Y0265397D02*
X0132850Y0265397D01*
X0132850Y0264399D02*
X0163750Y0264399D01*
X0163750Y0263400D02*
X0132850Y0263400D01*
X0132850Y0262402D02*
X0163750Y0262402D01*
X0163750Y0261403D02*
X0132850Y0261403D01*
X0132850Y0260405D02*
X0163750Y0260405D01*
X0163750Y0259406D02*
X0132850Y0259406D01*
X0132850Y0258408D02*
X0163750Y0258408D01*
X0163750Y0257409D02*
X0132850Y0257409D01*
X0132850Y0256411D02*
X0164261Y0256411D01*
X0165259Y0255412D02*
X0132850Y0255412D01*
X0132850Y0254414D02*
X0166258Y0254414D01*
X0167257Y0253415D02*
X0132850Y0253415D01*
X0132850Y0252417D02*
X0168255Y0252417D01*
X0169254Y0251418D02*
X0132850Y0251418D01*
X0132850Y0250420D02*
X0170252Y0250420D01*
X0171251Y0249421D02*
X0132850Y0249421D01*
X0132850Y0248422D02*
X0172249Y0248422D01*
X0173248Y0247424D02*
X0132850Y0247424D01*
X0132850Y0246425D02*
X0173750Y0246425D01*
X0173750Y0245427D02*
X0132850Y0245427D01*
X0132850Y0244428D02*
X0173750Y0244428D01*
X0173750Y0243430D02*
X0132850Y0243430D01*
X0132850Y0242431D02*
X0163484Y0242431D01*
X0162079Y0241433D02*
X0148173Y0241433D01*
X0148781Y0240434D02*
X0161282Y0240434D01*
X0160830Y0239436D02*
X0148981Y0239436D01*
X0148336Y0238437D02*
X0160594Y0238437D01*
X0160708Y0236440D02*
X0148753Y0236440D01*
X0148856Y0235442D02*
X0161090Y0235442D01*
X0165250Y0237439D02*
X0148087Y0237439D01*
X0140920Y0241954D02*
X0140920Y0241954D01*
X0138660Y0241433D02*
X0137537Y0241433D01*
X0134756Y0241433D02*
X0132850Y0241433D01*
X0132850Y0240434D02*
X0134047Y0240434D01*
X0134047Y0239436D02*
X0132850Y0239436D01*
X0132850Y0238437D02*
X0134047Y0238437D01*
X0133565Y0237439D02*
X0132850Y0237439D01*
X0145959Y0228650D02*
X0148062Y0226885D01*
X0148062Y0226885D01*
X0149719Y0224015D01*
X0149719Y0224015D01*
X0150295Y0220750D01*
X0150295Y0220750D01*
X0149719Y0217485D01*
X0149719Y0217485D01*
X0148062Y0214615D01*
X0148062Y0214615D01*
X0148062Y0214615D01*
X0145523Y0212484D01*
X0145522Y0212484D01*
X0142407Y0211350D01*
X0139093Y0211350D01*
X0135977Y0212484D01*
X0135977Y0212484D01*
X0133438Y0214615D01*
X0133438Y0214615D01*
X0132850Y0215633D01*
X0132850Y0134724D01*
X0133876Y0135750D01*
X0134047Y0135750D01*
X0134047Y0138723D01*
X0134653Y0139330D01*
X0135277Y0139954D01*
X0137017Y0139954D01*
X0137881Y0139089D01*
X0138099Y0138872D01*
X0139166Y0139940D01*
X0139180Y0139954D01*
X0139180Y0139954D01*
X0140582Y0139954D01*
X0140582Y0139954D01*
X0140742Y0139954D01*
X0140920Y0139954D01*
X0140920Y0139954D01*
X0142321Y0139954D01*
X0142720Y0139555D01*
X0143512Y0140083D01*
X0145218Y0139742D01*
X0145355Y0139538D01*
X0145491Y0139742D01*
X0147197Y0140083D01*
X0148645Y0139118D01*
X0148986Y0137412D01*
X0147879Y0135752D01*
X0148986Y0134091D01*
X0148737Y0132850D01*
X0161429Y0132850D01*
X0161303Y0133025D01*
X0160931Y0133754D01*
X0160678Y0134532D01*
X0160564Y0135250D01*
X0165250Y0135250D01*
X0165250Y0136250D01*
X0165250Y0140936D01*
X0164532Y0140822D01*
X0163754Y0140569D01*
X0163025Y0140197D01*
X0162362Y0139716D01*
X0161784Y0139138D01*
X0161303Y0138475D01*
X0160931Y0137746D01*
X0160678Y0136968D01*
X0160564Y0136250D01*
X0165250Y0136250D01*
X0166250Y0136250D01*
X0166250Y0140936D01*
X0166968Y0140822D01*
X0167746Y0140569D01*
X0168475Y0140197D01*
X0169138Y0139716D01*
X0169716Y0139138D01*
X0170197Y0138475D01*
X0170569Y0137746D01*
X0170641Y0137526D01*
X0171172Y0138809D01*
X0172691Y0140328D01*
X0173750Y0140766D01*
X0173750Y0144922D01*
X0163750Y0154922D01*
X0163750Y0178507D01*
X0163207Y0179051D01*
X0162750Y0180153D01*
X0162750Y0181347D01*
X0163207Y0182449D01*
X0163750Y0182993D01*
X0163750Y0196422D01*
X0162750Y0197422D01*
X0162750Y0204578D01*
X0164250Y0206078D01*
X0165422Y0207250D01*
X0180078Y0207250D01*
X0181250Y0206078D01*
X0181250Y0206078D01*
X0182750Y0204578D01*
X0182750Y0199904D01*
X0182750Y0199904D01*
X0182796Y0199950D01*
X0186704Y0199950D01*
X0187700Y0198954D01*
X0187700Y0198335D01*
X0191096Y0201732D01*
X0191096Y0202500D01*
X0191553Y0203603D01*
X0192397Y0204447D01*
X0193500Y0204904D01*
X0194693Y0204904D01*
X0195796Y0204447D01*
X0196640Y0203603D01*
X0197096Y0202500D01*
X0197096Y0201307D01*
X0196640Y0200204D01*
X0195796Y0199360D01*
X0194693Y0198904D01*
X0193925Y0198904D01*
X0188771Y0193750D01*
X0187700Y0193750D01*
X0187700Y0192546D01*
X0186704Y0191550D01*
X0182796Y0191550D01*
X0182750Y0191596D01*
X0182704Y0191550D01*
X0178796Y0191550D01*
X0178750Y0191596D01*
X0178704Y0191550D01*
X0174796Y0191550D01*
X0173800Y0192546D01*
X0173800Y0198954D01*
X0174750Y0199904D01*
X0174750Y0201250D01*
X0173750Y0201250D01*
X0173750Y0200153D01*
X0173293Y0199051D01*
X0172750Y0198507D01*
X0172750Y0191578D01*
X0174078Y0190250D01*
X0200507Y0190250D01*
X0201051Y0190793D01*
X0202153Y0191250D01*
X0203347Y0191250D01*
X0204449Y0190793D01*
X0205293Y0189949D01*
X0205750Y0188847D01*
X0205750Y0187653D01*
X0205293Y0186551D01*
X0204449Y0185707D01*
X0203347Y0185250D01*
X0202153Y0185250D01*
X0201051Y0185707D01*
X0200507Y0186250D01*
X0172422Y0186250D01*
X0169922Y0188750D01*
X0168750Y0189922D01*
X0168750Y0197714D01*
X0168000Y0197404D01*
X0167750Y0197404D01*
X0167750Y0182993D01*
X0167993Y0182750D01*
X0193507Y0182750D01*
X0194051Y0183293D01*
X0195153Y0183750D01*
X0196347Y0183750D01*
X0197449Y0183293D01*
X0198293Y0182449D01*
X0198750Y0181347D01*
X0198750Y0180153D01*
X0198293Y0179051D01*
X0197449Y0178207D01*
X0196347Y0177750D01*
X0195153Y0177750D01*
X0194051Y0178207D01*
X0193507Y0178750D01*
X0167993Y0178750D01*
X0167750Y0178507D01*
X0167750Y0156578D01*
X0176578Y0147750D01*
X0177750Y0146578D01*
X0177750Y0140766D01*
X0178809Y0140328D01*
X0180328Y0138809D01*
X0180750Y0137790D01*
X0181172Y0138809D01*
X0182691Y0140328D01*
X0184676Y0141150D01*
X0186824Y0141150D01*
X0188809Y0140328D01*
X0190328Y0138809D01*
X0190750Y0137790D01*
X0191172Y0138809D01*
X0192691Y0140328D01*
X0193750Y0140766D01*
X0193750Y0164922D01*
X0189922Y0168750D01*
X0187993Y0168750D01*
X0187449Y0168207D01*
X0186347Y0167750D01*
X0185153Y0167750D01*
X0184051Y0168207D01*
X0183207Y0169051D01*
X0182750Y0170153D01*
X0182750Y0171347D01*
X0183207Y0172449D01*
X0184051Y0173293D01*
X0185153Y0173750D01*
X0186347Y0173750D01*
X0187449Y0173293D01*
X0187993Y0172750D01*
X0191578Y0172750D01*
X0196578Y0167750D01*
X0197750Y0166578D01*
X0197750Y0140766D01*
X0198809Y0140328D01*
X0200328Y0138809D01*
X0201150Y0136824D01*
X0201150Y0134676D01*
X0200394Y0132850D01*
X0224637Y0132850D01*
X0224300Y0133663D01*
X0224300Y0134837D01*
X0224749Y0135921D01*
X0225579Y0136751D01*
X0226663Y0137200D01*
X0227837Y0137200D01*
X0228650Y0136863D01*
X0228650Y0215633D01*
X0228062Y0214615D01*
X0228062Y0214615D01*
X0228062Y0214615D01*
X0225523Y0212484D01*
X0225522Y0212484D01*
X0222407Y0211350D01*
X0219093Y0211350D01*
X0215977Y0212484D01*
X0215977Y0212484D01*
X0213438Y0214615D01*
X0213438Y0214615D01*
X0211781Y0217485D01*
X0211781Y0217485D01*
X0211205Y0220750D01*
X0211205Y0220750D01*
X0211781Y0224015D01*
X0211781Y0224015D01*
X0213438Y0226885D01*
X0213438Y0226885D01*
X0213438Y0226885D01*
X0215541Y0228650D01*
X0145959Y0228650D01*
X0146195Y0228452D02*
X0215305Y0228452D01*
X0214115Y0227454D02*
X0147385Y0227454D01*
X0148310Y0226455D02*
X0213190Y0226455D01*
X0212613Y0225457D02*
X0148887Y0225457D01*
X0149463Y0224458D02*
X0212037Y0224458D01*
X0211683Y0223460D02*
X0149817Y0223460D01*
X0149993Y0222461D02*
X0211507Y0222461D01*
X0211331Y0221463D02*
X0150169Y0221463D01*
X0150245Y0220464D02*
X0211255Y0220464D01*
X0211431Y0219466D02*
X0150069Y0219466D01*
X0149892Y0218467D02*
X0211608Y0218467D01*
X0211790Y0217469D02*
X0149710Y0217469D01*
X0149133Y0216470D02*
X0212367Y0216470D01*
X0212943Y0215472D02*
X0148557Y0215472D01*
X0147893Y0214473D02*
X0213607Y0214473D01*
X0214797Y0213475D02*
X0146703Y0213475D01*
X0145501Y0212476D02*
X0215999Y0212476D01*
X0218742Y0211478D02*
X0142758Y0211478D01*
X0138742Y0211478D02*
X0132850Y0211478D01*
X0132850Y0212476D02*
X0135999Y0212476D01*
X0134797Y0213475D02*
X0132850Y0213475D01*
X0132850Y0214473D02*
X0133607Y0214473D01*
X0132943Y0215472D02*
X0132850Y0215472D01*
X0132850Y0210479D02*
X0228650Y0210479D01*
X0228650Y0209481D02*
X0132850Y0209481D01*
X0132850Y0208482D02*
X0228650Y0208482D01*
X0228650Y0207484D02*
X0132850Y0207484D01*
X0132850Y0206485D02*
X0164657Y0206485D01*
X0163658Y0205487D02*
X0132850Y0205487D01*
X0132850Y0204488D02*
X0162750Y0204488D01*
X0162750Y0203489D02*
X0132850Y0203489D01*
X0132850Y0202491D02*
X0162750Y0202491D01*
X0162750Y0201492D02*
X0132850Y0201492D01*
X0132850Y0200494D02*
X0162750Y0200494D01*
X0162750Y0199495D02*
X0132850Y0199495D01*
X0132850Y0198497D02*
X0162750Y0198497D01*
X0162750Y0197498D02*
X0132850Y0197498D01*
X0132850Y0196500D02*
X0163672Y0196500D01*
X0163750Y0195501D02*
X0132850Y0195501D01*
X0132850Y0194503D02*
X0163750Y0194503D01*
X0163750Y0193504D02*
X0132850Y0193504D01*
X0132850Y0192506D02*
X0163750Y0192506D01*
X0163750Y0191507D02*
X0132850Y0191507D01*
X0132850Y0190509D02*
X0163750Y0190509D01*
X0163750Y0189510D02*
X0132850Y0189510D01*
X0132850Y0188512D02*
X0163750Y0188512D01*
X0163750Y0187513D02*
X0132850Y0187513D01*
X0132850Y0186515D02*
X0163750Y0186515D01*
X0163750Y0185516D02*
X0132850Y0185516D01*
X0132850Y0184518D02*
X0163750Y0184518D01*
X0163750Y0183519D02*
X0132850Y0183519D01*
X0132850Y0182521D02*
X0163278Y0182521D01*
X0162823Y0181522D02*
X0132850Y0181522D01*
X0132850Y0180524D02*
X0162750Y0180524D01*
X0163010Y0179525D02*
X0132850Y0179525D01*
X0132850Y0178527D02*
X0163731Y0178527D01*
X0163750Y0177528D02*
X0132850Y0177528D01*
X0132850Y0176530D02*
X0163750Y0176530D01*
X0163750Y0175531D02*
X0132850Y0175531D01*
X0132850Y0174533D02*
X0163750Y0174533D01*
X0163750Y0173534D02*
X0132850Y0173534D01*
X0132850Y0172536D02*
X0163750Y0172536D01*
X0163750Y0171537D02*
X0132850Y0171537D01*
X0132850Y0170539D02*
X0163750Y0170539D01*
X0163750Y0169540D02*
X0132850Y0169540D01*
X0132850Y0168542D02*
X0163750Y0168542D01*
X0163750Y0167543D02*
X0132850Y0167543D01*
X0132850Y0166545D02*
X0163750Y0166545D01*
X0163750Y0165546D02*
X0132850Y0165546D01*
X0132850Y0164548D02*
X0163750Y0164548D01*
X0163750Y0163549D02*
X0132850Y0163549D01*
X0132850Y0162551D02*
X0163750Y0162551D01*
X0163750Y0161552D02*
X0132850Y0161552D01*
X0132850Y0160553D02*
X0163750Y0160553D01*
X0163750Y0159555D02*
X0132850Y0159555D01*
X0132850Y0158556D02*
X0163750Y0158556D01*
X0163750Y0157558D02*
X0132850Y0157558D01*
X0132850Y0156559D02*
X0163750Y0156559D01*
X0163750Y0155561D02*
X0132850Y0155561D01*
X0132850Y0154562D02*
X0164109Y0154562D01*
X0165108Y0153564D02*
X0132850Y0153564D01*
X0132850Y0152565D02*
X0166106Y0152565D01*
X0167105Y0151567D02*
X0132850Y0151567D01*
X0132850Y0150568D02*
X0168103Y0150568D01*
X0169102Y0149570D02*
X0132850Y0149570D01*
X0132850Y0148571D02*
X0170100Y0148571D01*
X0171099Y0147573D02*
X0132850Y0147573D01*
X0132850Y0146574D02*
X0172097Y0146574D01*
X0173096Y0145576D02*
X0132850Y0145576D01*
X0132850Y0144577D02*
X0173750Y0144577D01*
X0173750Y0143579D02*
X0132850Y0143579D01*
X0132850Y0142580D02*
X0173750Y0142580D01*
X0173750Y0141582D02*
X0132850Y0141582D01*
X0132850Y0140583D02*
X0163798Y0140583D01*
X0165250Y0140583D02*
X0166250Y0140583D01*
X0166250Y0139585D02*
X0165250Y0139585D01*
X0165250Y0138586D02*
X0166250Y0138586D01*
X0166250Y0137588D02*
X0165250Y0137588D01*
X0165250Y0136589D02*
X0166250Y0136589D01*
X0165250Y0135591D02*
X0147986Y0135591D01*
X0148437Y0136589D02*
X0160618Y0136589D01*
X0160880Y0137588D02*
X0148951Y0137588D01*
X0148751Y0138586D02*
X0161383Y0138586D01*
X0162231Y0139585D02*
X0147945Y0139585D01*
X0145386Y0139585D02*
X0145323Y0139585D01*
X0142764Y0139585D02*
X0142690Y0139585D01*
X0138812Y0139585D02*
X0137386Y0139585D01*
X0134908Y0139585D02*
X0132850Y0139585D01*
X0132850Y0138586D02*
X0134047Y0138586D01*
X0134047Y0137588D02*
X0132850Y0137588D01*
X0132850Y0136589D02*
X0134047Y0136589D01*
X0133717Y0135591D02*
X0132850Y0135591D01*
X0126650Y0137588D02*
X0098834Y0137588D01*
X0099150Y0136589D02*
X0123417Y0136589D01*
X0122612Y0135591D02*
X0099150Y0135591D01*
X0099115Y0134592D02*
X0122300Y0134592D01*
X0122329Y0133594D02*
X0098702Y0133594D01*
X0098420Y0138586D02*
X0126650Y0138586D01*
X0126650Y0139585D02*
X0097552Y0139585D01*
X0096192Y0140583D02*
X0126650Y0140583D01*
X0126650Y0141582D02*
X0095750Y0141582D01*
X0095750Y0142580D02*
X0126650Y0142580D01*
X0126650Y0143579D02*
X0095750Y0143579D01*
X0095750Y0144577D02*
X0126650Y0144577D01*
X0126650Y0145576D02*
X0095750Y0145576D01*
X0095750Y0146574D02*
X0126650Y0146574D01*
X0126650Y0147573D02*
X0095750Y0147573D01*
X0095750Y0148571D02*
X0126650Y0148571D01*
X0126650Y0149570D02*
X0095750Y0149570D01*
X0095750Y0150568D02*
X0126650Y0150568D01*
X0126650Y0151567D02*
X0095750Y0151567D01*
X0095750Y0152565D02*
X0126650Y0152565D01*
X0126650Y0153564D02*
X0095750Y0153564D01*
X0095750Y0154562D02*
X0126650Y0154562D01*
X0126650Y0155561D02*
X0095750Y0155561D01*
X0095750Y0156559D02*
X0126650Y0156559D01*
X0126650Y0157558D02*
X0095750Y0157558D01*
X0095750Y0158556D02*
X0126650Y0158556D01*
X0126650Y0159555D02*
X0095750Y0159555D01*
X0095750Y0160553D02*
X0126650Y0160553D01*
X0126650Y0161552D02*
X0095750Y0161552D01*
X0095750Y0162551D02*
X0126650Y0162551D01*
X0126650Y0163549D02*
X0095750Y0163549D01*
X0095750Y0164548D02*
X0126650Y0164548D01*
X0126650Y0165546D02*
X0095750Y0165546D01*
X0095750Y0166545D02*
X0126650Y0166545D01*
X0126650Y0167543D02*
X0094785Y0167543D01*
X0093787Y0168542D02*
X0126650Y0168542D01*
X0126650Y0169540D02*
X0092788Y0169540D01*
X0091790Y0170539D02*
X0126650Y0170539D01*
X0126650Y0171537D02*
X0090791Y0171537D01*
X0089793Y0172536D02*
X0126650Y0172536D01*
X0126650Y0173534D02*
X0084868Y0173534D01*
X0082632Y0173534D02*
X0065750Y0173534D01*
X0065750Y0172536D02*
X0081293Y0172536D01*
X0080829Y0171537D02*
X0065750Y0171537D01*
X0065750Y0170539D02*
X0080750Y0170539D01*
X0081004Y0169540D02*
X0065750Y0169540D01*
X0065750Y0168542D02*
X0081716Y0168542D01*
X0085784Y0168542D02*
X0088130Y0168542D01*
X0089128Y0167543D02*
X0065750Y0167543D01*
X0065750Y0166545D02*
X0090127Y0166545D01*
X0091126Y0165546D02*
X0065750Y0165546D01*
X0065750Y0164548D02*
X0091750Y0164548D01*
X0091750Y0163549D02*
X0065750Y0163549D01*
X0065750Y0162551D02*
X0091750Y0162551D01*
X0091750Y0161552D02*
X0065750Y0161552D01*
X0065750Y0160553D02*
X0091750Y0160553D01*
X0091750Y0159555D02*
X0065750Y0159555D01*
X0065750Y0158556D02*
X0091750Y0158556D01*
X0091750Y0157558D02*
X0065750Y0157558D01*
X0065769Y0156559D02*
X0091750Y0156559D01*
X0091750Y0155561D02*
X0066767Y0155561D01*
X0067766Y0154562D02*
X0091750Y0154562D01*
X0091750Y0153564D02*
X0068764Y0153564D01*
X0069763Y0152565D02*
X0091750Y0152565D01*
X0091750Y0151567D02*
X0070762Y0151567D01*
X0071760Y0150568D02*
X0091750Y0150568D01*
X0091750Y0149570D02*
X0072759Y0149570D01*
X0073757Y0148571D02*
X0091750Y0148571D01*
X0091750Y0147573D02*
X0074756Y0147573D01*
X0075750Y0146574D02*
X0091750Y0146574D01*
X0091750Y0145576D02*
X0075750Y0145576D01*
X0075750Y0144577D02*
X0091750Y0144577D01*
X0091750Y0143579D02*
X0075750Y0143579D01*
X0075750Y0142580D02*
X0091750Y0142580D01*
X0091750Y0141582D02*
X0075750Y0141582D01*
X0076192Y0140583D02*
X0081308Y0140583D01*
X0079948Y0139585D02*
X0077552Y0139585D01*
X0078420Y0138586D02*
X0079080Y0138586D01*
X0071308Y0140583D02*
X0065702Y0140583D01*
X0067269Y0139585D02*
X0069948Y0139585D01*
X0069080Y0138586D02*
X0068117Y0138586D01*
X0068620Y0137588D02*
X0068666Y0137588D01*
X0058669Y0134592D02*
X0046652Y0134592D01*
X0046886Y0133594D02*
X0059013Y0133594D01*
X0086192Y0140583D02*
X0091308Y0140583D01*
X0089948Y0139585D02*
X0087552Y0139585D01*
X0088420Y0138586D02*
X0089080Y0138586D01*
X0065750Y0174533D02*
X0126650Y0174533D01*
X0126650Y0175531D02*
X0065750Y0175531D01*
X0065750Y0176530D02*
X0126650Y0176530D01*
X0126650Y0177528D02*
X0065750Y0177528D01*
X0065769Y0178527D02*
X0091731Y0178527D01*
X0095769Y0178527D02*
X0126650Y0178527D01*
X0126650Y0179525D02*
X0096490Y0179525D01*
X0096750Y0180524D02*
X0126650Y0180524D01*
X0126650Y0181522D02*
X0096677Y0181522D01*
X0096222Y0182521D02*
X0126650Y0182521D01*
X0126650Y0183519D02*
X0094904Y0183519D01*
X0092596Y0183519D02*
X0065750Y0183519D01*
X0065750Y0184518D02*
X0126650Y0184518D01*
X0126650Y0185516D02*
X0101990Y0185516D01*
X0103257Y0186515D02*
X0126650Y0186515D01*
X0126650Y0187513D02*
X0103692Y0187513D01*
X0103750Y0188512D02*
X0126650Y0188512D01*
X0126650Y0189510D02*
X0103475Y0189510D01*
X0102734Y0190509D02*
X0126650Y0190509D01*
X0126650Y0191507D02*
X0070821Y0191507D01*
X0070750Y0192506D02*
X0071840Y0192506D01*
X0071800Y0193504D02*
X0070750Y0193504D01*
X0070750Y0194503D02*
X0071800Y0194503D01*
X0071800Y0195501D02*
X0070750Y0195501D01*
X0070750Y0196500D02*
X0071800Y0196500D01*
X0071800Y0197498D02*
X0070750Y0197498D01*
X0070750Y0198497D02*
X0071800Y0198497D01*
X0071478Y0199495D02*
X0072341Y0199495D01*
X0072750Y0200494D02*
X0071750Y0200494D01*
X0066750Y0197498D02*
X0066229Y0197498D01*
X0065750Y0196500D02*
X0066750Y0196500D01*
X0066750Y0195501D02*
X0065750Y0195501D01*
X0065750Y0194503D02*
X0066750Y0194503D01*
X0066750Y0193504D02*
X0065750Y0193504D01*
X0065750Y0192506D02*
X0066750Y0192506D01*
X0066750Y0191507D02*
X0065750Y0191507D01*
X0065750Y0190509D02*
X0066750Y0190509D01*
X0067161Y0189510D02*
X0065750Y0189510D01*
X0065750Y0188512D02*
X0068160Y0188512D01*
X0069158Y0187513D02*
X0065750Y0187513D01*
X0065750Y0186515D02*
X0070157Y0186515D01*
X0071820Y0190509D02*
X0098766Y0190509D01*
X0099510Y0185516D02*
X0065750Y0185516D01*
X0074750Y0195750D02*
X0078750Y0195750D01*
X0082750Y0195750D01*
X0085700Y0193504D02*
X0126650Y0193504D01*
X0126650Y0192506D02*
X0085660Y0192506D01*
X0087524Y0194503D02*
X0126650Y0194503D01*
X0126650Y0195501D02*
X0088523Y0195501D01*
X0089521Y0196500D02*
X0126650Y0196500D01*
X0126650Y0197498D02*
X0090520Y0197498D01*
X0091518Y0198497D02*
X0126650Y0198497D01*
X0126650Y0199495D02*
X0093931Y0199495D01*
X0094760Y0200494D02*
X0126650Y0200494D01*
X0126650Y0201492D02*
X0095096Y0201492D01*
X0095096Y0202491D02*
X0126650Y0202491D01*
X0126650Y0203489D02*
X0094687Y0203489D01*
X0093696Y0204488D02*
X0126650Y0204488D01*
X0126650Y0205487D02*
X0079842Y0205487D01*
X0080750Y0204488D02*
X0090497Y0204488D01*
X0089506Y0203489D02*
X0080750Y0203489D01*
X0080750Y0202491D02*
X0089096Y0202491D01*
X0088857Y0201492D02*
X0080750Y0201492D01*
X0080750Y0200494D02*
X0087858Y0200494D01*
X0086860Y0199495D02*
X0085159Y0199495D01*
X0085700Y0198497D02*
X0085861Y0198497D01*
X0078843Y0206485D02*
X0126650Y0206485D01*
X0126650Y0211478D02*
X0120758Y0211478D01*
X0120407Y0211350D02*
X0120407Y0211350D01*
X0123501Y0212476D02*
X0126650Y0212476D01*
X0126650Y0213475D02*
X0124703Y0213475D01*
X0125893Y0214473D02*
X0126650Y0214473D01*
X0126062Y0214615D02*
X0126062Y0214615D01*
X0126557Y0215472D02*
X0126650Y0215472D01*
X0165250Y0238437D02*
X0166250Y0238437D01*
X0166250Y0239436D02*
X0165250Y0239436D01*
X0165250Y0240434D02*
X0166250Y0240434D01*
X0166250Y0241433D02*
X0165250Y0241433D01*
X0165250Y0242431D02*
X0166250Y0242431D01*
X0168016Y0242431D02*
X0172941Y0242431D01*
X0171796Y0241433D02*
X0169421Y0241433D01*
X0170218Y0240434D02*
X0171017Y0240434D01*
X0177750Y0243430D02*
X0193750Y0243430D01*
X0193750Y0244428D02*
X0177750Y0244428D01*
X0177750Y0245427D02*
X0193750Y0245427D01*
X0193750Y0246425D02*
X0177750Y0246425D01*
X0177750Y0247424D02*
X0193750Y0247424D01*
X0193750Y0248422D02*
X0177750Y0248422D01*
X0176907Y0249421D02*
X0193750Y0249421D01*
X0193750Y0250420D02*
X0175909Y0250420D01*
X0174910Y0251418D02*
X0193750Y0251418D01*
X0193750Y0252417D02*
X0173912Y0252417D01*
X0172913Y0253415D02*
X0193750Y0253415D01*
X0193750Y0254414D02*
X0171915Y0254414D01*
X0170916Y0255412D02*
X0193750Y0255412D01*
X0193750Y0256411D02*
X0169918Y0256411D01*
X0168919Y0257409D02*
X0193750Y0257409D01*
X0193750Y0258408D02*
X0167921Y0258408D01*
X0167750Y0259406D02*
X0193750Y0259406D01*
X0193750Y0260405D02*
X0167750Y0260405D01*
X0167750Y0261403D02*
X0193750Y0261403D01*
X0193750Y0262402D02*
X0167750Y0262402D01*
X0167750Y0263400D02*
X0193750Y0263400D01*
X0193750Y0264399D02*
X0167750Y0264399D01*
X0167750Y0265397D02*
X0193750Y0265397D01*
X0193750Y0266396D02*
X0167750Y0266396D01*
X0167750Y0267394D02*
X0193277Y0267394D01*
X0192279Y0268393D02*
X0167750Y0268393D01*
X0167750Y0269391D02*
X0191280Y0269391D01*
X0190282Y0270390D02*
X0187632Y0270390D01*
X0183868Y0270390D02*
X0167750Y0270390D01*
X0167750Y0271388D02*
X0183067Y0271388D01*
X0182750Y0272387D02*
X0167750Y0272387D01*
X0167750Y0273385D02*
X0182766Y0273385D01*
X0183180Y0274384D02*
X0167750Y0274384D01*
X0167750Y0275382D02*
X0184266Y0275382D01*
X0187234Y0275382D02*
X0228650Y0275382D01*
X0228650Y0274384D02*
X0191945Y0274384D01*
X0192943Y0273385D02*
X0228650Y0273385D01*
X0228650Y0272387D02*
X0193942Y0272387D01*
X0194940Y0271388D02*
X0228650Y0271388D01*
X0228650Y0270390D02*
X0195939Y0270390D01*
X0196937Y0269391D02*
X0228650Y0269391D01*
X0228650Y0268393D02*
X0197750Y0268393D01*
X0197750Y0267394D02*
X0228650Y0267394D01*
X0228650Y0266396D02*
X0197750Y0266396D01*
X0197750Y0265397D02*
X0228650Y0265397D01*
X0228650Y0264399D02*
X0197750Y0264399D01*
X0197750Y0263400D02*
X0228650Y0263400D01*
X0228650Y0262402D02*
X0197750Y0262402D01*
X0197750Y0261403D02*
X0228650Y0261403D01*
X0228650Y0260405D02*
X0197750Y0260405D01*
X0197750Y0259406D02*
X0228650Y0259406D01*
X0228650Y0258408D02*
X0197750Y0258408D01*
X0197750Y0257409D02*
X0228650Y0257409D01*
X0228650Y0256411D02*
X0197750Y0256411D01*
X0197750Y0255412D02*
X0228650Y0255412D01*
X0228650Y0254414D02*
X0197750Y0254414D01*
X0197750Y0253415D02*
X0228650Y0253415D01*
X0228650Y0252417D02*
X0197750Y0252417D01*
X0197750Y0251418D02*
X0228650Y0251418D01*
X0228650Y0250420D02*
X0197750Y0250420D01*
X0197750Y0249421D02*
X0228650Y0249421D01*
X0228650Y0248422D02*
X0197750Y0248422D01*
X0197750Y0247424D02*
X0228650Y0247424D01*
X0228650Y0246425D02*
X0197750Y0246425D01*
X0197750Y0245427D02*
X0228650Y0245427D01*
X0228650Y0244428D02*
X0197750Y0244428D01*
X0197750Y0243430D02*
X0228650Y0243430D01*
X0228650Y0242431D02*
X0198559Y0242431D01*
X0199704Y0241433D02*
X0228650Y0241433D01*
X0228650Y0240434D02*
X0200483Y0240434D01*
X0200897Y0239436D02*
X0228650Y0239436D01*
X0225265Y0238437D02*
X0201150Y0238437D01*
X0201150Y0237439D02*
X0224549Y0237439D01*
X0224300Y0236440D02*
X0201052Y0236440D01*
X0200639Y0235442D02*
X0224392Y0235442D01*
X0234850Y0237439D02*
X0235565Y0237439D01*
X0236047Y0238437D02*
X0234850Y0238437D01*
X0234850Y0239436D02*
X0236047Y0239436D01*
X0236047Y0240434D02*
X0234850Y0240434D01*
X0234850Y0241433D02*
X0236756Y0241433D01*
X0234850Y0242431D02*
X0265484Y0242431D01*
X0264079Y0241433D02*
X0250173Y0241433D01*
X0250781Y0240434D02*
X0263282Y0240434D01*
X0262830Y0239436D02*
X0250981Y0239436D01*
X0250336Y0238437D02*
X0262594Y0238437D01*
X0262708Y0236440D02*
X0250753Y0236440D01*
X0250856Y0235442D02*
X0263090Y0235442D01*
X0267250Y0237439D02*
X0250087Y0237439D01*
X0242920Y0241954D02*
X0242920Y0241954D01*
X0240660Y0241433D02*
X0239537Y0241433D01*
X0267250Y0241433D02*
X0268250Y0241433D01*
X0268250Y0242431D02*
X0267250Y0242431D01*
X0267250Y0240434D02*
X0268250Y0240434D01*
X0268250Y0239436D02*
X0267250Y0239436D01*
X0267250Y0238437D02*
X0268250Y0238437D01*
X0271421Y0241433D02*
X0273796Y0241433D01*
X0273017Y0240434D02*
X0272218Y0240434D01*
X0270016Y0242431D02*
X0274941Y0242431D01*
X0240742Y0211478D02*
X0234850Y0211478D01*
X0234850Y0212476D02*
X0237999Y0212476D01*
X0236797Y0213475D02*
X0234850Y0213475D01*
X0234850Y0214473D02*
X0235607Y0214473D01*
X0234943Y0215472D02*
X0234850Y0215472D01*
X0228650Y0215472D02*
X0228557Y0215472D01*
X0228650Y0214473D02*
X0227893Y0214473D01*
X0228650Y0213475D02*
X0226703Y0213475D01*
X0225501Y0212476D02*
X0228650Y0212476D01*
X0228650Y0211478D02*
X0222758Y0211478D01*
X0228650Y0206485D02*
X0180843Y0206485D01*
X0181842Y0205487D02*
X0228650Y0205487D01*
X0228650Y0204488D02*
X0195696Y0204488D01*
X0196687Y0203489D02*
X0228650Y0203489D01*
X0228650Y0202491D02*
X0197096Y0202491D01*
X0197096Y0201492D02*
X0228650Y0201492D01*
X0228650Y0200494D02*
X0196760Y0200494D01*
X0195931Y0199495D02*
X0228650Y0199495D01*
X0228650Y0198497D02*
X0193518Y0198497D01*
X0192520Y0197498D02*
X0228650Y0197498D01*
X0228650Y0196500D02*
X0191521Y0196500D01*
X0190523Y0195501D02*
X0228650Y0195501D01*
X0228650Y0194503D02*
X0189524Y0194503D01*
X0187700Y0193504D02*
X0228650Y0193504D01*
X0228650Y0192506D02*
X0187660Y0192506D01*
X0184750Y0195750D02*
X0180750Y0195750D01*
X0176750Y0195750D01*
X0173800Y0195501D02*
X0172750Y0195501D01*
X0172750Y0194503D02*
X0173800Y0194503D01*
X0173800Y0193504D02*
X0172750Y0193504D01*
X0172750Y0192506D02*
X0173840Y0192506D01*
X0172821Y0191507D02*
X0228650Y0191507D01*
X0228650Y0190509D02*
X0204734Y0190509D01*
X0205475Y0189510D02*
X0228650Y0189510D01*
X0228650Y0188512D02*
X0205750Y0188512D01*
X0205692Y0187513D02*
X0228650Y0187513D01*
X0228650Y0186515D02*
X0205257Y0186515D01*
X0203990Y0185516D02*
X0228650Y0185516D01*
X0228650Y0184518D02*
X0167750Y0184518D01*
X0167750Y0185516D02*
X0201510Y0185516D01*
X0198222Y0182521D02*
X0228650Y0182521D01*
X0228650Y0183519D02*
X0196904Y0183519D01*
X0194596Y0183519D02*
X0167750Y0183519D01*
X0167750Y0186515D02*
X0172157Y0186515D01*
X0171158Y0187513D02*
X0167750Y0187513D01*
X0167750Y0188512D02*
X0170160Y0188512D01*
X0169161Y0189510D02*
X0167750Y0189510D01*
X0167750Y0190509D02*
X0168750Y0190509D01*
X0168750Y0191507D02*
X0167750Y0191507D01*
X0167750Y0192506D02*
X0168750Y0192506D01*
X0168750Y0193504D02*
X0167750Y0193504D01*
X0167750Y0194503D02*
X0168750Y0194503D01*
X0168750Y0195501D02*
X0167750Y0195501D01*
X0167750Y0196500D02*
X0168750Y0196500D01*
X0168750Y0197498D02*
X0168229Y0197498D01*
X0172750Y0197498D02*
X0173800Y0197498D01*
X0173800Y0196500D02*
X0172750Y0196500D01*
X0172750Y0198497D02*
X0173800Y0198497D01*
X0173478Y0199495D02*
X0174341Y0199495D01*
X0174750Y0200494D02*
X0173750Y0200494D01*
X0182750Y0200494D02*
X0189858Y0200494D01*
X0188860Y0199495D02*
X0187159Y0199495D01*
X0187700Y0198497D02*
X0187861Y0198497D01*
X0190857Y0201492D02*
X0182750Y0201492D01*
X0182750Y0202491D02*
X0191096Y0202491D01*
X0191506Y0203489D02*
X0182750Y0203489D01*
X0182750Y0204488D02*
X0192497Y0204488D01*
X0200766Y0190509D02*
X0173820Y0190509D01*
X0167769Y0178527D02*
X0193731Y0178527D01*
X0197769Y0178527D02*
X0228650Y0178527D01*
X0228650Y0179525D02*
X0198490Y0179525D01*
X0198750Y0180524D02*
X0228650Y0180524D01*
X0228650Y0181522D02*
X0198677Y0181522D01*
X0191793Y0172536D02*
X0228650Y0172536D01*
X0228650Y0173534D02*
X0186868Y0173534D01*
X0184632Y0173534D02*
X0167750Y0173534D01*
X0167750Y0172536D02*
X0183293Y0172536D01*
X0182829Y0171537D02*
X0167750Y0171537D01*
X0167750Y0170539D02*
X0182750Y0170539D01*
X0183004Y0169540D02*
X0167750Y0169540D01*
X0167750Y0168542D02*
X0183716Y0168542D01*
X0187784Y0168542D02*
X0190130Y0168542D01*
X0191128Y0167543D02*
X0167750Y0167543D01*
X0167750Y0166545D02*
X0192127Y0166545D01*
X0193126Y0165546D02*
X0167750Y0165546D01*
X0167750Y0164548D02*
X0193750Y0164548D01*
X0193750Y0163549D02*
X0167750Y0163549D01*
X0167750Y0162551D02*
X0193750Y0162551D01*
X0193750Y0161552D02*
X0167750Y0161552D01*
X0167750Y0160553D02*
X0193750Y0160553D01*
X0193750Y0159555D02*
X0167750Y0159555D01*
X0167750Y0158556D02*
X0193750Y0158556D01*
X0193750Y0157558D02*
X0167750Y0157558D01*
X0167769Y0156559D02*
X0193750Y0156559D01*
X0193750Y0155561D02*
X0168767Y0155561D01*
X0169766Y0154562D02*
X0193750Y0154562D01*
X0193750Y0153564D02*
X0170764Y0153564D01*
X0171763Y0152565D02*
X0193750Y0152565D01*
X0193750Y0151567D02*
X0172762Y0151567D01*
X0173760Y0150568D02*
X0193750Y0150568D01*
X0193750Y0149570D02*
X0174759Y0149570D01*
X0175757Y0148571D02*
X0193750Y0148571D01*
X0193750Y0147573D02*
X0176756Y0147573D01*
X0177750Y0146574D02*
X0193750Y0146574D01*
X0193750Y0145576D02*
X0177750Y0145576D01*
X0177750Y0144577D02*
X0193750Y0144577D01*
X0193750Y0143579D02*
X0177750Y0143579D01*
X0177750Y0142580D02*
X0193750Y0142580D01*
X0193750Y0141582D02*
X0177750Y0141582D01*
X0178192Y0140583D02*
X0183308Y0140583D01*
X0181948Y0139585D02*
X0179552Y0139585D01*
X0180420Y0138586D02*
X0181080Y0138586D01*
X0188192Y0140583D02*
X0193308Y0140583D01*
X0191948Y0139585D02*
X0189552Y0139585D01*
X0190420Y0138586D02*
X0191080Y0138586D01*
X0197750Y0141582D02*
X0228650Y0141582D01*
X0228650Y0142580D02*
X0197750Y0142580D01*
X0197750Y0143579D02*
X0228650Y0143579D01*
X0228650Y0144577D02*
X0197750Y0144577D01*
X0197750Y0145576D02*
X0228650Y0145576D01*
X0228650Y0146574D02*
X0197750Y0146574D01*
X0197750Y0147573D02*
X0228650Y0147573D01*
X0228650Y0148571D02*
X0197750Y0148571D01*
X0197750Y0149570D02*
X0228650Y0149570D01*
X0228650Y0150568D02*
X0197750Y0150568D01*
X0197750Y0151567D02*
X0228650Y0151567D01*
X0228650Y0152565D02*
X0197750Y0152565D01*
X0197750Y0153564D02*
X0228650Y0153564D01*
X0228650Y0154562D02*
X0197750Y0154562D01*
X0197750Y0155561D02*
X0228650Y0155561D01*
X0228650Y0156559D02*
X0197750Y0156559D01*
X0197750Y0157558D02*
X0228650Y0157558D01*
X0228650Y0158556D02*
X0197750Y0158556D01*
X0197750Y0159555D02*
X0228650Y0159555D01*
X0228650Y0160553D02*
X0197750Y0160553D01*
X0197750Y0161552D02*
X0228650Y0161552D01*
X0228650Y0162551D02*
X0197750Y0162551D01*
X0197750Y0163549D02*
X0228650Y0163549D01*
X0228650Y0164548D02*
X0197750Y0164548D01*
X0197750Y0165546D02*
X0228650Y0165546D01*
X0228650Y0166545D02*
X0197750Y0166545D01*
X0196785Y0167543D02*
X0228650Y0167543D01*
X0228650Y0168542D02*
X0195787Y0168542D01*
X0194788Y0169540D02*
X0228650Y0169540D01*
X0228650Y0170539D02*
X0193790Y0170539D01*
X0192791Y0171537D02*
X0228650Y0171537D01*
X0228650Y0174533D02*
X0167750Y0174533D01*
X0167750Y0175531D02*
X0228650Y0175531D01*
X0228650Y0176530D02*
X0167750Y0176530D01*
X0167750Y0177528D02*
X0228650Y0177528D01*
X0228650Y0140583D02*
X0198192Y0140583D01*
X0199552Y0139585D02*
X0228650Y0139585D01*
X0228650Y0138586D02*
X0200420Y0138586D01*
X0200834Y0137588D02*
X0228650Y0137588D01*
X0225417Y0136589D02*
X0201150Y0136589D01*
X0201150Y0135591D02*
X0224612Y0135591D01*
X0224300Y0134592D02*
X0201115Y0134592D01*
X0200702Y0133594D02*
X0224329Y0133594D01*
X0215486Y0126604D02*
X0146014Y0126604D01*
X0147204Y0125606D02*
X0214296Y0125606D01*
X0213438Y0124885D02*
X0213438Y0124885D01*
X0213438Y0124885D01*
X0213277Y0124607D02*
X0148223Y0124607D01*
X0148799Y0123609D02*
X0212701Y0123609D01*
X0212124Y0122610D02*
X0149376Y0122610D01*
X0149719Y0122015D02*
X0149719Y0122015D01*
X0149790Y0121612D02*
X0211710Y0121612D01*
X0211781Y0122015D02*
X0211781Y0122015D01*
X0211534Y0120613D02*
X0149966Y0120613D01*
X0150143Y0119615D02*
X0211357Y0119615D01*
X0211229Y0118616D02*
X0150271Y0118616D01*
X0150295Y0118750D02*
X0150295Y0118750D01*
X0150095Y0117618D02*
X0211405Y0117618D01*
X0211581Y0116619D02*
X0149919Y0116619D01*
X0149743Y0115620D02*
X0211757Y0115620D01*
X0211781Y0115485D02*
X0211781Y0115485D01*
X0212279Y0114622D02*
X0149221Y0114622D01*
X0148644Y0113623D02*
X0212856Y0113623D01*
X0213432Y0112625D02*
X0148068Y0112625D01*
X0148062Y0112615D02*
X0148062Y0112615D01*
X0148062Y0112615D01*
X0146884Y0111626D02*
X0214616Y0111626D01*
X0215806Y0110628D02*
X0145694Y0110628D01*
X0143175Y0109629D02*
X0218325Y0109629D01*
X0223175Y0109629D02*
X0228650Y0109629D01*
X0228650Y0108631D02*
X0132850Y0108631D01*
X0132850Y0109629D02*
X0138325Y0109629D01*
X0135806Y0110628D02*
X0132850Y0110628D01*
X0132850Y0111626D02*
X0134616Y0111626D01*
X0133432Y0112625D02*
X0132850Y0112625D01*
X0132850Y0113623D02*
X0132856Y0113623D01*
X0132850Y0107632D02*
X0228650Y0107632D01*
X0228650Y0106634D02*
X0132850Y0106634D01*
X0132850Y0105635D02*
X0228650Y0105635D01*
X0228650Y0104637D02*
X0180692Y0104637D01*
X0168750Y0095650D02*
X0168596Y0095650D01*
X0168750Y0094652D02*
X0167750Y0094652D01*
X0167750Y0070687D02*
X0183445Y0070687D01*
X0182892Y0069689D02*
X0167750Y0069689D01*
X0167750Y0068690D02*
X0182750Y0068690D01*
X0182941Y0067692D02*
X0167750Y0067692D01*
X0167750Y0066693D02*
X0183564Y0066693D01*
X0187936Y0066693D02*
X0189978Y0066693D01*
X0190977Y0065695D02*
X0167750Y0065695D01*
X0167750Y0064696D02*
X0191975Y0064696D01*
X0192974Y0063698D02*
X0167750Y0063698D01*
X0167750Y0062699D02*
X0193750Y0062699D01*
X0193750Y0061701D02*
X0167750Y0061701D01*
X0167750Y0060702D02*
X0193750Y0060702D01*
X0193750Y0059704D02*
X0167750Y0059704D01*
X0167750Y0058705D02*
X0193750Y0058705D01*
X0193750Y0057707D02*
X0167750Y0057707D01*
X0167750Y0056708D02*
X0193750Y0056708D01*
X0193750Y0055710D02*
X0167750Y0055710D01*
X0167750Y0054711D02*
X0193750Y0054711D01*
X0193750Y0053713D02*
X0168616Y0053713D01*
X0169614Y0052714D02*
X0193750Y0052714D01*
X0193750Y0051716D02*
X0170613Y0051716D01*
X0171611Y0050717D02*
X0193750Y0050717D01*
X0193750Y0049719D02*
X0172610Y0049719D01*
X0173608Y0048720D02*
X0193750Y0048720D01*
X0193750Y0047722D02*
X0174607Y0047722D01*
X0175605Y0046723D02*
X0193750Y0046723D01*
X0193750Y0045725D02*
X0176604Y0045725D01*
X0177602Y0044726D02*
X0193750Y0044726D01*
X0193750Y0043728D02*
X0177750Y0043728D01*
X0177750Y0042729D02*
X0193750Y0042729D01*
X0193750Y0041731D02*
X0177750Y0041731D01*
X0177750Y0040732D02*
X0193750Y0040732D01*
X0193750Y0039734D02*
X0177750Y0039734D01*
X0177826Y0038735D02*
X0183674Y0038735D01*
X0182100Y0037737D02*
X0179400Y0037737D01*
X0180357Y0036738D02*
X0181143Y0036738D01*
X0187826Y0038735D02*
X0193674Y0038735D01*
X0192100Y0037737D02*
X0189400Y0037737D01*
X0190357Y0036738D02*
X0191143Y0036738D01*
X0172100Y0037737D02*
X0169110Y0037737D01*
X0170007Y0036738D02*
X0171143Y0036738D01*
X0170729Y0035740D02*
X0170571Y0035740D01*
X0164265Y0038735D02*
X0132850Y0038735D01*
X0148550Y0032744D02*
X0160645Y0032744D01*
X0160935Y0031746D02*
X0148917Y0031746D01*
X0205341Y0084667D02*
X0228650Y0084667D01*
X0228650Y0085665D02*
X0205750Y0085665D01*
X0205750Y0086664D02*
X0228650Y0086664D01*
X0228650Y0087662D02*
X0205412Y0087662D01*
X0225694Y0110628D02*
X0228650Y0110628D01*
X0228650Y0111626D02*
X0226884Y0111626D01*
X0228062Y0112615D02*
X0228062Y0112615D01*
X0228062Y0112615D01*
X0228068Y0112625D02*
X0228650Y0112625D01*
X0228644Y0113623D02*
X0228650Y0113623D01*
X0234850Y0113623D02*
X0234856Y0113623D01*
X0234850Y0112625D02*
X0235432Y0112625D01*
X0234850Y0111626D02*
X0236616Y0111626D01*
X0237806Y0110628D02*
X0234850Y0110628D01*
X0234850Y0109629D02*
X0240325Y0109629D01*
X0245175Y0109629D02*
X0320325Y0109629D01*
X0317806Y0110628D02*
X0247694Y0110628D01*
X0248884Y0111626D02*
X0316616Y0111626D01*
X0325175Y0109629D02*
X0330650Y0109629D01*
X0330650Y0108631D02*
X0234850Y0108631D01*
X0234850Y0107632D02*
X0330650Y0107632D01*
X0330650Y0106634D02*
X0234850Y0106634D01*
X0234850Y0105635D02*
X0330650Y0105635D01*
X0330650Y0110628D02*
X0327694Y0110628D01*
X0328884Y0111626D02*
X0330650Y0111626D01*
X0330650Y0112625D02*
X0330068Y0112625D01*
X0330062Y0112615D02*
X0330062Y0112615D01*
X0330062Y0112615D01*
X0330644Y0113623D02*
X0330650Y0113623D01*
X0275308Y0140583D02*
X0269702Y0140583D01*
X0268250Y0140583D02*
X0267250Y0140583D01*
X0267250Y0139585D02*
X0268250Y0139585D01*
X0268250Y0138586D02*
X0267250Y0138586D01*
X0267250Y0137588D02*
X0268250Y0137588D01*
X0268250Y0136589D02*
X0267250Y0136589D01*
X0267250Y0135591D02*
X0249986Y0135591D01*
X0250437Y0136589D02*
X0262618Y0136589D01*
X0262880Y0137588D02*
X0250951Y0137588D01*
X0250751Y0138586D02*
X0263383Y0138586D01*
X0264231Y0139585D02*
X0249945Y0139585D01*
X0247386Y0139585D02*
X0247323Y0139585D01*
X0244764Y0139585D02*
X0244690Y0139585D01*
X0242920Y0139954D02*
X0242920Y0139954D01*
X0240812Y0139585D02*
X0239386Y0139585D01*
X0236908Y0139585D02*
X0234850Y0139585D01*
X0234850Y0140583D02*
X0265798Y0140583D01*
X0271269Y0139585D02*
X0273948Y0139585D01*
X0273080Y0138586D02*
X0272117Y0138586D01*
X0272620Y0137588D02*
X0272666Y0137588D01*
X0262669Y0134592D02*
X0250652Y0134592D01*
X0250886Y0133594D02*
X0263013Y0133594D01*
X0236047Y0136589D02*
X0234850Y0136589D01*
X0234850Y0135591D02*
X0235717Y0135591D01*
X0236047Y0137588D02*
X0234850Y0137588D01*
X0234850Y0138586D02*
X0236047Y0138586D01*
X0173308Y0140583D02*
X0167702Y0140583D01*
X0169269Y0139585D02*
X0171948Y0139585D01*
X0171080Y0138586D02*
X0170117Y0138586D01*
X0170620Y0137588D02*
X0170666Y0137588D01*
X0160669Y0134592D02*
X0148652Y0134592D01*
X0148886Y0133594D02*
X0161013Y0133594D01*
X0234850Y0038735D02*
X0266265Y0038735D01*
X0271110Y0037737D02*
X0274100Y0037737D01*
X0273143Y0036738D02*
X0272007Y0036738D01*
X0272571Y0035740D02*
X0272729Y0035740D01*
X0279826Y0038735D02*
X0285674Y0038735D01*
X0284100Y0037737D02*
X0281400Y0037737D01*
X0282357Y0036738D02*
X0283143Y0036738D01*
X0262935Y0031746D02*
X0250917Y0031746D01*
X0250550Y0032744D02*
X0262645Y0032744D01*
X0307257Y0186515D02*
X0330650Y0186515D01*
X0330650Y0187513D02*
X0307692Y0187513D01*
X0307750Y0188512D02*
X0330650Y0188512D01*
X0330650Y0189510D02*
X0307475Y0189510D01*
X0228650Y0276381D02*
X0167750Y0276381D01*
X0167750Y0277379D02*
X0228650Y0277379D01*
X0228650Y0278378D02*
X0167750Y0278378D01*
X0167750Y0279376D02*
X0228650Y0279376D01*
X0228650Y0280375D02*
X0197617Y0280375D01*
X0198427Y0281373D02*
X0228650Y0281373D01*
X0228650Y0282372D02*
X0198750Y0282372D01*
X0198740Y0283370D02*
X0228650Y0283370D01*
X0228650Y0284369D02*
X0198327Y0284369D01*
X0197270Y0285367D02*
X0228650Y0285367D01*
X0228650Y0286366D02*
X0167750Y0286366D01*
X0167750Y0287364D02*
X0201877Y0287364D01*
X0203623Y0287364D02*
X0228650Y0287364D01*
X0228650Y0288363D02*
X0205106Y0288363D01*
X0205629Y0289361D02*
X0228650Y0289361D01*
X0228650Y0290360D02*
X0205750Y0290360D01*
X0205538Y0291358D02*
X0228650Y0291358D01*
X0228650Y0292357D02*
X0204886Y0292357D01*
X0200614Y0292357D02*
X0173971Y0292357D01*
X0172973Y0293355D02*
X0228650Y0293355D01*
X0228650Y0294354D02*
X0187508Y0294354D01*
X0187700Y0295353D02*
X0228650Y0295353D01*
X0228650Y0296351D02*
X0189372Y0296351D01*
X0190371Y0297350D02*
X0228650Y0297350D01*
X0228650Y0298348D02*
X0191369Y0298348D01*
X0192368Y0299347D02*
X0228650Y0299347D01*
X0228650Y0300345D02*
X0193366Y0300345D01*
X0195756Y0301344D02*
X0228650Y0301344D01*
X0228650Y0302342D02*
X0196697Y0302342D01*
X0197096Y0303341D02*
X0228650Y0303341D01*
X0228650Y0304339D02*
X0197096Y0304339D01*
X0196750Y0305338D02*
X0228650Y0305338D01*
X0228650Y0306336D02*
X0195906Y0306336D01*
X0192286Y0306336D02*
X0182750Y0306336D01*
X0182750Y0305338D02*
X0191443Y0305338D01*
X0191096Y0304339D02*
X0182750Y0304339D01*
X0182750Y0303341D02*
X0190705Y0303341D01*
X0189707Y0302342D02*
X0182750Y0302342D01*
X0187311Y0301344D02*
X0188708Y0301344D01*
X0187710Y0300345D02*
X0187700Y0300345D01*
X0184750Y0297750D02*
X0180750Y0297750D01*
X0176750Y0297750D01*
X0173800Y0297350D02*
X0172750Y0297350D01*
X0172750Y0298348D02*
X0173800Y0298348D01*
X0173800Y0299347D02*
X0172750Y0299347D01*
X0172750Y0300345D02*
X0173800Y0300345D01*
X0173415Y0301344D02*
X0174189Y0301344D01*
X0173750Y0302342D02*
X0174750Y0302342D01*
X0168750Y0299347D02*
X0167750Y0299347D01*
X0167750Y0298348D02*
X0168750Y0298348D01*
X0168750Y0297350D02*
X0167750Y0297350D01*
X0167750Y0296351D02*
X0168750Y0296351D01*
X0168750Y0295353D02*
X0167750Y0295353D01*
X0167750Y0294354D02*
X0168750Y0294354D01*
X0168750Y0293355D02*
X0167750Y0293355D01*
X0167750Y0292357D02*
X0168750Y0292357D01*
X0169313Y0291358D02*
X0167750Y0291358D01*
X0167750Y0290360D02*
X0170312Y0290360D01*
X0171310Y0289361D02*
X0167750Y0289361D01*
X0167750Y0288363D02*
X0172309Y0288363D01*
X0167750Y0285367D02*
X0194230Y0285367D01*
X0193882Y0280375D02*
X0167750Y0280375D01*
X0172750Y0294354D02*
X0173992Y0294354D01*
X0173800Y0295353D02*
X0172750Y0295353D01*
X0172750Y0296351D02*
X0173800Y0296351D01*
X0181994Y0307335D02*
X0228650Y0307335D01*
X0228650Y0308333D02*
X0180995Y0308333D01*
X0211781Y0319485D02*
X0211781Y0319485D01*
X0211878Y0319317D02*
X0149622Y0319317D01*
X0149866Y0320315D02*
X0211634Y0320315D01*
X0211458Y0321314D02*
X0150042Y0321314D01*
X0150218Y0322312D02*
X0211282Y0322312D01*
X0211304Y0323311D02*
X0150196Y0323311D01*
X0150295Y0322750D02*
X0150295Y0322750D01*
X0150020Y0324309D02*
X0211480Y0324309D01*
X0211656Y0325308D02*
X0149844Y0325308D01*
X0149719Y0326015D02*
X0149719Y0326015D01*
X0149551Y0326306D02*
X0211949Y0326306D01*
X0211781Y0326015D02*
X0211781Y0326015D01*
X0212526Y0327305D02*
X0148974Y0327305D01*
X0148398Y0328303D02*
X0213102Y0328303D01*
X0213438Y0328885D02*
X0213438Y0328885D01*
X0213438Y0328885D01*
X0213934Y0329302D02*
X0147566Y0329302D01*
X0146376Y0330300D02*
X0215124Y0330300D01*
X0212454Y0318318D02*
X0149046Y0318318D01*
X0148469Y0317320D02*
X0213031Y0317320D01*
X0213788Y0316321D02*
X0147712Y0316321D01*
X0148062Y0316615D02*
X0148062Y0316615D01*
X0148062Y0316615D01*
X0146522Y0315323D02*
X0214978Y0315323D01*
X0216416Y0314324D02*
X0145084Y0314324D01*
X0126650Y0314324D02*
X0123084Y0314324D01*
X0124522Y0315323D02*
X0126650Y0315323D01*
X0126650Y0316321D02*
X0125712Y0316321D01*
X0126062Y0316615D02*
X0126062Y0316615D01*
X0126062Y0316615D01*
X0126469Y0317320D02*
X0126650Y0317320D01*
X0126650Y0313326D02*
X0030850Y0313326D01*
X0030850Y0314324D02*
X0034416Y0314324D01*
X0032978Y0315323D02*
X0030850Y0315323D01*
X0030850Y0316321D02*
X0031788Y0316321D01*
X0031031Y0317320D02*
X0030850Y0317320D01*
X0030850Y0312327D02*
X0126650Y0312327D01*
X0126650Y0311329D02*
X0030850Y0311329D01*
X0030850Y0310330D02*
X0126650Y0310330D01*
X0126650Y0309332D02*
X0030850Y0309332D01*
X0043084Y0314324D02*
X0114416Y0314324D01*
X0112978Y0315323D02*
X0044522Y0315323D01*
X0045712Y0316321D02*
X0111788Y0316321D01*
X0111031Y0317320D02*
X0046469Y0317320D01*
X0046062Y0316615D02*
X0046062Y0316615D01*
X0046062Y0316615D01*
X0047046Y0318318D02*
X0110454Y0318318D01*
X0109878Y0319317D02*
X0047622Y0319317D01*
X0047866Y0320315D02*
X0109634Y0320315D01*
X0109781Y0319485D02*
X0109781Y0319485D01*
X0109458Y0321314D02*
X0048042Y0321314D01*
X0048218Y0322312D02*
X0109282Y0322312D01*
X0109304Y0323311D02*
X0048196Y0323311D01*
X0048295Y0322750D02*
X0048295Y0322750D01*
X0048020Y0324309D02*
X0109480Y0324309D01*
X0109656Y0325308D02*
X0047844Y0325308D01*
X0047719Y0326015D02*
X0047719Y0326015D01*
X0047551Y0326306D02*
X0109949Y0326306D01*
X0109781Y0326015D02*
X0109781Y0326015D01*
X0110526Y0327305D02*
X0046974Y0327305D01*
X0046398Y0328303D02*
X0111102Y0328303D01*
X0111438Y0328885D02*
X0111438Y0328885D01*
X0111438Y0328885D01*
X0111934Y0329302D02*
X0045566Y0329302D01*
X0044376Y0330300D02*
X0113124Y0330300D01*
X0064250Y0242431D02*
X0063250Y0242431D01*
X0063250Y0241433D02*
X0064250Y0241433D01*
X0061484Y0242431D02*
X0030850Y0242431D01*
X0030850Y0241433D02*
X0032756Y0241433D01*
X0032047Y0240434D02*
X0030850Y0240434D01*
X0030850Y0239436D02*
X0032047Y0239436D01*
X0032047Y0238437D02*
X0030850Y0238437D01*
X0030850Y0237439D02*
X0031565Y0237439D01*
X0035537Y0241433D02*
X0036660Y0241433D01*
X0038920Y0241954D02*
X0038920Y0241954D01*
X0030850Y0113623D02*
X0030856Y0113623D01*
X0030850Y0112625D02*
X0031432Y0112625D01*
X0030850Y0111626D02*
X0032616Y0111626D01*
X0033806Y0110628D02*
X0030850Y0110628D01*
X0178559Y0242431D02*
X0182941Y0242431D01*
X0181796Y0241433D02*
X0179704Y0241433D01*
X0180483Y0240434D02*
X0181017Y0240434D01*
X0188559Y0242431D02*
X0192941Y0242431D01*
X0191796Y0241433D02*
X0189704Y0241433D01*
X0190483Y0240434D02*
X0191017Y0240434D01*
X0247084Y0314324D02*
X0318416Y0314324D01*
X0316978Y0315323D02*
X0248522Y0315323D01*
X0249712Y0316321D02*
X0315788Y0316321D01*
X0315031Y0317320D02*
X0250469Y0317320D01*
X0250062Y0316615D02*
X0250062Y0316615D01*
X0250062Y0316615D01*
X0251046Y0318318D02*
X0314454Y0318318D01*
X0313878Y0319317D02*
X0251622Y0319317D01*
X0251866Y0320315D02*
X0313634Y0320315D01*
X0313781Y0319485D02*
X0313781Y0319485D01*
X0313458Y0321314D02*
X0252042Y0321314D01*
X0252218Y0322312D02*
X0313282Y0322312D01*
X0313304Y0323311D02*
X0252196Y0323311D01*
X0252295Y0322750D02*
X0252295Y0322750D01*
X0252020Y0324309D02*
X0313480Y0324309D01*
X0313656Y0325308D02*
X0251844Y0325308D01*
X0251719Y0326015D02*
X0251719Y0326015D01*
X0251551Y0326306D02*
X0313949Y0326306D01*
X0313781Y0326015D02*
X0313781Y0326015D01*
X0314526Y0327305D02*
X0250974Y0327305D01*
X0250398Y0328303D02*
X0315102Y0328303D01*
X0315438Y0328885D02*
X0315438Y0328885D01*
X0315438Y0328885D01*
X0315934Y0329302D02*
X0249566Y0329302D01*
X0248376Y0330300D02*
X0317124Y0330300D01*
X0330469Y0317320D02*
X0330650Y0317320D01*
X0330062Y0316615D02*
X0330062Y0316615D01*
X0330062Y0316615D01*
X0329712Y0316321D02*
X0330650Y0316321D01*
X0330650Y0315323D02*
X0328522Y0315323D01*
X0327084Y0314324D02*
X0330650Y0314324D01*
D13*
X0297750Y0237750D03*
X0287750Y0237750D03*
X0277750Y0237750D03*
X0267750Y0237750D03*
X0195750Y0237750D03*
X0185750Y0237750D03*
X0175750Y0237750D03*
X0165750Y0237750D03*
X0093750Y0237750D03*
X0083750Y0237750D03*
X0073750Y0237750D03*
X0063750Y0237750D03*
X0063750Y0135750D03*
X0073750Y0135750D03*
X0083750Y0135750D03*
X0093750Y0135750D03*
X0165750Y0135750D03*
X0175750Y0135750D03*
X0185750Y0135750D03*
X0195750Y0135750D03*
X0267750Y0135750D03*
X0277750Y0135750D03*
X0287750Y0135750D03*
X0297750Y0135750D03*
X0297750Y0033750D03*
X0287750Y0033750D03*
X0277750Y0033750D03*
X0267750Y0033750D03*
X0195750Y0033750D03*
X0185750Y0033750D03*
X0175750Y0033750D03*
X0165750Y0033750D03*
X0093750Y0033750D03*
X0083750Y0033750D03*
X0073750Y0033750D03*
X0063750Y0033750D03*
D14*
X0125250Y0032250D03*
X0133750Y0125750D03*
X0125250Y0134250D03*
X0031750Y0125750D03*
X0031750Y0227750D03*
X0125250Y0236250D03*
X0133750Y0227750D03*
X0227250Y0236250D03*
X0235750Y0227750D03*
X0329250Y0236250D03*
X0235750Y0329750D03*
X0133750Y0329750D03*
X0031750Y0329750D03*
X0227250Y0134250D03*
X0235750Y0125750D03*
X0329250Y0134250D03*
X0329250Y0032250D03*
X0227250Y0032250D03*
D15*
X0195750Y0033750D02*
X0195750Y0063750D01*
X0190750Y0068750D01*
X0185750Y0068750D01*
X0195750Y0078750D02*
X0165750Y0078750D01*
X0165750Y0095250D01*
X0164750Y0096250D01*
X0164750Y0101750D01*
X0166250Y0103250D01*
X0179250Y0103250D01*
X0180750Y0101750D01*
X0180750Y0093750D01*
X0184750Y0093750D02*
X0187943Y0093750D01*
X0194096Y0099904D01*
X0202750Y0086250D02*
X0173250Y0086250D01*
X0170750Y0088750D01*
X0170750Y0098750D01*
X0167404Y0098404D02*
X0167404Y0100404D01*
X0168250Y0101250D01*
X0175750Y0101250D01*
X0176750Y0100250D01*
X0176750Y0093750D01*
X0165750Y0078750D02*
X0165750Y0053750D01*
X0175750Y0043750D01*
X0175750Y0033750D01*
X0100750Y0086250D02*
X0071250Y0086250D01*
X0068750Y0088750D01*
X0068750Y0098750D01*
X0065404Y0098404D02*
X0065404Y0100404D01*
X0066250Y0101250D01*
X0073750Y0101250D01*
X0074750Y0100250D01*
X0074750Y0093750D01*
X0078750Y0093750D02*
X0078750Y0101750D01*
X0077250Y0103250D01*
X0064250Y0103250D01*
X0062750Y0101750D01*
X0062750Y0096250D01*
X0063750Y0095250D01*
X0063750Y0078750D01*
X0063750Y0053750D01*
X0073750Y0043750D01*
X0073750Y0033750D01*
X0093750Y0033750D02*
X0093750Y0063750D01*
X0088750Y0068750D01*
X0083750Y0068750D01*
X0093750Y0078750D02*
X0063750Y0078750D01*
X0082750Y0093750D02*
X0085943Y0093750D01*
X0092096Y0099904D01*
X0093750Y0135750D02*
X0093750Y0165750D01*
X0088750Y0170750D01*
X0083750Y0170750D01*
X0093750Y0180750D02*
X0063750Y0180750D01*
X0063750Y0197250D01*
X0062750Y0198250D01*
X0062750Y0203750D01*
X0064250Y0205250D01*
X0077250Y0205250D01*
X0078750Y0203750D01*
X0078750Y0195750D01*
X0074750Y0195750D02*
X0074750Y0202250D01*
X0073750Y0203250D01*
X0066250Y0203250D01*
X0065404Y0202404D01*
X0065404Y0200404D01*
X0068750Y0200750D02*
X0068750Y0190750D01*
X0071250Y0188250D01*
X0100750Y0188250D01*
X0092096Y0201904D02*
X0085943Y0195750D01*
X0082750Y0195750D01*
X0063750Y0180750D02*
X0063750Y0155750D01*
X0073750Y0145750D01*
X0073750Y0135750D01*
X0165750Y0155750D02*
X0175750Y0145750D01*
X0175750Y0135750D01*
X0195750Y0135750D02*
X0195750Y0165750D01*
X0190750Y0170750D01*
X0185750Y0170750D01*
X0195750Y0180750D02*
X0165750Y0180750D01*
X0165750Y0197250D01*
X0164750Y0198250D01*
X0164750Y0203750D01*
X0166250Y0205250D01*
X0179250Y0205250D01*
X0180750Y0203750D01*
X0180750Y0195750D01*
X0184750Y0195750D02*
X0187943Y0195750D01*
X0194096Y0201904D01*
X0202750Y0188250D02*
X0173250Y0188250D01*
X0170750Y0190750D01*
X0170750Y0200750D01*
X0167404Y0200404D02*
X0167404Y0202404D01*
X0168250Y0203250D01*
X0175750Y0203250D01*
X0176750Y0202250D01*
X0176750Y0195750D01*
X0165750Y0180750D02*
X0165750Y0155750D01*
X0175750Y0237750D02*
X0175750Y0247750D01*
X0165750Y0257750D01*
X0165750Y0282750D01*
X0165750Y0299250D01*
X0164750Y0300250D01*
X0164750Y0305750D01*
X0166250Y0307250D01*
X0179250Y0307250D01*
X0180750Y0305750D01*
X0180750Y0297750D01*
X0184750Y0297750D02*
X0187943Y0297750D01*
X0194096Y0303904D01*
X0202750Y0290250D02*
X0173250Y0290250D01*
X0170750Y0292750D01*
X0170750Y0302750D01*
X0167404Y0302404D02*
X0167404Y0304404D01*
X0168250Y0305250D01*
X0175750Y0305250D01*
X0176750Y0304250D01*
X0176750Y0297750D01*
X0165750Y0282750D02*
X0195750Y0282750D01*
X0190750Y0272750D02*
X0185750Y0272750D01*
X0190750Y0272750D02*
X0195750Y0267750D01*
X0195750Y0237750D01*
X0267750Y0257750D02*
X0277750Y0247750D01*
X0277750Y0237750D01*
X0297750Y0237750D02*
X0297750Y0267750D01*
X0292750Y0272750D01*
X0287750Y0272750D01*
X0297750Y0282750D02*
X0267750Y0282750D01*
X0267750Y0299250D01*
X0266750Y0300250D01*
X0266750Y0305750D01*
X0268250Y0307250D01*
X0281250Y0307250D01*
X0282750Y0305750D01*
X0282750Y0297750D01*
X0278750Y0297750D02*
X0278750Y0304250D01*
X0277750Y0305250D01*
X0270250Y0305250D01*
X0269404Y0304404D01*
X0269404Y0302404D01*
X0272750Y0302750D02*
X0272750Y0292750D01*
X0275250Y0290250D01*
X0304750Y0290250D01*
X0296096Y0303904D02*
X0289943Y0297750D01*
X0286750Y0297750D01*
X0267750Y0282750D02*
X0267750Y0257750D01*
X0268250Y0205250D02*
X0281250Y0205250D01*
X0282750Y0203750D01*
X0282750Y0195750D01*
X0278750Y0195750D02*
X0278750Y0202250D01*
X0277750Y0203250D01*
X0270250Y0203250D01*
X0269404Y0202404D01*
X0269404Y0200404D01*
X0272750Y0200750D02*
X0272750Y0190750D01*
X0275250Y0188250D01*
X0304750Y0188250D01*
X0297750Y0180750D02*
X0267750Y0180750D01*
X0267750Y0197250D01*
X0266750Y0198250D01*
X0266750Y0203750D01*
X0268250Y0205250D01*
X0286750Y0195750D02*
X0289943Y0195750D01*
X0296096Y0201904D01*
X0267750Y0180750D02*
X0267750Y0155750D01*
X0277750Y0145750D01*
X0277750Y0135750D01*
X0297750Y0135750D02*
X0297750Y0165750D01*
X0292750Y0170750D01*
X0287750Y0170750D01*
X0281250Y0103250D02*
X0268250Y0103250D01*
X0266750Y0101750D01*
X0266750Y0096250D01*
X0267750Y0095250D01*
X0267750Y0078750D01*
X0267750Y0053750D01*
X0277750Y0043750D01*
X0277750Y0033750D01*
X0297750Y0033750D02*
X0297750Y0063750D01*
X0292750Y0068750D01*
X0287750Y0068750D01*
X0297750Y0078750D02*
X0267750Y0078750D01*
X0275250Y0086250D02*
X0272750Y0088750D01*
X0272750Y0098750D01*
X0269404Y0098404D02*
X0269404Y0100404D01*
X0270250Y0101250D01*
X0277750Y0101250D01*
X0278750Y0100250D01*
X0278750Y0093750D01*
X0282750Y0093750D02*
X0282750Y0101750D01*
X0281250Y0103250D01*
X0286750Y0093750D02*
X0289943Y0093750D01*
X0296096Y0099904D01*
X0304750Y0086250D02*
X0275250Y0086250D01*
X0093750Y0237750D02*
X0093750Y0267750D01*
X0088750Y0272750D01*
X0083750Y0272750D01*
X0093750Y0282750D02*
X0063750Y0282750D01*
X0063750Y0299250D01*
X0062750Y0300250D01*
X0062750Y0305750D01*
X0064250Y0307250D01*
X0077250Y0307250D01*
X0078750Y0305750D01*
X0078750Y0297750D01*
X0074750Y0297750D02*
X0074750Y0304250D01*
X0073750Y0305250D01*
X0066250Y0305250D01*
X0065404Y0304404D01*
X0065404Y0302404D01*
X0068750Y0302750D02*
X0068750Y0292750D01*
X0071250Y0290250D01*
X0100750Y0290250D01*
X0092096Y0303904D02*
X0085943Y0297750D01*
X0082750Y0297750D01*
X0063750Y0282750D02*
X0063750Y0257750D01*
X0073750Y0247750D01*
X0073750Y0237750D01*
D16*
X0078750Y0247750D03*
X0083750Y0272750D03*
X0093750Y0282750D03*
X0089750Y0286750D03*
X0100750Y0290250D03*
X0103750Y0297750D03*
X0092096Y0303904D03*
X0068750Y0302750D03*
X0065404Y0302404D03*
X0053750Y0287750D03*
X0063750Y0282750D03*
X0098750Y0272750D03*
X0155750Y0287750D03*
X0165750Y0282750D03*
X0167404Y0302404D03*
X0170750Y0302750D03*
X0191750Y0286750D03*
X0195750Y0282750D03*
X0202750Y0290250D03*
X0205750Y0297750D03*
X0194096Y0303904D03*
X0200750Y0272750D03*
X0185750Y0272750D03*
X0180750Y0247750D03*
X0194096Y0201904D03*
X0205750Y0195750D03*
X0202750Y0188250D03*
X0195750Y0180750D03*
X0191750Y0184750D03*
X0185750Y0170750D03*
X0200750Y0170750D03*
X0180750Y0145750D03*
X0165750Y0180750D03*
X0155750Y0185750D03*
X0167404Y0200404D03*
X0170750Y0200750D03*
X0103750Y0195750D03*
X0100750Y0188250D03*
X0093750Y0180750D03*
X0089750Y0184750D03*
X0083750Y0170750D03*
X0098750Y0170750D03*
X0078750Y0145750D03*
X0063750Y0180750D03*
X0053750Y0185750D03*
X0065404Y0200404D03*
X0068750Y0200750D03*
X0092096Y0201904D03*
X0092096Y0099904D03*
X0103750Y0093750D03*
X0100750Y0086250D03*
X0093750Y0078750D03*
X0089750Y0082750D03*
X0083750Y0068750D03*
X0098750Y0068750D03*
X0078750Y0043750D03*
X0063750Y0078750D03*
X0053750Y0083750D03*
X0065404Y0098404D03*
X0068750Y0098750D03*
X0155750Y0083750D03*
X0165750Y0078750D03*
X0167404Y0098404D03*
X0170750Y0098750D03*
X0191750Y0082750D03*
X0195750Y0078750D03*
X0202750Y0086250D03*
X0205750Y0093750D03*
X0194096Y0099904D03*
X0200750Y0068750D03*
X0185750Y0068750D03*
X0180750Y0043750D03*
X0257750Y0083750D03*
X0267750Y0078750D03*
X0269404Y0098404D03*
X0272750Y0098750D03*
X0293750Y0082750D03*
X0297750Y0078750D03*
X0304750Y0086250D03*
X0307750Y0093750D03*
X0296096Y0099904D03*
X0302750Y0068750D03*
X0287750Y0068750D03*
X0282750Y0043750D03*
X0282750Y0145750D03*
X0287750Y0170750D03*
X0297750Y0180750D03*
X0293750Y0184750D03*
X0304750Y0188250D03*
X0307750Y0195750D03*
X0296096Y0201904D03*
X0272750Y0200750D03*
X0269404Y0200404D03*
X0257750Y0185750D03*
X0267750Y0180750D03*
X0302750Y0170750D03*
X0282750Y0247750D03*
X0287750Y0272750D03*
X0297750Y0282750D03*
X0293750Y0286750D03*
X0304750Y0290250D03*
X0307750Y0297750D03*
X0296096Y0303904D03*
X0272750Y0302750D03*
X0269404Y0302404D03*
X0257750Y0287750D03*
X0267750Y0282750D03*
X0302750Y0272750D03*
M02*
