G75*
%MOIN*%
%OFA0B0*%
%FSLAX25Y25*%
%IPPOS*%
%LPD*%
%AMOC8*
5,1,8,0,0,1.08239X$1,22.5*
%
%ADD10C,0.13800*%
%ADD11R,0.03300X0.05800*%
%ADD12C,0.00500*%
%ADD13C,0.08200*%
%ADD14C,0.03300*%
D10*
X0038750Y0118750D03*
X0118750Y0118750D03*
X0140750Y0118750D03*
X0220750Y0118750D03*
X0242750Y0118750D03*
X0322750Y0118750D03*
X0322750Y0220750D03*
X0242750Y0220750D03*
X0220750Y0220750D03*
X0140750Y0220750D03*
X0118750Y0220750D03*
X0038750Y0220750D03*
X0038750Y0322750D03*
X0118750Y0322750D03*
X0140750Y0322750D03*
X0220750Y0322750D03*
X0242750Y0322750D03*
X0322750Y0322750D03*
D11*
X0286750Y0297750D03*
X0282750Y0297750D03*
X0278750Y0297750D03*
X0184750Y0297750D03*
X0180750Y0297750D03*
X0176750Y0297750D03*
X0082750Y0297750D03*
X0078750Y0297750D03*
X0074750Y0297750D03*
X0074750Y0195750D03*
X0078750Y0195750D03*
X0082750Y0195750D03*
X0176750Y0195750D03*
X0180750Y0195750D03*
X0184750Y0195750D03*
X0278750Y0195750D03*
X0282750Y0195750D03*
X0286750Y0195750D03*
X0286750Y0093750D03*
X0282750Y0093750D03*
X0278750Y0093750D03*
X0184750Y0093750D03*
X0180750Y0093750D03*
X0176750Y0093750D03*
X0082750Y0093750D03*
X0078750Y0093750D03*
X0074750Y0093750D03*
D12*
X0076000Y0093556D02*
X0077500Y0093556D01*
X0077500Y0093250D02*
X0077500Y0094250D01*
X0076000Y0094250D01*
X0076000Y0093250D01*
X0077500Y0093250D01*
X0077500Y0094055D02*
X0076000Y0094055D01*
X0080000Y0094055D02*
X0081500Y0094055D01*
X0081500Y0094250D02*
X0081500Y0093250D01*
X0080000Y0093250D01*
X0080000Y0094250D01*
X0081500Y0094250D01*
X0081500Y0093556D02*
X0080000Y0093556D01*
X0178000Y0093556D02*
X0179500Y0093556D01*
X0179500Y0093250D02*
X0179500Y0094250D01*
X0178000Y0094250D01*
X0178000Y0093250D01*
X0179500Y0093250D01*
X0179500Y0094055D02*
X0178000Y0094055D01*
X0182000Y0094055D02*
X0183500Y0094055D01*
X0183500Y0094250D02*
X0183500Y0093250D01*
X0182000Y0093250D01*
X0182000Y0094250D01*
X0183500Y0094250D01*
X0183500Y0093556D02*
X0182000Y0093556D01*
X0280000Y0093556D02*
X0281500Y0093556D01*
X0281500Y0093250D02*
X0281500Y0094250D01*
X0280000Y0094250D01*
X0280000Y0093250D01*
X0281500Y0093250D01*
X0281500Y0094055D02*
X0280000Y0094055D01*
X0284000Y0094055D02*
X0285500Y0094055D01*
X0285500Y0094250D02*
X0285500Y0093250D01*
X0284000Y0093250D01*
X0284000Y0094250D01*
X0285500Y0094250D01*
X0285500Y0093556D02*
X0284000Y0093556D01*
X0284000Y0195250D02*
X0285500Y0195250D01*
X0285500Y0196250D01*
X0284000Y0196250D01*
X0284000Y0195250D01*
X0284000Y0195253D02*
X0285500Y0195253D01*
X0285500Y0195751D02*
X0284000Y0195751D01*
X0284000Y0196250D02*
X0285500Y0196250D01*
X0281500Y0196250D02*
X0280000Y0196250D01*
X0280000Y0195250D01*
X0281500Y0195250D01*
X0281500Y0196250D01*
X0280000Y0196250D01*
X0280000Y0195751D02*
X0281500Y0195751D01*
X0281500Y0195253D02*
X0280000Y0195253D01*
X0183500Y0195253D02*
X0182000Y0195253D01*
X0182000Y0195250D02*
X0183500Y0195250D01*
X0183500Y0196250D01*
X0182000Y0196250D01*
X0182000Y0195250D01*
X0182000Y0195751D02*
X0183500Y0195751D01*
X0183500Y0196250D02*
X0182000Y0196250D01*
X0179500Y0196250D02*
X0178000Y0196250D01*
X0178000Y0195250D01*
X0179500Y0195250D01*
X0179500Y0196250D01*
X0178000Y0196250D01*
X0178000Y0195751D02*
X0179500Y0195751D01*
X0179500Y0195253D02*
X0178000Y0195253D01*
X0081500Y0195253D02*
X0080000Y0195253D01*
X0080000Y0195250D02*
X0081500Y0195250D01*
X0081500Y0196250D01*
X0080000Y0196250D01*
X0080000Y0195250D01*
X0080000Y0195751D02*
X0081500Y0195751D01*
X0081500Y0196250D02*
X0080000Y0196250D01*
X0077500Y0196250D02*
X0076000Y0196250D01*
X0076000Y0195250D01*
X0077500Y0195250D01*
X0077500Y0196250D01*
X0076000Y0196250D01*
X0076000Y0195751D02*
X0077500Y0195751D01*
X0077500Y0195253D02*
X0076000Y0195253D01*
X0076000Y0297250D02*
X0077500Y0297250D01*
X0077500Y0298250D01*
X0076000Y0298250D01*
X0076000Y0297250D01*
X0076000Y0297448D02*
X0077500Y0297448D01*
X0077500Y0297946D02*
X0076000Y0297946D01*
X0080000Y0297946D02*
X0081500Y0297946D01*
X0081500Y0298250D02*
X0081500Y0297250D01*
X0080000Y0297250D01*
X0080000Y0298250D01*
X0081500Y0298250D01*
X0081500Y0297448D02*
X0080000Y0297448D01*
X0178000Y0297448D02*
X0179500Y0297448D01*
X0179500Y0297250D02*
X0179500Y0298250D01*
X0178000Y0298250D01*
X0178000Y0297250D01*
X0179500Y0297250D01*
X0179500Y0297946D02*
X0178000Y0297946D01*
X0182000Y0297946D02*
X0183500Y0297946D01*
X0183500Y0298250D02*
X0183500Y0297250D01*
X0182000Y0297250D01*
X0182000Y0298250D01*
X0183500Y0298250D01*
X0183500Y0297448D02*
X0182000Y0297448D01*
X0280000Y0297448D02*
X0281500Y0297448D01*
X0281500Y0297250D02*
X0281500Y0298250D01*
X0280000Y0298250D01*
X0280000Y0297250D01*
X0281500Y0297250D01*
X0281500Y0297946D02*
X0280000Y0297946D01*
X0284000Y0297946D02*
X0285500Y0297946D01*
X0285500Y0298250D02*
X0285500Y0297250D01*
X0284000Y0297250D01*
X0284000Y0298250D01*
X0285500Y0298250D01*
X0285500Y0297448D02*
X0284000Y0297448D01*
D13*
X0063750Y0033750D03*
X0073750Y0033750D03*
X0083750Y0033750D03*
X0093750Y0033750D03*
X0165750Y0033750D03*
X0175750Y0033750D03*
X0185750Y0033750D03*
X0195750Y0033750D03*
X0267750Y0033750D03*
X0277750Y0033750D03*
X0287750Y0033750D03*
X0297750Y0033750D03*
X0297750Y0135750D03*
X0287750Y0135750D03*
X0277750Y0135750D03*
X0267750Y0135750D03*
X0195750Y0135750D03*
X0185750Y0135750D03*
X0175750Y0135750D03*
X0165750Y0135750D03*
X0093750Y0135750D03*
X0083750Y0135750D03*
X0073750Y0135750D03*
X0063750Y0135750D03*
X0063750Y0237750D03*
X0073750Y0237750D03*
X0083750Y0237750D03*
X0093750Y0237750D03*
X0165750Y0237750D03*
X0175750Y0237750D03*
X0185750Y0237750D03*
X0195750Y0237750D03*
X0267750Y0237750D03*
X0277750Y0237750D03*
X0287750Y0237750D03*
X0297750Y0237750D03*
D14*
X0329250Y0236250D03*
X0235750Y0227750D03*
X0227250Y0236250D03*
X0133750Y0227750D03*
X0125250Y0236250D03*
X0031750Y0227750D03*
X0125250Y0134250D03*
X0133750Y0125750D03*
X0227250Y0134250D03*
X0235750Y0125750D03*
X0329250Y0134250D03*
X0329250Y0032250D03*
X0227250Y0032250D03*
X0125250Y0032250D03*
X0031750Y0125750D03*
X0031750Y0329750D03*
X0133750Y0329750D03*
X0235750Y0329750D03*
M02*
