%
M48
M72
T01C0.0120
T02C0.0400
T03C0.1300
%
T01
X7875Y4375
X8375Y6875
X9375Y7875
X8975Y8275
X10075Y8625
X10375Y9375
X9210Y9990
X6875Y9875
X6540Y9840
X5375Y8375
X6375Y7875
X9875Y6875
X15575Y8375
X16575Y7875
X16740Y9840
X17075Y9875
X19175Y8275
X19575Y7875
X20275Y8625
X20575Y9375
X19410Y9990
X20075Y6875
X18575Y6875
X18075Y4375
X25775Y8375
X26775Y7875
X26940Y9840
X27275Y9875
X29375Y8275
X29775Y7875
X30475Y8625
X30775Y9375
X29610Y9990
X30275Y6875
X28775Y6875
X28275Y4375
X28275Y14575
X28775Y17075
X29775Y18075
X29375Y18475
X30475Y18825
X30775Y19575
X29610Y20190
X27275Y20075
X26940Y20040
X25775Y18575
X26775Y18075
X30275Y17075
X28275Y24775
X28775Y27275
X29775Y28275
X29375Y28675
X30475Y29025
X30775Y29775
X29610Y30390
X27275Y30275
X26940Y30240
X25775Y28775
X26775Y28275
X30275Y27275
X20575Y29775
X20275Y29025
X19575Y28275
X19175Y28675
X18575Y27275
X20075Y27275
X19410Y30390
X17075Y30275
X16740Y30240
X15575Y28775
X16575Y28275
X18075Y24775
X19410Y20190
X20575Y19575
X20275Y18825
X19575Y18075
X19175Y18475
X18575Y17075
X20075Y17075
X18075Y14575
X16575Y18075
X15575Y18575
X16740Y20040
X17075Y20075
X10375Y19575
X10075Y18825
X9375Y18075
X8975Y18475
X8375Y17075
X9875Y17075
X7875Y14575
X6375Y18075
X5375Y18575
X6540Y20040
X6875Y20075
X9210Y20190
X7875Y24775
X8375Y27275
X9375Y28275
X8975Y28675
X10075Y29025
X10375Y29775
X9210Y30390
X6875Y30275
X6540Y30240
X5375Y28775
X6375Y28275
X9875Y27275
T02
X6375Y3375
X7375Y3375
X8375Y3375
X9375Y3375
X16575Y3375
X17575Y3375
X18575Y3375
X19575Y3375
X26775Y3375
X27775Y3375
X28775Y3375
X29775Y3375
X29775Y13575
X28775Y13575
X27775Y13575
X26775Y13575
X19575Y13575
X18575Y13575
X17575Y13575
X16575Y13575
X9375Y13575
X8375Y13575
X7375Y13575
X6375Y13575
X6375Y23775
X7375Y23775
X8375Y23775
X9375Y23775
X16575Y23775
X17575Y23775
X18575Y23775
X19575Y23775
X26775Y23775
X27775Y23775
X28775Y23775
X29775Y23775
T03
X32275Y22075
X24275Y22075
X22075Y22075
X14075Y22075
X11875Y22075
X3875Y22075
X3875Y32275
X11875Y32275
X14075Y32275
X22075Y32275
X24275Y32275
X32275Y32275
X32275Y11875
X24275Y11875
X22075Y11875
X14075Y11875
X11875Y11875
X3875Y11875
M30
